<svg xmlns="http://www.w3.org/2000/svg" xmlns:xlink="http://www.w3.org/1999/xlink" zoomAndPan="magnify" preserveAspectRatio="xMidYMid meet" version="1.0" viewBox="606.3 355.48 225.59 97.45"><path fill="#ffffff" d="M 768.546875 399.878906 L 768.726562 396.269531 L 768.726562 395.1875 L 767.28125 395.1875 C 765.117188 395.1875 762.769531 395.730469 761.148438 396.8125 C 758.621094 398.253906 757.175781 400.960938 757.175781 404.753906 C 757.175781 410.167969 759.882812 413.234375 764.574219 413.234375 C 766.019531 413.234375 766.921875 413.054688 768.726562 412.511719 L 768.726562 404.753906 Z M 633.917969 404.570312 C 633.917969 410.347656 636.804688 413.414062 642.398438 413.414062 C 643.660156 413.414062 644.203125 413.414062 646.007812 413.054688 L 646.007812 395.910156 C 644.203125 395.546875 643.84375 395.367188 642.398438 395.367188 C 636.984375 395.367188 633.917969 398.796875 633.917969 404.570312 Z M 687.335938 411.609375 C 687.335938 413.777344 688.597656 414.679688 691.484375 414.679688 C 693.109375 414.679688 694.734375 414.496094 696.539062 414.136719 L 696.539062 406.917969 C 689.320312 407.640625 687.335938 408.722656 687.335938 411.609375 Z M 801.03125 395.1875 C 796.878906 395.1875 794.351562 398.617188 794.351562 404.570312 C 794.351562 410.527344 796.699219 413.957031 801.03125 413.957031 C 805.179688 413.957031 807.527344 410.527344 807.527344 404.570312 C 807.527344 398.796875 805.179688 395.1875 801.03125 395.1875 Z M 831.890625 367.9375 C 831.890625 361.078125 826.296875 355.484375 819.4375 355.484375 L 618.757812 355.484375 C 611.898438 355.484375 606.304688 361.078125 606.304688 367.9375 L 606.304688 440.304688 C 606.304688 447.34375 611.898438 452.9375 618.757812 452.9375 L 819.257812 452.9375 C 826.117188 452.9375 831.710938 447.34375 831.710938 440.484375 L 831.710938 367.9375 Z M 623.089844 404.753906 C 623.089844 393.925781 630.308594 386.707031 641.496094 386.707031 C 643.300781 386.707031 644.382812 386.886719 646.1875 387.246094 L 646.1875 371.726562 L 657.015625 371.726562 L 657.015625 420.453125 C 651.601562 421.535156 647.453125 421.898438 643.121094 421.898438 C 629.945312 421.898438 623.089844 416.121094 623.089844 404.753906 Z M 673.078125 412.332031 C 673.078125 420.8125 672.71875 424.964844 670.914062 428.574219 C 669.109375 432.003906 667.121094 434.167969 662.429688 436.515625 L 652.503906 431.824219 C 657.195312 429.65625 659.183594 427.671875 660.625 424.605469 C 662.070312 421.535156 662.25 417.925781 662.25 408.722656 L 662.25 387.96875 L 673.078125 387.96875 Z M 673.078125 382.554688 L 662.25 382.554688 L 662.25 371.726562 L 673.078125 371.726562 Z M 705.5625 420.996094 C 701.953125 421.714844 695.09375 422.257812 690.582031 422.257812 C 681.558594 422.257812 677.769531 419.191406 677.769531 412.152344 C 677.769531 404.570312 683.726562 401.144531 696.359375 400.058594 L 696.359375 397.714844 C 696.359375 395.730469 695.457031 395.007812 692.75 395.007812 C 688.777344 395.007812 683.726562 396.089844 680.117188 398.253906 L 680.117188 389.953125 C 685.53125 387.789062 689.320312 386.707031 694.191406 386.707031 C 699.605469 386.707031 702.855469 388.148438 704.480469 391.035156 C 705.382812 392.660156 705.382812 394.644531 705.382812 399.15625 L 705.382812 420.996094 Z M 743.460938 422.257812 L 732.632812 422.257812 L 732.632812 400.960938 C 732.632812 396.8125 730.828125 395.367188 727.039062 395.367188 C 725.59375 395.367188 723.609375 395.546875 721.804688 396.089844 L 721.804688 422.257812 L 710.976562 422.257812 L 710.976562 389.230469 C 718.195312 387.609375 722.707031 386.886719 727.941406 386.886719 C 733.355469 386.886719 737.6875 388.148438 740.03125 390.496094 C 742.378906 392.839844 743.460938 395.1875 743.460938 400.601562 Z M 778.292969 401.324219 L 779.554688 411.429688 L 779.554688 414.496094 C 779.554688 423.703125 778.472656 428.03125 776.125 431.460938 C 772.878906 436.695312 766.921875 439.222656 758.621094 439.222656 C 754.46875 439.222656 750.5 438.679688 746.890625 437.054688 L 746.890625 427.128906 C 750.5 429.117188 754.46875 430.019531 758.441406 430.019531 C 765.476562 430.019531 768.546875 427.128906 768.546875 420.453125 L 768.546875 420.273438 C 766.742188 421.355469 764.214844 421.714844 761.507812 421.714844 C 752.125 421.714844 746.167969 415.582031 746.167969 405.835938 C 746.167969 393.742188 755.011719 386.886719 770.53125 386.886719 C 775.042969 386.886719 779.375 387.425781 784.425781 388.328125 L 780.277344 396.089844 C 777.390625 395.546875 782.621094 396.089844 779.011719 395.730469 M 800.851562 422.4375 C 790.203125 422.4375 783.523438 415.761719 783.523438 404.933594 C 783.523438 393.742188 790.382812 386.707031 801.210938 386.707031 C 811.859375 386.707031 818.355469 393.382812 818.355469 404.390625 C 818.535156 415.398438 811.679688 422.4375 800.851562 422.4375 Z M 800.851562 422.4375 " fill-opacity="1" fill-rule="nonzero"></path></svg>