
<svg xmlns="http://www.w3.org/2000/svg" width="158" height="48" fill="none">
  <path fill="#ffffff" fill-rule="evenodd"
    d="M49.455 13.018c.004.01.01.02.012.03a.658.658 0 0 1 .022.164v8.586a.627.627 0 0 1-.311.543l-7.138 4.15v8.223a.627.627 0 0 1-.312.543l-14.899 8.66a.533.533 0 0 1-.108.044c-.014.006-.027.014-.042.018a.612.612 0 0 1-.318 0 .164.164 0 0 1-.028-.01l-.02-.01c-.035-.013-.07-.024-.103-.043l-14.899-8.659a.628.628 0 0 1-.311-.543V8.956c0-.055.007-.11.021-.163.006-.019.016-.035.022-.053l.02-.053a.336.336 0 0 1 .02-.044c.012-.02.029-.037.043-.056.018-.025.033-.05.055-.073.018-.018.04-.03.06-.047.023-.018.044-.038.069-.053l7.45-4.33a.616.616 0 0 1 .62 0l7.45 4.33c.025.015.046.035.069.053l.021.016c.014.01.028.02.04.031a.345.345 0 0 1 .04.051l.015.022c.013.02.03.035.042.056.017.03.028.064.04.097l.01.022.012.03a.644.644 0 0 1 .021.164v16.088l6.208-3.608v-8.224a.64.64 0 0 1 .022-.163c.005-.019.015-.035.021-.053l.007-.02a.279.279 0 0 1 .076-.133c.018-.025.034-.05.055-.073.01-.01.02-.017.03-.025.01-.007.021-.014.03-.022l.036-.03a.26.26 0 0 1 .033-.023l7.45-4.33a.616.616 0 0 1 .62 0l7.45 4.33c.026.015.046.036.069.053l.022.016c.013.01.027.02.038.031a.327.327 0 0 1 .04.052l.016.021.016.02c.01.012.019.023.026.036a.522.522 0 0 1 .034.08l.006.017.01.022ZM20.322 30.453l6.196 3.54 13.652-7.867-6.201-3.605-13.647 7.932Zm20.476-5.409v-7.14l-6.208-3.607v7.14l6.208 3.607Zm6.826-11.83-6.206-3.608-6.205 3.607 6.205 3.606 6.206-3.606Zm-27.933.434v15.726l6.208-3.609V10.04l-6.209 3.608h.001Zm5.584-4.692L19.07 5.35l-6.206 3.606 6.206 3.607 6.205-3.607Zm-6.826 4.694-6.208-3.61v24.31L25.9 42.29v-7.21l-7.135-4.076h-.002L18.759 31c-.025-.015-.045-.035-.067-.053a.473.473 0 0 0-.022-.015.274.274 0 0 1-.037-.03l-.002-.002c-.013-.013-.024-.029-.035-.044a.589.589 0 0 0-.016-.022l-.03-.038a.201.201 0 0 1-.016-.023l-.001-.002a.26.26 0 0 1-.023-.054l-.01-.024-.015-.033a.237.237 0 0 1-.014-.038.38.38 0 0 1-.01-.068l-.003-.025a.453.453 0 0 0-.004-.026c-.002-.014-.005-.029-.005-.044V13.65v.001Zm8.691 21.43v7.21l13.657-7.937V27.21L27.14 35.08v.001Zm14.9-10.037 6.208-3.608v-7.14l-6.208 3.61v7.14-.002Z"
    clip-rule="evenodd" />
  <path fill="#ffffff" d="M143.737 13.214h3.261V34.36h-3.261V13.214Zm-84.346 0h3.44V31.25h6.464v3.11H59.39V13.216Z" />
  <path fill="#ffffff" fill-rule="evenodd"
    d="M79.576 20.525c.808.403 1.43.956 1.87 1.66v-1.902h3.26V34.36h-3.26v-1.903c-.44.705-1.062 1.259-1.87 1.66-.808.404-1.621.605-2.44.605-1.057 0-2.024-.196-2.902-.59a6.789 6.789 0 0 1-2.26-1.615 7.523 7.523 0 0 1-1.465-2.356 7.667 7.667 0 0 1-.524-2.84c0-.986.174-1.928.524-2.824a7.493 7.493 0 0 1 1.466-2.371 6.798 6.798 0 0 1 2.26-1.616c.877-.393 1.844-.59 2.902-.59.818 0 1.63.202 2.439.605Zm.733 9.938a4.37 4.37 0 0 0 .838-1.42 4.99 4.99 0 0 0 .3-1.721c0-.605-.101-1.18-.3-1.722a4.374 4.374 0 0 0-.838-1.42 4.057 4.057 0 0 0-1.302-.967 3.893 3.893 0 0 0-1.69-.362c-.62 0-1.178.12-1.677.362a4.105 4.105 0 0 0-1.286.967c-.36.403-.634.876-.823 1.42a5.182 5.182 0 0 0-.284 1.722c0 .604.094 1.178.284 1.72.177.524.457 1.007.823 1.42.36.404.788.726 1.286.968.523.247 1.097.37 1.676.362.618 0 1.182-.12 1.69-.362.495-.231.938-.56 1.303-.967Zm27.649-8.277c-.44-.705-1.063-1.258-1.87-1.661-.808-.403-1.621-.604-2.44-.604-1.057 0-2.024.196-2.902.589a6.795 6.795 0 0 0-2.26 1.616 7.49 7.49 0 0 0-1.465 2.37c-.35.901-.528 1.86-.524 2.826 0 1.007.174 1.953.524 2.84a7.52 7.52 0 0 0 1.466 2.355 6.785 6.785 0 0 0 2.26 1.616c.877.393 1.844.59 2.902.59.818 0 1.63-.202 2.439-.605.808-.402 1.43-.956 1.87-1.66v1.902h3.261V20.283h-3.261v1.903Zm-.3 6.857a4.39 4.39 0 0 1-.838 1.42 4.05 4.05 0 0 1-1.301.967c-.53.246-1.108.37-1.691.362-.618 0-1.177-.12-1.676-.362a4.082 4.082 0 0 1-2.109-2.387 5.17 5.17 0 0 1-.285-1.721c0-.605.095-1.18.285-1.722a4.087 4.087 0 0 1 2.109-2.387 3.792 3.792 0 0 1 1.676-.362c.618 0 1.182.12 1.69.362.51.242.943.565 1.302.967.36.403.639.876.839 1.42.198.543.299 1.117.299 1.722 0 .604-.1 1.178-.3 1.72Z"
    clip-rule="evenodd" />
  <path fill="#ffffff"
    d="M87.282 34.36h3.262V23.523h5.596v-3.24h-8.859l.001 14.077Zm32.916-3.297 4.099-10.78h3.304l-5.354 14.077h-4.099l-5.353-14.077h3.303l4.1 10.78Z" />
  <path fill="#ffffff" fill-rule="evenodd"
    d="M134.711 19.92c-3.994 0-7.156 3.315-7.156 7.4 0 4.52 3.06 7.402 7.574 7.402 2.526 0 4.139-.975 6.109-3.098l-2.203-1.721c-.002 0-1.664 2.204-4.145 2.204-2.884 0-4.099-2.348-4.099-3.562h10.821c.568-4.65-2.46-8.624-6.901-8.624Zm-3.911 6.178c.025-.27.401-3.562 3.885-3.562s3.907 3.29 3.931 3.562H130.8Z"
    clip-rule="evenodd" />
</svg>