<svg xmlns="http://www.w3.org/2000/svg" xmlns:xlink="http://www.w3.org/1999/xlink" zoomAndPan="magnify" preserveAspectRatio="xMidYMid meet" version="1.0" viewBox="618.11 356.93 203.17 78.49"><path fill="#ffffff" d="M 635.5 357.144531 L 637.59375 361.082031 C 638.050781 361.792969 638.578125 362.449219 639.175781 363.046875 C 640.929688 364.800781 642.597656 366.636719 644.089844 368.605469 C 647.640625 373.265625 650.03125 378.4375 651.742188 384.042969 C 652.769531 387.460938 653.324219 390.96875 653.367188 394.515625 C 653.539062 405.121094 649.902344 414.226562 642.550781 421.792969 C 641.359375 422.996094 640.074219 424.09375 638.703125 425.085938 C 637.972656 425.085938 637.632812 424.511719 637.335938 424.019531 C 636.757812 423.058594 636.4375 422.007812 636.265625 420.941406 C 636.007812 419.65625 635.835938 418.375 635.921875 417.046875 L 635.921875 416.449219 C 635.882812 416.320312 635.238281 357.445312 635.496094 357.148438 Z M 635.5 357.144531 " fill-opacity="1" fill-rule="nonzero"></path><path fill="#ffffff" d="M 635.5 357.019531 C 635.414062 356.847656 635.328125 356.976562 635.242188 357.0625 C 635.285156 357.914062 634.988281 358.683594 634.515625 359.414062 C 634 360.140625 633.316406 360.695312 632.632812 361.292969 C 628.828125 364.585938 625.835938 368.5625 623.441406 373.007812 C 620.277344 378.996094 618.609375 385.410156 618.140625 392.164062 C 617.929688 394.601562 618.910156 403.195312 619.679688 405.675781 C 621.773438 412.261719 625.535156 417.773438 630.433594 422.5625 C 631.628906 423.714844 632.914062 424.785156 634.238281 425.8125 C 634.621094 425.8125 634.664062 425.46875 634.75 425.210938 C 634.917969 424.664062 635.046875 424.109375 635.132812 423.542969 C 635.519531 421.40625 635.734375 419.269531 635.988281 417.132812 L 635.519531 357.019531 Z M 635.5 357.019531 " fill-opacity="1" fill-rule="nonzero"></path><path fill="#ffffff" d="M 637.597656 427.695312 C 637.6875 426.710938 638.175781 425.898438 638.667969 425.085938 C 638.15625 424.875 637.769531 424.445312 637.472656 423.972656 C 637.214844 423.546875 637 423.015625 636.828125 422.5625 C 636.230469 420.769531 636.101562 418.886719 635.929688 417.046875 L 635.929688 415.933594 C 635.71875 416.105469 635.671875 417.558594 635.671875 417.773438 C 635.546875 419.738281 635.289062 421.664062 634.90625 423.542969 C 634.777344 424.3125 634.695312 425.082031 634.222656 425.765625 C 634.222656 425.851562 634.222656 425.941406 634.265625 426.066406 C 635.03125 428.332031 635.246094 430.640625 635.378906 432.992188 L 635.378906 433.847656 C 635.378906 434.875 635.335938 434.660156 636.191406 435 C 636.53125 435.128906 636.917969 435.171875 637.257812 435.429688 C 637.515625 435.429688 637.558594 435.21875 637.558594 435.042969 L 637.429688 433.632812 L 637.429688 429.695312 C 637.386719 429.015625 637.515625 428.328125 637.601562 427.6875 Z M 637.597656 427.695312 " fill-opacity="1" fill-rule="nonzero"></path><path fill="#ffffff" d="M 670.066406 409.8125 L 670.066406 413.886719 C 670.0625 414.046875 670.070312 414.207031 670.09375 414.367188 C 670.148438 414.847656 670.441406 415.144531 670.878906 415.277344 C 671.285156 415.386719 671.695312 415.464844 672.113281 415.519531 C 672.355469 415.546875 672.433594 415.652344 672.460938 415.910156 C 672.488281 416.824219 672.410156 416.929688 671.527344 416.875 C 669.464844 416.769531 667.398438 416.742188 665.335938 416.875 L 665.140625 416.875 C 664.496094 416.902344 664.445312 416.847656 664.445312 416.207031 C 664.445312 416.097656 664.472656 415.964844 664.472656 415.855469 C 664.472656 415.660156 664.605469 415.5625 664.792969 415.5625 C 665.222656 415.511719 665.625 415.402344 666.027344 415.320312 C 666.589844 415.1875 666.910156 414.839844 666.964844 414.277344 C 667.042969 413.660156 667.042969 413.019531 667.042969 412.402344 L 667.070312 405.222656 C 667.082031 405.007812 667.03125 404.808594 666.925781 404.625 C 666.820312 404.441406 666.671875 404.300781 666.484375 404.203125 C 665.996094 403.933594 665.488281 403.71875 664.953125 403.558594 C 664.792969 403.507812 664.632812 403.480469 664.5 403.398438 C 664.105469 403.210938 664.097656 402.863281 664.472656 402.648438 C 664.605469 402.570312 664.765625 402.515625 664.925781 402.488281 C 666.558594 402.246094 668.144531 401.84375 669.695312 401.28125 C 670.015625 401.171875 670.097656 401.203125 670.125 401.523438 C 670.152344 401.71875 670.125 401.953125 670.097656 402.136719 C 670.046875 402.488281 670.046875 402.832031 670.046875 403.15625 C 670.046875 403.289062 670.074219 403.425781 670.207031 403.507812 C 670.339844 403.585938 670.476562 403.507812 670.597656 403.425781 C 671.160156 402.996094 671.722656 402.597656 672.339844 402.25 C 673.222656 401.769531 674.164062 401.339844 675.183594 401.207031 C 676.417969 401.046875 677.484375 401.367188 678.425781 402.171875 C 678.8125 402.519531 679.152344 402.914062 679.441406 403.347656 C 679.710938 403.742188 679.734375 403.75 680.085938 403.484375 C 681.105469 402.730469 682.175781 402.0625 683.328125 401.582031 C 684.535156 401.070312 685.765625 400.992188 686.996094 401.421875 C 688.257812 401.875 689.113281 402.757812 689.625 403.964844 C 690.054688 404.929688 690.238281 405.925781 690.238281 406.964844 L 690.238281 414.144531 C 690.238281 414.625 690.4375 414.929688 690.910156 415.164062 C 691.421875 415.359375 691.984375 415.457031 692.519531 415.566406 C 692.867188 415.644531 692.867188 415.644531 692.867188 415.996094 C 692.8125 416.878906 692.734375 416.933594 691.875 416.878906 C 689.722656 416.757812 687.570312 416.757812 685.417969 416.878906 C 684.988281 416.90625 684.988281 416.90625 684.964844 416.476562 L 684.964844 416.34375 C 684.9375 415.617188 684.9375 415.617188 685.636719 415.460938 L 686.332031 415.273438 C 686.574219 415.214844 686.773438 415.089844 686.929688 414.894531 C 687.082031 414.699219 687.160156 414.476562 687.164062 414.226562 L 687.242188 412.21875 L 687.1875 406.96875 C 687.167969 406.496094 687.070312 406.039062 686.894531 405.601562 C 686.222656 403.964844 684.75 403.378906 683.328125 403.539062 C 682.257812 403.648438 681.320312 404.074219 680.4375 404.691406 C 680.246094 404.824219 680.113281 404.984375 680.140625 405.253906 C 680.382812 406.96875 680.21875 408.6875 680.25 410.398438 L 680.25 414.125 C 680.25 414.792969 680.519531 415.117188 681.160156 415.277344 L 682.394531 415.546875 C 682.585938 415.574219 682.691406 415.652344 682.691406 415.867188 L 682.691406 416.0625 C 682.664062 416.8125 682.613281 416.847656 681.859375 416.839844 C 679.714844 416.730469 677.570312 416.761719 675.457031 416.839844 C 674.730469 416.867188 674.671875 416.785156 674.707031 416.054688 C 674.734375 415.625 674.785156 415.601562 675.1875 415.519531 L 676.070312 415.359375 C 676.855469 415.199219 677.140625 414.902344 677.195312 414.074219 L 677.273438 412.277344 L 677.222656 406.890625 C 677.167969 406.222656 677.023438 405.578125 676.65625 404.960938 C 676.121094 403.96875 675.285156 403.464844 674.140625 403.40625 C 672.984375 403.328125 671.96875 403.757812 671.003906 404.289062 C 670.332031 404.683594 670.039062 405.148438 670.089844 405.925781 L 670.089844 409.835938 Z M 720.542969 409.976562 L 720.542969 413.753906 C 720.546875 414.023438 720.566406 414.289062 720.597656 414.558594 C 720.609375 414.738281 720.671875 414.902344 720.792969 415.039062 C 720.910156 415.179688 721.058594 415.269531 721.238281 415.308594 C 721.703125 415.441406 722.175781 415.523438 722.660156 415.550781 C 722.925781 415.578125 722.980469 415.683594 723.007812 415.898438 L 723.007812 416.085938 C 722.980469 417.023438 722.875 417.132812 721.960938 417.078125 C 719.921875 416.945312 717.890625 416.96875 715.855469 417.078125 L 715.070312 417.105469 C 714.910156 417.105469 714.875 417.027344 714.828125 416.917969 C 714.75 416.542969 714.75 416.167969 714.828125 415.792969 C 714.855469 415.632812 714.960938 415.597656 715.121094 415.550781 C 715.515625 415.5 715.847656 415.417969 716.21875 415.355469 C 716.890625 415.195312 717.132812 414.925781 717.15625 414.230469 L 717.234375 411.980469 L 717.234375 405.386719 C 717.234375 404.90625 717.046875 404.613281 716.621094 404.394531 C 716.136719 404.128906 715.628906 403.941406 715.089844 403.753906 C 714.929688 403.699219 714.769531 403.644531 714.636719 403.566406 C 714.289062 403.324219 714.246094 402.976562 714.582031 402.707031 C 714.738281 402.582031 714.917969 402.507812 715.117188 402.492188 C 716.835938 402.222656 718.496094 401.847656 720.101562 401.207031 C 720.289062 401.128906 720.371094 401.179688 720.449219 401.339844 C 720.53125 401.5 720.558594 401.6875 720.53125 401.875 L 720.449219 403.132812 C 720.449219 403.292969 720.371094 403.527344 720.503906 403.589844 C 720.664062 403.695312 720.773438 403.457031 720.90625 403.390625 C 721.699219 402.726562 722.566406 402.171875 723.503906 401.730469 C 724.335938 401.339844 725.191406 401.089844 726.15625 401.144531 C 727.953125 401.25 729.238281 402.164062 730.070312 403.742188 C 730.5 404.574219 730.683594 405.484375 730.765625 406.421875 L 730.84375 408.382812 L 730.871094 414.304688 C 730.898438 414.757812 731.058594 415.054688 731.515625 415.214844 C 731.988281 415.375 732.46875 415.488281 732.960938 415.566406 C 733.390625 415.617188 733.414062 415.699219 733.441406 416.101562 L 733.441406 416.234375 C 733.390625 417.144531 733.335938 417.171875 732.421875 417.117188 C 730.421875 417.007812 728.421875 417.007812 726.421875 417.117188 C 726.152344 417.144531 725.886719 417.117188 725.636719 417.144531 C 725.476562 417.144531 725.371094 417.117188 725.34375 416.953125 C 725.292969 416.605469 725.238281 416.257812 725.316406 415.882812 C 725.34375 415.722656 725.425781 415.640625 725.609375 415.613281 L 726.847656 415.417969 C 727.277344 415.308594 727.515625 415.027344 727.570312 414.632812 L 727.625 413.882812 L 727.597656 408.285156 C 727.597656 407.640625 727.570312 406.996094 727.4375 406.355469 C 727.113281 404.980469 726.070312 404.003906 724.652344 403.863281 C 723.417969 403.730469 722.300781 404.054688 721.277344 404.722656 C 720.765625 405.042969 720.550781 405.496094 720.550781 406.0625 L 720.550781 410.105469 C 720.550781 410.027344 720.550781 410.027344 720.578125 410.027344 Z M 720.542969 409.976562 " fill-opacity="1" fill-rule="nonzero"></path><path fill="#ffffff" d="M 799.011719 402.390625 C 798.71875 400.4375 797.992188 398.695312 796.734375 397.167969 C 795.621094 395.796875 794.246094 394.777344 792.609375 394.113281 C 790.921875 393.417969 789.125 393.203125 787.304688 393.148438 C 786.550781 393.121094 776.320312 393.28125 775.566406 393.148438 C 775.378906 393.121094 775.246094 393.175781 775.136719 393.335938 C 775.003906 393.53125 774.867188 393.738281 774.789062 393.953125 C 774.464844 394.679688 774.464844 394.625 775.242188 394.730469 C 775.886719 394.835938 776.5 394.890625 777.117188 395.078125 C 777.679688 395.265625 778.082031 395.585938 778.214844 396.203125 C 778.269531 396.496094 778.324219 405.925781 778.324219 410.324219 L 778.214844 413.460938 C 778.1875 413.699219 778.164062 413.941406 778.082031 414.15625 C 777.976562 414.476562 777.789062 414.742188 777.46875 414.878906 C 777.109375 415.046875 776.734375 415.148438 776.34375 415.175781 C 775.617188 415.253906 775.511719 415.28125 775.269531 416.085938 L 775.191406 416.378906 C 775.136719 416.730469 775.164062 416.78125 775.511719 416.78125 L 783.523438 416.859375 L 786.660156 416.808594 L 788.832031 416.539062 C 791.292969 416.085938 793.492188 415.066406 795.367188 413.433594 C 796.449219 412.476562 797.304688 411.351562 797.9375 410.054688 C 798.691406 408.554688 799.011719 406.917969 799.089844 405.261719 C 799.226562 404.324219 799.167969 403.359375 799.011719 402.394531 Z M 795.128906 406.195312 C 795.019531 407.910156 794.671875 409.570312 793.789062 411.070312 C 792.664062 413.027344 791.054688 414.394531 788.832031 414.875 C 787.867188 415.070312 786.902344 415.167969 785.890625 415.035156 C 785.167969 414.957031 784.472656 414.875 783.800781 414.632812 C 782.597656 414.203125 782.167969 413.457031 782.140625 412.28125 L 782.113281 396.125 C 782.113281 395.164062 782.546875 394.949219 783.238281 394.921875 C 784.285156 394.84375 785.355469 394.867188 786.402344 394.972656 C 787.519531 395.082031 788.601562 395.34375 789.644531 395.757812 C 790.421875 396.082031 791.125 396.519531 791.761719 397.070312 C 793.207031 398.308594 794.171875 399.855469 794.703125 401.679688 C 795.132812 403.152344 795.210938 404.652344 795.132812 406.152344 Z M 821.28125 408.824219 C 821.28125 408.660156 821.28125 408.527344 821.253906 408.367188 C 821.011719 406.894531 820.234375 405.769531 819.03125 404.910156 C 818.253906 404.347656 817.367188 403.972656 816.457031 403.707031 C 816.296875 403.652344 816.164062 403.597656 816.003906 403.574219 C 816.03125 403.4375 816.109375 403.410156 816.191406 403.382812 C 816.726562 403.117188 817.234375 402.820312 817.691406 402.421875 C 818.523438 401.722656 819.0625 400.867188 819.351562 399.820312 C 819.511719 399.257812 819.511719 398.695312 819.457031 398.105469 C 819.414062 397.40625 819.222656 396.75 818.878906 396.140625 C 818.535156 395.527344 818.074219 395.023438 817.503906 394.621094 C 816.265625 393.710938 814.820312 393.335938 813.324219 393.308594 C 810.429688 393.253906 807.507812 393.308594 804.617188 393.308594 C 803.785156 393.308594 802.957031 393.359375 802.097656 393.230469 C 801.9375 393.203125 801.707031 393.152344 801.589844 393.335938 C 801.394531 393.6875 801.15625 394.03125 801.078125 394.433594 C 801.050781 394.625 801.105469 394.730469 801.320312 394.757812 L 803.167969 395.023438 C 803.894531 395.132812 804.402344 395.535156 804.457031 396.179688 C 804.507812 396.621094 804.535156 397.070312 804.535156 397.515625 L 804.480469 402.527344 L 804.453125 412.4375 C 804.453125 413.027344 804.375 413.589844 804.265625 414.179688 C 804.207031 414.597656 803.972656 414.863281 803.570312 414.984375 C 803.035156 415.144531 802.523438 415.304688 801.960938 415.304688 C 801.804688 415.289062 801.664062 415.324219 801.535156 415.410156 C 801.402344 415.496094 801.3125 415.609375 801.265625 415.757812 C 801.15625 416 801.070312 416.269531 801.023438 416.511719 C 800.972656 416.832031 801.050781 416.941406 801.375 416.902344 C 801.613281 416.875 810.457031 417.089844 812.117188 416.929688 C 813.109375 416.820312 814.078125 416.6875 815.0625 416.394531 C 816.75 415.859375 818.304688 415.082031 819.535156 413.765625 C 820.554688 412.695312 821.144531 411.410156 821.199219 409.910156 C 821.277344 409.558594 821.277344 409.214844 821.277344 408.835938 Z M 808.285156 397.84375 L 808.363281 395.703125 C 808.363281 395.300781 808.523438 395.113281 808.925781 395.03125 C 809.570312 394.898438 810.214844 394.953125 810.855469 394.976562 C 811.5 395.03125 812.113281 395.109375 812.757812 395.300781 C 813.933594 395.648438 814.847656 396.320312 815.386719 397.441406 C 815.632812 397.960938 815.757812 398.503906 815.757812 399.078125 C 815.785156 399.828125 815.730469 400.550781 815.4375 401.273438 C 814.984375 402.265625 814.261719 402.90625 813.214844 403.097656 C 812.167969 403.285156 809.195312 403.203125 808.742188 403.203125 C 808.339844 403.203125 808.308594 403.152344 808.308594 402.75 L 808.308594 400.226562 C 808.246094 399.441406 808.238281 398.65625 808.28125 397.867188 Z M 816.992188 412.257812 C 816.535156 413.464844 815.703125 414.296875 814.527344 414.746094 C 813.882812 414.988281 813.238281 415.140625 812.566406 415.097656 C 811.734375 415.070312 810.90625 415.097656 810.074219 414.9375 C 808.949219 414.695312 808.441406 413.621094 808.359375 412.847656 C 808.226562 411.480469 808.308594 410.085938 808.28125 409.066406 L 808.28125 405.53125 C 808.28125 405.101562 808.335938 404.96875 808.792969 404.96875 L 811.3125 404.996094 L 813.027344 405.191406 C 814.230469 405.460938 815.328125 405.917969 816.1875 406.851562 C 816.882812 407.601562 817.261719 408.511719 817.339844 409.503906 C 817.417969 410.441406 817.367188 411.355469 817.019531 412.238281 Z M 816.992188 412.257812 " fill-opacity="1" fill-rule="nonzero"></path><path fill="#ffffff" d="M 748.917969 404.1875 L 749.613281 404.292969 C 750.363281 404.320312 751.25 404.054688 751.515625 403.007812 C 751.664062 402.5 751.664062 401.988281 751.515625 401.480469 C 751.355469 401.480469 751.273438 401.613281 751.191406 401.667969 C 750.792969 401.988281 750.335938 402.175781 749.855469 402.230469 C 748.890625 402.335938 747.925781 402.28125 746.988281 401.9375 L 745.675781 401.480469 C 744.75 401.179688 743.800781 401.054688 742.832031 401.109375 C 741.464844 401.214844 740.179688 401.671875 738.972656 402.3125 C 737.6875 403.011719 736.777344 404.054688 736.347656 405.476562 C 736.105469 406.308594 736.078125 407.164062 736.1875 408.019531 C 736.453125 409.976562 737.472656 411.34375 739.292969 412.066406 C 739.402344 412.09375 739.480469 412.144531 739.585938 412.175781 C 739.828125 412.308594 739.855469 412.445312 739.640625 412.628906 L 738.96875 413.085938 L 737.363281 414.078125 C 736.960938 414.316406 736.90625 414.507812 737.039062 414.933594 C 737.203125 415.445312 737.488281 415.871094 737.898438 416.21875 C 738.265625 416.539062 738.679688 416.789062 739.128906 416.96875 C 739.425781 417.105469 739.425781 417.167969 739.15625 417.402344 L 737.628906 418.5 C 737.117188 418.890625 736.609375 419.285156 736.183594 419.785156 C 735.878906 420.109375 735.671875 420.484375 735.558594 420.910156 C 735.445312 421.339844 735.4375 421.765625 735.539062 422.195312 C 735.742188 423.152344 736.207031 423.953125 736.929688 424.609375 C 737.636719 425.265625 738.460938 425.710938 739.394531 425.949219 C 740.894531 426.378906 742.449219 426.402344 743.976562 426.109375 C 746.171875 425.707031 748.09375 424.734375 749.601562 423.082031 C 750.648438 421.984375 751.265625 420.699219 751.320312 419.160156 C 751.347656 418.714844 751.300781 418.28125 751.175781 417.851562 C 751.046875 417.425781 750.855469 417.03125 750.589844 416.675781 C 750.324219 416.316406 750.003906 416.015625 749.632812 415.769531 C 749.261719 415.523438 748.859375 415.351562 748.425781 415.25 L 746.976562 414.980469 L 742.558594 414.589844 C 742.074219 414.5625 741.59375 414.480469 741.191406 414.238281 C 740.679688 413.917969 740.546875 413.300781 740.871094 412.902344 C 741.109375 412.605469 741.40625 412.417969 741.78125 412.390625 L 742.636719 412.3125 C 744.378906 412.136719 745.886719 411.449219 747.164062 410.25 C 747.839844 409.625 748.296875 408.863281 748.53125 407.972656 C 748.851562 406.820312 748.851562 405.621094 748.582031 404.441406 C 748.503906 404.148438 748.53125 404.121094 748.90625 404.175781 Z M 742.347656 417.53125 C 742.511719 417.558594 742.671875 417.53125 742.832031 417.53125 C 743.957031 417.585938 745.109375 417.664062 746.207031 417.960938 C 746.566406 418.070312 746.914062 418.203125 747.253906 418.363281 C 748.324219 418.953125 748.726562 419.972656 748.589844 421.070312 C 748.429688 422.277344 747.761719 423.132812 746.714844 423.695312 C 746.019531 424.089844 745.242188 424.257812 744.4375 424.339844 C 744.144531 424.367188 743.875 424.339844 743.582031 424.339844 C 742.644531 424.367188 741.730469 424.261719 740.847656 423.886719 C 740.230469 423.644531 739.722656 423.296875 739.269531 422.8125 C 738.332031 421.875 737.894531 420.160156 739.296875 418.765625 C 740.152344 417.980469 741.117188 417.425781 742.347656 417.53125 Z M 745.402344 409.171875 C 744.839844 410.589844 743.609375 411.019531 742.375 410.832031 C 741.25 410.671875 740.421875 410.054688 739.886719 409.035156 C 739.191406 407.671875 739.003906 406.253906 739.40625 404.777344 C 739.699219 403.679688 740.371094 402.847656 741.546875 402.660156 C 743.046875 402.390625 744.488281 402.925781 745.246094 404.425781 C 745.636719 405.152344 745.808594 406.035156 745.808594 407.292969 C 745.78125 407.804688 745.675781 408.5 745.40625 409.167969 Z M 711.648438 407.347656 C 711.40625 405.902344 710.871094 404.589844 709.878906 403.492188 C 708.40625 401.855469 706.53125 401.136719 704.414062 401.132812 C 702.566406 401.105469 700.828125 401.640625 699.269531 402.605469 C 698.503906 403.0625 697.851562 403.648438 697.308594 404.355469 C 696.769531 405.0625 696.375 405.847656 696.136719 406.707031 C 695.679688 408.261719 695.703125 409.84375 696.058594 411.421875 C 696.992188 415.65625 700.265625 417.472656 704.171875 417.207031 C 705.324219 417.128906 706.425781 416.753906 707.46875 416.242188 C 709.019531 415.519531 710.148438 414.367188 710.921875 412.839844 C 711.539062 411.582031 711.804688 410.242188 711.78125 408.714844 Z M 707.84375 413.296875 C 707.648438 413.914062 707.300781 414.425781 706.800781 414.832031 C 706.300781 415.242188 705.726562 415.480469 705.085938 415.546875 C 703.910156 415.707031 702.808594 415.414062 701.816406 414.714844 C 701.089844 414.183594 700.527344 413.511719 700.128906 412.707031 C 699.03125 410.457031 698.84375 408.097656 699.402344 405.6875 C 699.585938 404.925781 699.960938 404.273438 700.527344 403.730469 C 701.519531 402.820312 702.671875 402.605469 703.960938 402.875 C 705.195312 403.144531 706.128906 403.8125 706.898438 404.832031 C 707.671875 405.851562 708.027344 407.027344 708.238281 408.261719 C 708.347656 408.878906 708.347656 409.519531 708.371094 409.921875 C 708.371094 411.207031 708.265625 412.273438 707.863281 413.296875 Z M 770.1875 407.5625 C 769.992188 406.007812 769.410156 404.589844 768.3125 403.410156 C 766.863281 401.832031 764.988281 401.160156 762.902344 401.132812 C 761.105469 401.105469 759.445312 401.617188 757.917969 402.5 C 756.203125 403.519531 755.023438 404.964844 754.570312 406.921875 C 754.296875 407.988281 754.21875 409.070312 754.328125 410.164062 C 754.4375 411.261719 754.734375 412.304688 755.210938 413.296875 C 756.09375 415.171875 757.597656 416.378906 759.578125 416.914062 C 761.777344 417.5 763.867188 417.234375 765.902344 416.242188 C 767.671875 415.386719 768.929688 414.046875 769.652344 412.222656 C 770.085938 411.152344 770.242188 410 770.269531 408.660156 C 770.296875 408.417969 770.242188 407.988281 770.191406 407.5625 Z M 766.492188 412.949219 C 766.058594 414.394531 765.152344 415.332031 763.625 415.550781 C 762.5 415.710938 761.429688 415.441406 760.460938 414.796875 C 759.632812 414.234375 759.042969 413.484375 758.613281 412.601562 C 758.132812 411.664062 757.863281 410.671875 757.757812 409.65625 C 757.597656 408.398438 757.597656 407.167969 757.890625 405.90625 C 757.945312 405.65625 758.027344 405.414062 758.132812 405.183594 C 758.882812 403.304688 760.542969 402.449219 762.5 402.878906 C 763.8125 403.171875 764.804688 403.898438 765.554688 404.996094 C 766.277344 406.070312 766.625 407.246094 766.789062 408.523438 C 766.867188 409.035156 766.898438 409.570312 766.867188 410.023438 C 766.867188 411.070312 766.789062 412.035156 766.476562 412.972656 Z M 766.492188 412.949219 " fill-opacity="1" fill-rule="nonzero"></path></svg>