<svg xmlns="http://www.w3.org/2000/svg" xmlns:xlink="http://www.w3.org/1999/xlink" zoomAndPan="magnify" preserveAspectRatio="xMidYMid meet" version="1.0" viewBox="604.5 345.75 230.38 118.97"><defs><clipPath id="7dbaade4e9"><path d="M 604.5 418 L 700 418 L 700 464.25 L 604.5 464.25 Z M 604.5 418 " clip-rule="nonzero"></path></clipPath><clipPath id="5d2aa1b0ab"><path d="M 748 345.75 L 834 345.75 L 834 430 L 748 430 Z M 748 345.75 " clip-rule="nonzero"></path></clipPath></defs><g clip-path="url(#7dbaade4e9)"><path fill="#ffffff" d="M 604.511719 454.109375 L 612.101562 454.109375 L 612.101562 424.152344 L 623.851562 450.277344 C 625.234375 453.425781 627.132812 454.558594 630.855469 454.558594 C 634.578125 454.558594 636.402344 453.441406 637.789062 450.277344 L 649.539062 424.152344 L 649.539062 454.121094 L 657.128906 454.121094 L 657.128906 424.199219 C 657.128906 421.28125 655.960938 419.871094 653.550781 419.140625 C 647.789062 417.339844 643.917969 418.898438 642.167969 422.789062 L 630.640625 448.574219 L 619.472656 422.777344 C 617.792969 418.886719 613.851562 417.332031 608.089844 419.128906 C 605.679688 419.859375 604.511719 421.273438 604.511719 424.191406 Z M 663.4375 429.71875 L 671.023438 429.71875 L 671.023438 446.230469 C 670.953125 447.128906 671.3125 449.234375 675.46875 449.296875 C 677.589844 449.332031 691.839844 449.296875 691.972656 449.296875 L 691.972656 429.636719 L 699.578125 429.636719 C 699.609375 429.636719 699.570312 456.445312 699.570312 456.558594 C 699.613281 463.171875 691.367188 464.605469 687.566406 464.71875 L 663.601562 464.71875 L 663.601562 459.613281 L 687.609375 459.609375 C 692.492188 459.09375 691.917969 456.667969 691.917969 455.847656 L 691.917969 453.859375 L 675.789062 453.859375 C 668.28125 453.789062 663.503906 450.515625 663.445312 446.746094 C 663.4375 446.410156 663.605469 429.878906 663.441406 429.714844 Z M 663.4375 429.71875 " fill-opacity="1" fill-rule="nonzero"></path></g><path fill="#ffffff" d="M 705.429688 454.109375 L 727.246094 454.109375 C 729.800781 454.109375 732.285156 453.574219 734.253906 452.648438 C 737.539062 451.144531 739.144531 449.097656 739.144531 446.421875 L 739.144531 440.878906 C 739.144531 438.6875 737.320312 436.644531 733.746094 435.28125 C 731.847656 434.550781 729.511719 434.164062 727.25 434.164062 L 718.054688 434.164062 C 714.992188 434.164062 713.53125 433.238281 713.167969 431.195312 C 713.09375 430.953125 713.09375 430.746094 713.09375 430.515625 L 713.09375 427.0625 C 713.09375 426.867188 713.09375 426.671875 713.167969 426.429688 C 713.53125 424.871094 714.335938 424.433594 717.035156 424.179688 C 717.253906 424.179688 717.542969 424.128906 717.765625 424.128906 L 739.4375 424.128906 L 739.4375 419.070312 L 718.128906 419.070312 C 715.0625 419.070312 713.460938 419.265625 712 419.703125 C 707.46875 421.113281 705.5 423.363281 705.5 427.257812 L 705.5 431.683594 C 705.5 435.089844 709.371094 438.007812 715.863281 438.6875 C 716.59375 438.738281 717.320312 438.785156 718.050781 438.785156 L 725.933594 438.785156 C 726.226562 438.785156 726.515625 438.785156 726.734375 438.835938 C 729.144531 439.03125 730.167969 439.46875 730.894531 440.34375 C 731.34375 440.792969 731.480469 441.21875 731.480469 441.691406 L 731.480469 446.121094 C 731.480469 446.65625 731.117188 447.335938 730.386719 447.917969 C 729.730469 448.503906 728.632812 448.890625 727.175781 448.988281 C 726.882812 448.988281 726.664062 449.039062 726.371094 449.039062 L 705.429688 449.039062 Z M 786.488281 445.304688 C 786.488281 450.511719 790.355469 453.429688 798.164062 454.011719 C 798.894531 454.070312 799.621094 454.101562 800.351562 454.109375 L 820.128906 454.109375 L 820.128906 449.050781 L 800.207031 449.050781 C 795.757812 449.050781 794.078125 447.929688 794.078125 445.253906 L 794.078125 419.082031 L 786.488281 419.082031 Z M 743.984375 445.566406 L 743.984375 427.53125 C 743.984375 422.949219 747.203125 420.167969 753.566406 419.292969 C 754.246094 419.195312 754.925781 419.144531 755.613281 419.144531 L 770.019531 419.144531 C 770.730469 419.144531 771.4375 419.195312 772.140625 419.292969 C 778.503906 420.167969 781.71875 422.949219 781.71875 427.53125 L 781.71875 445.566406 C 781.71875 449.285156 780.351562 451.277344 777.203125 452.574219 L 784.679688 459.320312 L 775.867188 459.320312 L 769.820312 453.863281 L 763.730469 454.246094 L 755.613281 454.246094 C 754.222656 454.246094 752.761719 454.050781 751.152344 453.613281 C 746.316406 452.296875 743.988281 449.761719 743.988281 445.566406 Z M 752.179688 445.117188 C 752.179688 445.363281 752.25 445.605469 752.324219 445.898438 C 752.773438 447.996094 754.738281 449.164062 757.722656 449.164062 L 764.621094 449.164062 L 758.285156 443.449219 L 767.097656 443.449219 L 772.609375 448.433594 C 773.628906 447.890625 774.296875 447.0625 774.523438 445.996094 C 774.59375 445.753906 774.59375 445.511719 774.59375 445.265625 L 774.59375 427.972656 C 774.59375 427.777344 774.59375 427.519531 774.523438 427.289062 C 774.074219 425.339844 772.109375 424.21875 769.183594 424.21875 L 757.738281 424.21875 C 754.363281 424.21875 752.179688 425.679688 752.179688 427.972656 L 752.179688 445.132812 Z M 752.179688 445.117188 " fill-opacity="1" fill-rule="nonzero"></path><g clip-path="url(#5d2aa1b0ab)"><path fill="#ffffff" d="M 826.808594 410.6875 C 822.140625 410.5625 818.578125 410.992188 815.53125 412.277344 C 814.664062 412.644531 813.285156 412.652344 813.144531 413.738281 C 813.621094 414.238281 813.695312 414.980469 814.070312 415.59375 C 814.800781 416.773438 816.027344 418.351562 817.125 419.175781 C 818.320312 420.078125 819.554688 421.046875 820.839844 421.832031 C 823.121094 423.222656 825.671875 424.019531 827.867188 425.414062 C 829.164062 426.234375 830.453125 427.269531 831.714844 428.199219 C 832.339844 428.65625 832.761719 429.371094 833.570312 429.65625 L 833.570312 429.523438 C 833.144531 428.980469 833.035156 428.234375 832.644531 427.667969 L 830.917969 425.941406 C 829.230469 423.695312 827.09375 421.738281 824.816406 420.105469 C 823.003906 418.804688 818.941406 417.042969 818.183594 414.929688 L 818.050781 414.796875 C 819.339844 414.652344 820.84375 414.1875 822.035156 413.871094 C 824.027344 413.335938 825.808594 413.472656 827.871094 412.941406 L 830.65625 412.144531 L 830.65625 411.613281 C 829.617188 410.546875 828.875 409.132812 827.738281 408.167969 C 824.769531 405.636719 821.527344 403.109375 818.1875 401 C 816.335938 399.832031 814.050781 399.074219 812.085938 398.082031 C 811.425781 397.75 810.265625 397.574219 809.832031 397.019531 C 808.800781 395.707031 808.238281 394.039062 807.445312 392.519531 C 805.777344 389.316406 804.144531 385.8125 802.667969 382.4375 C 801.660156 380.136719 801.003906 377.871094 799.75 375.804688 C 793.726562 365.902344 787.242188 359.925781 777.199219 354.050781 C 775.0625 352.804688 772.488281 352.308594 769.769531 351.664062 L 765.390625 351.398438 C 764.5 351.027344 763.574219 349.933594 762.738281 349.40625 C 759.410156 347.304688 750.875 342.734375 748.410156 348.730469 C 746.855469 352.527344 750.738281 356.226562 752.125 358.152344 C 753.101562 359.5 754.347656 361.011719 755.042969 362.527344 C 755.5 363.527344 755.582031 364.527344 755.972656 365.582031 C 756.9375 368.167969 757.777344 371.007812 759.023438 373.40625 C 759.652344 374.621094 760.347656 375.902344 761.144531 376.988281 C 761.636719 377.65625 762.472656 377.949219 762.605469 378.980469 C 761.785156 380.128906 761.738281 381.90625 761.277344 383.359375 C 759.203125 389.894531 759.984375 398.019531 763 402.859375 C 763.925781 404.34375 766.105469 407.53125 769.105469 406.308594 C 771.726562 405.238281 771.128906 401.933594 771.890625 399.011719 C 772.058594 398.347656 771.957031 397.863281 772.289062 397.421875 L 772.289062 397.554688 L 774.675781 402.328125 C 776.441406 405.175781 779.582031 408.148438 782.238281 410.15625 C 783.617188 411.199219 784.710938 412.996094 786.484375 413.605469 L 786.484375 413.472656 L 786.351562 413.472656 C 786.003906 412.933594 785.464844 412.710938 785.023438 412.28125 C 783.984375 411.261719 782.828125 409.996094 781.972656 408.832031 C 779.550781 405.550781 777.417969 401.960938 775.472656 398.21875 C 774.542969 396.433594 773.734375 394.464844 772.953125 392.648438 C 772.652344 391.945312 772.652344 390.890625 772.023438 390.527344 C 771.164062 391.855469 769.902344 392.933594 769.238281 394.503906 C 768.175781 397.019531 768.039062 400.082031 767.644531 403.261719 C 767.414062 403.34375 767.515625 403.285156 767.378906 403.394531 C 765.535156 402.949219 764.882812 401.046875 764.199219 399.414062 C 762.460938 395.285156 762.140625 388.640625 763.667969 383.894531 C 764.058594 382.664062 765.847656 378.792969 765.125 377.660156 C 764.78125 376.527344 763.640625 375.859375 763.003906 375.003906 C 762.214844 373.933594 761.425781 372.523438 760.878906 371.289062 C 759.457031 368.074219 758.792969 364.460938 757.296875 361.207031 C 756.582031 359.652344 755.375 358.082031 754.382812 356.707031 C 753.28125 355.179688 752.050781 354.050781 751.199219 352.207031 C 750.894531 351.550781 750.480469 350.5 750.933594 349.820312 C 750.976562 349.621094 751.070312 349.449219 751.214844 349.304688 C 751.359375 349.164062 751.53125 349.066406 751.726562 349.023438 C 752.496094 348.429688 754.640625 349.222656 755.441406 349.554688 C 757.570312 350.441406 759.347656 351.28125 761.148438 352.472656 C 762.015625 353.035156 762.886719 354.15625 763.933594 354.464844 L 765.125 354.464844 C 766.992188 354.894531 769.085938 354.601562 770.828125 355.128906 C 773.914062 356.066406 776.675781 357.523438 779.1875 359.109375 C 786.832031 363.9375 793.082031 370.808594 797.359375 379.019531 C 798.046875 380.335938 798.34375 381.597656 798.953125 382.996094 C 800.175781 385.808594 801.714844 388.726562 802.929688 391.488281 C 804.144531 394.242188 805.328125 397.019531 807.042969 399.3125 C 807.945312 400.515625 811.429688 401.164062 813.011719 401.832031 C 814.125 402.300781 815.941406 402.792969 816.992188 403.425781 C 819 404.636719 820.945312 406.078125 822.832031 407.40625 C 823.773438 408.070312 826.667969 409.523438 826.808594 410.722656 Z M 826.808594 410.6875 " fill-opacity="1" fill-rule="nonzero"></path></g><path fill="#ffffff" d="M 767.511719 360.144531 C 766.539062 360.128906 765.851562 360.25 765.125 360.410156 L 765.125 360.542969 L 765.257812 360.542969 C 765.71875 361.496094 766.539062 362.109375 767.113281 362.933594 L 768.441406 365.71875 L 768.574219 365.585938 C 769.394531 365.003906 769.769531 364.078125 769.765625 362.664062 C 769.4375 362.320312 769.386719 361.882812 769.101562 361.472656 C 768.722656 360.917969 767.976562 360.605469 767.511719 360.144531 Z M 767.511719 360.144531 " fill-opacity="1" fill-rule="evenodd"></path><path fill="#ffffff" d="M 823.691406 448.90625 C 823.691406 452.246094 826.332031 454.5 829.285156 454.5 C 832.238281 454.5 834.878906 452.246094 834.878906 448.90625 C 834.878906 445.566406 832.238281 443.3125 829.285156 443.3125 C 826.332031 443.3125 823.691406 445.566406 823.691406 448.90625 Z M 833.625 448.90625 C 833.625 451.441406 831.6875 453.335938 829.28125 453.335938 C 826.851562 453.335938 824.941406 451.441406 824.941406 448.90625 C 824.941406 446.371094 826.851562 444.476562 829.28125 444.476562 C 831.683594 444.476562 833.625 446.371094 833.625 448.90625 Z M 830.789062 452.097656 L 832.042969 452.097656 L 830.207031 449.296875 C 831.191406 449.191406 831.9375 448.714844 831.9375 447.550781 C 831.9375 446.253906 831.117188 445.71875 829.535156 445.71875 L 827.046875 445.71875 L 827.046875 452.101562 L 828.121094 452.101562 L 828.121094 449.339844 L 829.117188 449.339844 L 830.789062 452.101562 Z M 828.121094 448.445312 L 828.121094 446.609375 L 829.355469 446.609375 C 830 446.609375 830.773438 446.730469 830.773438 447.476562 C 830.773438 448.371094 830.074219 448.445312 829.265625 448.445312 Z M 828.121094 448.445312 " fill-opacity="1" fill-rule="evenodd"></path></svg>