<svg xmlns="http://www.w3.org/2000/svg" xmlns:xlink="http://www.w3.org/1999/xlink" zoomAndPan="magnify" preserveAspectRatio="xMidYMid meet" version="1.0" viewBox="612.75 369.14 214.5 71.86"><defs><clipPath id="c1ff9051db"><path d="M 612.75 370 L 686 370 L 686 441 L 612.75 441 Z M 612.75 370 " clip-rule="nonzero"></path></clipPath><clipPath id="628d24590a"><path d="M 808 387 L 827.25 387 L 827.25 423 L 808 423 Z M 808 387 " clip-rule="nonzero"></path></clipPath></defs><path fill="#ffffff" d="M 655.847656 371.828125 L 655.847656 372.5 C 655.847656 374.175781 655.34375 374.34375 655.007812 375.347656 C 654.503906 376.523438 654.671875 378.03125 655.34375 379.039062 C 655.34375 379.207031 655.511719 379.375 655.511719 379.375 C 654.839844 374.679688 658.695312 373.839844 659.535156 372.5 C 659.535156 371.15625 658.527344 370.320312 657.691406 369.816406 C 656.851562 369.3125 656.179688 369.144531 655.511719 369.144531 C 655.007812 369.144531 654.503906 369.3125 654 369.480469 C 655.007812 370.152344 655.511719 370.988281 655.847656 371.828125 Z M 655.847656 371.828125 " fill-opacity="1" fill-rule="nonzero"></path><g clip-path="url(#c1ff9051db)"><path fill="#ffffff" d="M 675.128906 383.566406 L 675.128906 384.238281 C 675.128906 384.738281 674.960938 385.074219 674.960938 385.410156 C 674.792969 385.746094 674.792969 386.25 674.625 386.585938 C 674.460938 386.921875 674.292969 387.421875 674.125 387.757812 C 673.957031 388.09375 673.789062 388.597656 673.621094 388.933594 C 673.453125 389.269531 673.117188 389.601562 672.949219 389.9375 C 672.78125 390.273438 672.445312 390.609375 672.113281 390.945312 C 671.777344 391.28125 671.609375 391.613281 671.273438 391.949219 C 671.105469 392.117188 670.9375 392.285156 670.769531 392.453125 C 670.601562 392.621094 670.433594 392.621094 670.265625 392.789062 C 669.929688 393.125 669.597656 393.292969 669.261719 393.460938 C 668.925781 393.628906 668.589844 393.960938 668.085938 394.128906 C 667.75 394.296875 667.25 394.464844 666.914062 394.632812 C 666.578125 394.800781 666.074219 394.96875 665.738281 394.96875 C 665.402344 395.136719 664.902344 395.136719 664.566406 395.304688 C 664.0625 395.304688 663.726562 395.472656 663.222656 395.472656 C 662.890625 395.472656 662.554688 395.472656 662.386719 395.472656 C 661.882812 395.472656 661.546875 395.472656 661.042969 395.472656 C 660.542969 395.472656 660.207031 395.304688 659.703125 395.304688 C 659.199219 395.304688 658.863281 395.136719 658.527344 394.96875 C 658.863281 394.96875 659.367188 394.96875 659.703125 394.800781 C 660.207031 394.800781 660.542969 394.632812 660.875 394.464844 C 661.210938 394.296875 661.714844 394.296875 662.050781 394.128906 C 662.386719 393.960938 662.890625 393.796875 663.222656 393.628906 C 663.558594 393.460938 663.894531 393.292969 664.398438 392.957031 C 664.734375 392.789062 665.070312 392.453125 665.402344 392.285156 C 665.738281 391.949219 666.074219 391.78125 666.410156 391.449219 C 666.746094 391.113281 667.082031 390.777344 667.25 390.609375 C 667.582031 390.273438 667.75 389.9375 668.085938 389.601562 C 668.085938 389.601562 668.085938 389.433594 668.253906 389.433594 C 668.421875 389.101562 668.589844 388.765625 668.757812 388.597656 C 668.925781 388.261719 669.09375 387.925781 669.261719 387.421875 C 669.429688 387.085938 669.597656 386.585938 669.765625 386.25 C 669.929688 385.914062 669.929688 385.410156 670.097656 385.074219 C 670.097656 384.574219 670.265625 384.238281 670.265625 383.902344 C 670.265625 383.398438 670.265625 383.0625 670.265625 382.558594 C 670.265625 382.226562 670.265625 381.890625 670.265625 381.722656 C 670.265625 381.21875 670.097656 380.882812 670.097656 380.546875 C 670.097656 380.042969 669.929688 379.710938 669.765625 379.375 C 669.597656 379.039062 669.429688 378.535156 669.429688 378.199219 C 669.261719 377.863281 669.09375 377.363281 668.925781 377.027344 C 668.757812 376.691406 668.589844 376.355469 668.253906 375.851562 C 668.085938 375.515625 667.75 375.183594 667.582031 374.847656 C 667.25 374.511719 667.082031 374.175781 666.746094 373.839844 C 666.578125 373.671875 666.410156 373.503906 666.242188 373.335938 C 665.402344 372.667969 664.566406 371.996094 663.558594 371.492188 C 663.390625 371.492188 663.390625 371.324219 663.222656 371.324219 C 662.554688 370.988281 662.050781 370.652344 661.378906 370.488281 L 661.378906 371.492188 C 661.378906 371.660156 661.378906 371.828125 661.210938 371.996094 C 661.210938 372.164062 661.042969 372.332031 661.042969 372.5 C 661.042969 372.667969 660.875 372.835938 660.875 373 C 660.875 373 660.707031 373.167969 660.707031 373.167969 C 660.707031 373.167969 660.707031 373.335938 660.542969 373.335938 C 660.375 373.503906 660.375 373.671875 660.207031 373.671875 C 660.039062 373.839844 660.039062 373.839844 659.871094 374.007812 C 659.703125 374.175781 659.703125 374.175781 659.535156 374.34375 C 659.199219 374.679688 658.695312 374.847656 658.359375 375.183594 C 658.195312 375.347656 658.027344 375.347656 658.027344 375.515625 C 657.859375 375.683594 657.859375 375.683594 657.691406 375.851562 C 657.523438 376.019531 657.523438 376.019531 657.355469 376.1875 C 657.1875 376.355469 657.1875 376.355469 657.019531 376.523438 C 656.851562 376.691406 656.851562 376.859375 656.683594 376.859375 C 656.683594 377.027344 656.515625 377.195312 656.515625 377.363281 C 656.515625 377.53125 656.347656 377.695312 656.347656 377.863281 C 656.347656 378.03125 656.179688 378.199219 656.179688 378.367188 L 656.179688 380.042969 C 656.179688 380.210938 656.179688 380.378906 656.347656 380.546875 C 656.347656 380.714844 656.515625 380.882812 656.515625 381.050781 C 656.515625 381.21875 656.683594 381.21875 656.683594 381.386719 L 652.324219 379.710938 C 651.652344 379.542969 650.816406 379.375 650.144531 379.207031 C 649.808594 379.039062 649.304688 379.039062 648.96875 378.871094 C 647.796875 378.703125 646.621094 378.535156 645.617188 378.367188 C 645.617188 378.367188 645.617188 378.367188 645.449219 378.367188 C 644.273438 378.199219 643.269531 378.199219 642.09375 378.199219 C 641.257812 378.199219 640.417969 378.199219 639.578125 378.367188 C 638.40625 378.367188 637.230469 378.535156 636.226562 378.703125 C 635.890625 378.703125 635.722656 378.871094 635.386719 378.871094 C 634.886719 379.039062 634.214844 379.039062 633.710938 379.207031 C 633.375 379.207031 633.207031 379.375 632.871094 379.375 C 632.539062 379.542969 632.371094 379.542969 632.035156 379.710938 C 631.867188 379.878906 631.699219 379.878906 631.363281 380.042969 C 631.363281 380.042969 631.363281 380.042969 631.195312 380.042969 C 631.027344 380.210938 630.859375 380.210938 630.691406 380.378906 L 630.523438 380.378906 C 630.355469 380.546875 630.191406 380.546875 630.023438 380.714844 C 629.855469 380.714844 629.6875 380.882812 629.6875 380.882812 C 629.6875 380.882812 629.519531 380.882812 629.519531 381.050781 C 629.351562 381.21875 629.183594 381.21875 629.015625 381.386719 C 628.847656 381.554688 628.679688 381.554688 628.511719 381.722656 C 628.34375 381.890625 628.175781 381.890625 628.175781 382.058594 C 628.007812 382.058594 628.007812 382.226562 627.84375 382.390625 C 627.675781 382.390625 627.675781 382.558594 627.507812 382.558594 C 627.507812 382.558594 627.507812 382.558594 627.339844 382.558594 C 627.171875 382.558594 627.171875 382.726562 627.003906 382.726562 C 626.835938 382.894531 626.835938 382.894531 626.667969 383.0625 C 626.5 383.230469 626.5 383.230469 626.332031 383.398438 C 626.164062 383.0625 626.164062 383.0625 625.996094 383.230469 C 625.996094 383.230469 625.828125 383.230469 625.828125 383.398438 C 625.660156 383.566406 625.660156 383.566406 625.496094 383.734375 L 625.496094 383.902344 C 625.328125 384.070312 625.160156 384.238281 624.992188 384.40625 C 624.65625 384.738281 624.320312 385.074219 623.984375 385.242188 C 623.648438 385.578125 623.3125 385.746094 622.980469 386.082031 C 622.644531 386.417969 622.308594 386.585938 621.804688 386.753906 C 621.46875 386.921875 621.132812 387.085938 620.632812 387.253906 C 620.296875 387.421875 619.792969 387.589844 619.457031 387.757812 C 618.617188 387.925781 617.78125 388.261719 617.109375 388.261719 C 616.941406 388.261719 616.773438 388.261719 616.605469 388.261719 C 616.4375 388.261719 616.269531 388.261719 616.105469 388.429688 C 616.105469 388.597656 615.9375 388.597656 615.769531 388.597656 C 615.601562 388.597656 615.433594 388.765625 615.265625 388.765625 C 615.097656 388.933594 614.929688 388.933594 614.929688 389.101562 C 614.761719 389.265625 614.59375 389.265625 614.59375 389.433594 C 614.425781 389.601562 614.257812 389.601562 614.257812 389.769531 C 614.089844 389.9375 614.089844 389.9375 613.921875 390.105469 C 613.757812 390.273438 613.757812 390.441406 613.589844 390.609375 C 613.421875 390.777344 613.421875 390.945312 613.253906 391.113281 C 613.253906 391.28125 613.085938 391.449219 613.085938 391.613281 C 613.085938 391.78125 612.917969 391.949219 612.917969 392.117188 C 612.917969 392.285156 612.917969 392.453125 612.75 392.621094 L 612.75 393.960938 C 612.75 394.128906 612.75 394.128906 612.917969 394.296875 C 612.917969 394.464844 613.085938 394.464844 613.085938 394.632812 C 613.085938 394.800781 613.253906 394.800781 613.253906 394.96875 L 613.589844 395.304688 L 613.921875 395.640625 C 614.425781 395.976562 614.425781 396.144531 615.097656 396.476562 C 615.265625 396.476562 615.265625 396.644531 615.433594 396.644531 L 615.433594 396.8125 C 615.433594 396.980469 615.433594 397.148438 615.601562 397.316406 C 615.601562 397.484375 615.769531 397.652344 615.769531 397.820312 C 615.769531 397.988281 615.9375 397.988281 615.9375 398.15625 L 615.9375 398.324219 C 615.9375 398.492188 616.105469 398.65625 616.105469 398.65625 C 616.269531 398.824219 616.269531 398.992188 616.4375 398.992188 L 617.445312 400 C 617.613281 400.167969 617.78125 400.167969 617.78125 400.167969 C 617.949219 400.167969 618.117188 400.335938 618.285156 400.335938 C 618.617188 400.335938 618.785156 400.335938 618.785156 400.335938 L 618.953125 400.335938 L 618.953125 402.683594 C 619.457031 403.1875 620.296875 402.011719 621.132812 400.671875 C 620.964844 402.011719 620.964844 403.519531 621.132812 403.855469 C 621.300781 404.359375 622.476562 402.851562 623.480469 401.171875 C 636.730469 398.15625 648.96875 407.210938 650.144531 420.289062 C 649.976562 418.277344 647.460938 417.105469 646.289062 417.4375 C 645.785156 418.78125 644.777344 420.625 643.269531 421.632812 C 643.4375 420.457031 643.269531 419.117188 643.101562 417.941406 C 642.765625 419.617188 641.925781 421.296875 640.753906 422.636719 C 638.910156 422.804688 637.230469 421.964844 636.226562 420.625 C 636.226562 420.625 636.058594 420.457031 636.058594 420.457031 C 636.058594 420.289062 635.890625 420.121094 635.890625 420.121094 C 635.890625 419.953125 635.722656 419.785156 635.722656 419.785156 C 635.722656 419.617188 635.722656 419.453125 635.722656 419.453125 C 635.722656 419.285156 635.722656 419.285156 635.722656 419.117188 C 635.722656 418.949219 635.722656 418.78125 635.890625 418.78125 C 635.890625 418.613281 635.890625 418.445312 636.058594 418.445312 C 636.058594 418.277344 636.226562 418.109375 636.226562 418.109375 C 636.5625 417.273438 636.5625 416.433594 635.890625 416.097656 C 635.722656 416.097656 635.722656 415.929688 635.554688 415.929688 L 635.21875 415.929688 C 635.050781 415.929688 634.886719 415.929688 634.886719 415.761719 C 634.71875 415.761719 634.550781 415.761719 634.550781 415.761719 C 634.382812 415.761719 634.214844 415.761719 634.214844 415.761719 C 634.046875 415.761719 634.046875 415.761719 633.878906 415.761719 C 633.710938 415.761719 633.542969 415.761719 633.542969 415.761719 C 633.375 415.761719 633.207031 415.761719 633.207031 415.761719 C 633.039062 415.761719 632.871094 415.761719 632.871094 415.929688 C 632.703125 415.929688 632.703125 416.097656 632.539062 416.097656 C 632.371094 416.097656 632.371094 416.265625 632.203125 416.265625 C 627.339844 418.78125 630.023438 425.488281 632.871094 427.332031 C 631.699219 427.5 630.523438 427.835938 630.355469 428.003906 C 631.195312 428.507812 632.035156 428.84375 632.871094 429.175781 C 634.046875 429.511719 635.386719 429.847656 635.890625 430.015625 C 637.398438 430.351562 639.078125 430.519531 640.585938 430.351562 C 648.96875 429.847656 655.679688 423.476562 657.019531 415.089844 C 657.019531 415.257812 657.019531 415.425781 657.1875 415.59375 C 657.1875 415.929688 657.355469 416.265625 657.355469 416.601562 L 657.355469 421.800781 C 657.355469 421.964844 657.355469 422.132812 657.1875 422.300781 C 657.1875 422.46875 657.1875 422.636719 657.019531 422.804688 C 657.019531 422.972656 657.019531 423.140625 656.851562 423.308594 C 656.851562 423.476562 656.683594 423.644531 656.683594 423.8125 C 656.683594 423.980469 656.515625 424.148438 656.515625 424.3125 C 656.515625 424.480469 656.347656 424.648438 656.347656 424.816406 C 656.347656 424.984375 656.179688 425.152344 656.179688 425.320312 C 656.179688 425.488281 656.011719 425.65625 656.011719 425.824219 C 656.011719 425.992188 655.847656 426.160156 655.847656 426.328125 L 655.847656 426.496094 C 654.671875 429.007812 652.828125 431.191406 650.648438 432.867188 C 650.480469 433.035156 650.3125 433.035156 650.144531 433.203125 C 650.144531 433.203125 649.976562 433.203125 649.976562 433.371094 C 649.808594 433.539062 649.640625 433.539062 649.640625 433.703125 L 649.640625 433.871094 C 649.976562 433.871094 650.144531 433.871094 650.480469 433.703125 C 650.984375 433.703125 651.484375 433.539062 651.988281 433.371094 C 652.15625 433.371094 652.324219 433.371094 652.324219 433.203125 L 652.996094 433.203125 C 653.164062 433.203125 653.164062 433.203125 653.332031 433.035156 C 655.175781 432.53125 657.019531 432.027344 658.695312 431.191406 C 655.679688 435.214844 651.652344 438.566406 647.125 440.746094 C 649.304688 440.582031 651.484375 440.246094 653.5 439.574219 C 661.042969 437.394531 667.417969 432.195312 671.273438 425.488281 C 670.433594 429.847656 668.757812 433.871094 666.242188 437.5625 C 668.085938 436.386719 669.765625 435.046875 671.273438 433.371094 C 675.464844 429.007812 678.148438 423.476562 679.15625 417.4375 C 679.824219 420.457031 679.992188 423.476562 679.65625 426.496094 C 692.738281 408.382812 680.328125 388.765625 675.128906 383.566406 Z M 675.128906 383.566406 " fill-opacity="1" fill-rule="nonzero"></path></g><path fill="#ffffff" d="M 738.851562 417.105469 C 739.523438 399.832031 738.179688 398.324219 738.179688 398.324219 C 730.632812 386.082031 718.226562 398.324219 718.226562 398.324219 L 718.226562 391.28125 L 716.382812 391.28125 C 713.867188 395.808594 706.65625 396.644531 706.65625 396.644531 L 706.65625 398.492188 C 711.351562 399.496094 710.847656 401.675781 710.847656 401.675781 C 710.847656 401.675781 711.015625 412.910156 711.015625 416.433594 C 711.015625 419.953125 709.839844 419.285156 709.839844 419.285156 L 706.65625 419.953125 L 706.65625 421.964844 C 710.007812 420.960938 721.914062 421.964844 721.914062 421.964844 L 722.082031 419.953125 C 718.5625 419.453125 718.226562 417.269531 718.226562 417.269531 L 718.226562 400.671875 C 721.410156 397.820312 724.429688 396.8125 724.429688 396.8125 C 730.632812 395.304688 731.136719 401.339844 731.136719 401.339844 L 731.304688 416.601562 C 732.480469 420.625 726.609375 419.953125 726.609375 419.953125 L 726.777344 421.964844 L 736 421.296875 L 742.203125 421.964844 L 742.203125 419.953125 C 739.1875 419.453125 739.019531 419.453125 738.851562 417.105469 Z M 738.851562 417.105469 " fill-opacity="1" fill-rule="nonzero"></path><path fill="#ffffff" d="M 760.652344 392.285156 C 747.234375 392.285156 746.566406 404.359375 746.566406 404.359375 C 746.566406 404.359375 744.21875 422.636719 760.652344 422.636719 C 771.214844 422.636719 774.402344 416.601562 774.402344 416.601562 L 772.390625 414.757812 C 772.390625 414.757812 756.625 426.160156 754.613281 404.527344 L 774.570312 404.527344 C 774.402344 404.359375 774.066406 392.285156 760.652344 392.285156 Z M 766.855469 402.179688 L 754.445312 402.179688 L 754.445312 401.339844 C 754.445312 397.820312 757.296875 394.800781 760.984375 394.800781 C 764.171875 394.800781 766.855469 397.484375 766.855469 400.671875 Z M 766.855469 402.179688 " fill-opacity="1" fill-rule="nonzero"></path><path fill="#ffffff" d="M 796.199219 404.863281 C 791.671875 404.023438 788.65625 402.851562 788.65625 402.851562 C 788.65625 402.851562 781.613281 400 787.816406 395.808594 C 794.691406 392.285156 798.714844 402.347656 798.714844 402.347656 C 798.714844 402.347656 800.226562 402.683594 801.230469 401.84375 C 801.566406 400.839844 800.394531 394.800781 800.394531 394.800781 C 800.394531 394.800781 798.210938 392.117188 787.3125 392.957031 C 787.3125 392.957031 781.445312 394.296875 780.4375 399.832031 C 779.433594 405.367188 782.953125 408.382812 782.953125 408.382812 C 782.953125 408.382812 784.460938 410.5625 789.660156 411.066406 C 794.1875 411.570312 796.199219 413.414062 796.199219 413.414062 C 796.199219 413.414062 798.546875 415.59375 796.03125 418.277344 C 793.519531 420.960938 790.164062 419.953125 790.164062 419.953125 C 790.164062 419.953125 786.308594 420.121094 781.78125 412.242188 L 779.597656 412.410156 L 780.4375 420.289062 C 780.4375 420.289062 791.171875 426.328125 799.386719 420.289062 C 807.769531 412.742188 800.726562 405.699219 796.199219 404.863281 Z M 796.199219 404.863281 " fill-opacity="1" fill-rule="nonzero"></path><g clip-path="url(#628d24590a)"><path fill="#ffffff" d="M 825.882812 416.433594 C 820.683594 420.792969 819.675781 415.59375 819.675781 415.59375 L 819.675781 397.820312 L 826.71875 397.820312 L 826.71875 394.464844 L 820.011719 394.464844 L 820.011719 387.253906 L 817.832031 387.253906 C 814.8125 393.628906 808.105469 395.808594 808.105469 395.808594 C 808.105469 395.808594 808.105469 396.308594 808.105469 397.148438 C 808.105469 397.988281 808.777344 397.988281 808.777344 397.988281 L 812.132812 397.988281 C 812.132812 397.988281 811.796875 410.898438 811.964844 415.425781 C 812.132812 419.953125 815.316406 421.296875 815.316406 421.296875 C 815.316406 421.296875 817.496094 422.46875 821.019531 422.132812 C 824.539062 421.800781 827.054688 418.277344 827.054688 418.277344 Z M 825.882812 416.433594 " fill-opacity="1" fill-rule="nonzero"></path></g></svg>