<svg xmlns="http://www.w3.org/2000/svg" xmlns:xlink="http://www.w3.org/1999/xlink" zoomAndPan="magnify" preserveAspectRatio="xMidYMid meet" version="1.0" viewBox="604.5 336 230.5 138.61"><defs><clipPath id="de9c199a45"><path d="M 604.5 336 L 835 336 L 835 474 L 604.5 474 Z M 604.5 336 " clip-rule="nonzero"></path></clipPath></defs><g clip-path="url(#de9c199a45)"><path fill="#ffffff" d="M 659.03125 372.148438 L 702.363281 372.148438 L 702.363281 375.59375 L 663.003906 375.59375 L 663.003906 401.515625 L 700.015625 401.515625 L 700.015625 404.960938 L 663.003906 404.960938 L 663.003906 433.417969 L 702.816406 433.417969 L 702.816406 436.863281 L 659.03125 436.863281 Z M 706.246094 372.148438 L 710.851562 372.148438 L 731.253906 400.609375 L 752.105469 372.148438 L 780.472656 336 L 733.871094 403.601562 L 757.882812 436.863281 L 753.101562 436.863281 L 731.253906 406.589844 L 709.316406 436.863281 L 704.621094 436.863281 L 728.816406 403.601562 Z M 759.601562 375.59375 L 759.601562 372.148438 L 808.980469 372.148438 L 808.980469 375.59375 L 786.230469 375.59375 L 786.230469 436.863281 L 782.257812 436.863281 L 782.257812 375.59375 Z M 604.820312 372.148438 L 609.785156 372.148438 L 678.253906 474.605469 L 649.960938 436.863281 L 608.972656 377.042969 L 608.792969 436.863281 L 604.820312 436.863281 Z M 808.582031 432.378906 C 807.769531 432.378906 807.160156 431.75 807.160156 430.9375 C 807.160156 430.125 807.769531 429.496094 808.582031 429.496094 C 809.402344 429.496094 810 430.125 810 430.9375 C 810 431.75 809.402344 432.378906 808.582031 432.378906 Z M 812.484375 428.585938 L 814.609375 428.585938 C 814.636719 429.738281 815.480469 430.511719 816.714844 430.511719 C 818.097656 430.511719 818.878906 429.679688 818.878906 428.125 L 818.878906 418.257812 L 821.042969 418.257812 L 821.042969 428.132812 C 821.042969 430.9375 819.421875 432.554688 816.734375 432.554688 C 814.214844 432.554688 812.484375 430.988281 812.484375 428.585938 Z M 823.875 428.460938 L 826.019531 428.460938 C 826.203125 429.789062 827.496094 430.628906 829.363281 430.628906 C 831.101562 430.628906 832.375 429.730469 832.375 428.492188 C 832.375 427.425781 831.5625 426.789062 829.71875 426.351562 L 827.921875 425.917969 C 825.402344 425.328125 824.25 424.109375 824.25 422.058594 C 824.25 419.570312 826.28125 417.917969 829.324219 417.917969 C 832.152344 417.917969 834.222656 419.570312 834.347656 421.921875 L 832.242188 421.921875 C 832.039062 420.636719 830.917969 419.832031 829.292969 419.832031 C 827.585938 419.832031 826.445312 420.65625 826.445312 421.914062 C 826.445312 422.910156 827.179688 423.480469 828.996094 423.90625 L 830.53125 424.28125 C 833.390625 424.949219 834.570312 426.109375 834.570312 428.210938 C 834.570312 430.878906 832.5 432.554688 829.199219 432.554688 C 826.105469 432.554688 824.027344 430.957031 823.875 428.460938 Z M 823.875 428.460938 " fill-opacity="1" fill-rule="nonzero"></path></g></svg>