<svg xmlns="http://www.w3.org/2000/svg" xmlns:xlink="http://www.w3.org/1999/xlink" zoomAndPan="magnify" preserveAspectRatio="xMidYMid meet" version="1.0" viewBox="609.6 296.7 220.19 219.47"><path fill="#ffffff" d="M 718.632812 469.886719 C 721.855469 472.554688 725.636719 473.691406 729.722656 473.902344 C 731.410156 473.992188 733.144531 473.90625 734.808594 473.605469 C 737.441406 473.125 740.070312 472.527344 742.632812 471.753906 C 747.851562 470.179688 752.363281 467.457031 755.730469 463.0625 C 757.648438 460.554688 759.226562 457.847656 760.238281 454.851562 C 761.070312 452.378906 761.855469 449.882812 762.480469 447.355469 C 762.972656 445.363281 763.21875 443.304688 763.519531 441.269531 C 763.71875 439.921875 763.839844 438.5625 763.960938 437.203125 C 764.164062 435 764.375 432.796875 764.519531 430.585938 C 764.625 429.050781 764.621094 427.503906 764.679688 425.96875 C 764.699219 425.496094 764.773438 425.03125 764.820312 424.566406 C 764.855469 424.132812 765.078125 423.980469 765.519531 423.988281 C 767.074219 424.011719 768.632812 424.050781 770.1875 423.980469 C 771.925781 423.902344 773.679688 423.828125 775.394531 423.542969 C 777.832031 423.132812 780.253906 422.617188 782.644531 421.996094 C 785.464844 421.253906 788.054688 419.933594 790.550781 418.425781 C 793.453125 416.671875 796.101562 414.613281 798.246094 411.964844 C 800.117188 409.65625 801 406.980469 800.550781 404.0625 C 799.894531 399.824219 796.332031 397.046875 792.191406 396.859375 C 790.691406 396.789062 789.167969 396.949219 787.671875 397.136719 C 785.863281 397.367188 784.082031 397.773438 782.277344 398.042969 C 781.03125 398.230469 779.769531 398.3125 778.53125 398.441406 L 778.496094 398.28125 C 780.816406 393.894531 783.234375 389.558594 785.433594 385.113281 C 787.117188 381.699219 788.558594 378.167969 790.046875 374.65625 C 792.511719 368.847656 794.480469 362.859375 796.109375 356.769531 C 797.671875 350.941406 799.007812 345.050781 799.429688 339 C 799.597656 336.585938 799.714844 334.164062 799.699219 331.746094 C 799.6875 329.816406 799.480469 327.886719 799.289062 325.964844 C 799.070312 323.761719 798.402344 321.671875 797.480469 319.664062 C 796.269531 317.015625 794.382812 314.839844 792.402344 312.777344 C 790.816406 311.125 789.070312 309.621094 787.339844 308.117188 C 784.871094 305.972656 782.097656 304.253906 779.21875 302.734375 C 775.941406 301.007812 772.503906 299.652344 768.914062 298.738281 C 766.742188 298.1875 764.527344 297.699219 762.332031 297.261719 C 761.546875 297.101562 760.753906 296.699219 759.964844 296.699219 L 745.082031 296.699219 C 744.542969 296.699219 744.011719 297.050781 743.46875 297.113281 C 739.90625 297.507812 736.386719 298.21875 732.964844 299.28125 C 731.6875 299.675781 730.523438 299.445312 729.308594 299.332031 C 728.375 299.246094 727.457031 299.003906 726.527344 298.957031 C 722.976562 298.78125 719.425781 298.527344 715.878906 298.5625 C 712.480469 298.601562 709.117188 299.160156 705.828125 300.09375 C 703.074219 300.878906 700.378906 301.832031 697.910156 303.28125 C 696.855469 303.898438 696.015625 303.78125 694.925781 303.46875 C 691.25 302.410156 687.554688 301.414062 683.828125 300.582031 C 681.503906 300.0625 679.109375 299.800781 676.738281 299.554688 C 674.460938 299.316406 672.171875 299.175781 669.878906 299.128906 C 667.644531 299.078125 665.394531 299.082031 663.167969 299.277344 C 659.625 299.59375 656.148438 300.3125 652.769531 301.476562 C 649.015625 302.769531 645.574219 304.640625 642.472656 307.09375 C 639.324219 309.585938 636.796875 312.628906 634.765625 316.101562 C 632.628906 319.769531 631.15625 323.695312 630.246094 327.816406 C 629.75 330.046875 629.933594 332.34375 629.59375 334.613281 C 629.488281 335.316406 629.699219 336.019531 629.699219 336.726562 L 629.699219 346.597656 C 629.699219 347.253906 629.507812 347.910156 629.589844 348.570312 C 629.792969 350.152344 629.722656 351.746094 629.992188 353.316406 C 630.410156 355.804688 630.792969 358.285156 631.300781 360.753906 C 632.015625 364.203125 632.699219 367.652344 633.492188 371.085938 C 634.066406 373.585938 634.691406 376.070312 635.378906 378.542969 C 636.421875 382.320312 637.441406 386.101562 638.621094 389.832031 C 639.722656 393.300781 640.976562 396.71875 642.226562 400.136719 C 643.957031 404.867188 646.023438 409.445312 648.507812 413.828125 C 650.660156 417.628906 653.113281 421.1875 656.40625 424.113281 C 658.578125 426.042969 660.992188 427.523438 663.800781 428.265625 C 666.011719 428.84375 668.261719 428.914062 670.519531 428.453125 C 673.144531 427.917969 675.46875 426.785156 677.53125 425.09375 C 677.769531 424.902344 678.027344 424.753906 678.308594 425.109375 C 679.378906 426.464844 680.808594 427.367188 682.304688 428.148438 C 686.339844 430.253906 690.734375 430.882812 695.203125 431.140625 C 696.285156 431.199219 697.375 431.046875 698.464844 431.015625 C 700.589844 430.957031 702.652344 430.542969 704.683594 429.957031 C 705.746094 429.648438 706.785156 429.257812 707.871094 428.894531 C 707.925781 430.046875 707.996094 431.15625 708.035156 432.265625 L 708.183594 438.320312 C 708.210938 439.242188 708.246094 440.164062 708.332031 441.082031 C 708.550781 443.445312 708.765625 445.8125 709.046875 448.167969 C 709.242188 449.792969 709.449219 451.429688 709.828125 453.019531 C 710.601562 456.21875 711.640625 459.332031 712.964844 462.355469 C 714.261719 465.320312 716.132812 467.824219 718.632812 469.886719 Z M 712.167969 439.707031 C 712.039062 436.863281 711.945312 434.019531 711.882812 431.175781 C 711.804688 427.679688 711.78125 424.183594 711.730469 420.6875 L 711.722656 420.554688 C 709.945312 421.621094 708.195312 422.789062 706.34375 423.75 C 704.171875 424.878906 701.8125 425.53125 699.371094 425.71875 C 697.457031 425.863281 695.515625 425.992188 693.609375 425.84375 C 690.484375 425.589844 687.363281 425.101562 684.5625 423.558594 C 683.429688 422.9375 682.246094 422.175781 681.464844 421.179688 C 679.589844 418.785156 680.488281 415.765625 683.3125 414.308594 C 685.265625 413.300781 687.398438 412.882812 689.515625 412.394531 C 691.351562 411.96875 693.183594 411.484375 694.980469 410.898438 C 696.753906 410.316406 697.871094 408.878906 698.980469 407.464844 L 700.734375 405.210938 L 698.625 404.992188 C 696.535156 404.796875 694.539062 404.21875 692.628906 403.375 C 691 402.652344 690.972656 402.574219 689.773438 403.871094 C 687.777344 406.042969 685.832031 408.265625 683.875 410.472656 C 682.429688 412.09375 681 413.726562 679.5625 415.355469 C 678.144531 416.96875 676.8125 418.667969 675.28125 420.164062 C 673.007812 422.390625 670.269531 423.726562 667 423.578125 C 664.902344 423.480469 662.984375 422.746094 661.257812 421.542969 C 657.695312 419.0625 655.296875 415.589844 653.109375 411.945312 C 650.308594 407.273438 648.160156 402.296875 646.320312 397.183594 C 645.046875 393.648438 643.769531 390.113281 642.660156 386.527344 C 641.453125 382.628906 640.390625 378.6875 639.351562 374.742188 C 638.5625 371.765625 637.863281 368.765625 637.199219 365.761719 C 636.441406 362.34375 635.710938 358.914062 635.070312 355.472656 C 634.636719 353.152344 634.386719 350.792969 634.035156 348.453125 C 633.5625 345.300781 633.476562 342.117188 633.648438 338.953125 C 633.800781 336.101562 634.210938 333.257812 634.617188 330.421875 C 635.179688 326.503906 636.472656 322.804688 638.328125 319.308594 C 639.46875 317.171875 640.878906 315.222656 642.511719 313.417969 C 645.191406 310.449219 648.4375 308.304688 652.046875 306.695312 C 654.570312 305.570312 657.234375 304.894531 659.953125 304.363281 C 663.984375 303.578125 668.050781 303.613281 672.121094 303.695312 C 673.898438 303.730469 675.671875 304.054688 677.449219 304.230469 C 681.273438 304.613281 685.023438 305.417969 688.726562 306.410156 C 691.425781 307.132812 694.070312 308.074219 696.746094 308.886719 C 697.011719 308.96875 697.40625 308.960938 697.625 308.820312 C 701.253906 306.449219 705.214844 304.886719 709.433594 303.992188 C 711.03125 303.65625 712.683594 303.503906 714.320312 303.402344 C 716.308594 303.277344 718.316406 303.15625 720.296875 303.273438 C 722.683594 303.410156 725.0625 303.761719 727.429688 304.085938 C 728.582031 304.246094 729.707031 304.644531 730.859375 304.75 C 731.414062 304.804688 731.996094 304.402344 732.582031 304.265625 C 735.558594 303.574219 738.523438 302.808594 741.527344 302.269531 C 743.761719 301.867188 746.046875 301.675781 748.320312 301.546875 C 750.855469 301.398438 753.410156 301.292969 755.945312 301.414062 C 759.148438 301.570312 762.328125 302.027344 765.46875 302.757812 C 769.359375 303.660156 773.089844 304.976562 776.636719 306.800781 C 779.289062 308.167969 781.804688 309.746094 784.074219 311.691406 C 785.5625 312.96875 787.085938 314.226562 788.425781 315.648438 C 790.082031 317.402344 791.769531 319.152344 792.808594 321.398438 C 793.59375 323.089844 794.152344 324.84375 794.304688 326.695312 C 794.496094 329 794.730469 331.3125 794.710938 333.625 C 794.6875 335.832031 794.386719 338.035156 794.175781 340.238281 C 793.6875 345.257812 792.597656 350.167969 791.269531 355.011719 C 790.179688 359.011719 788.898438 362.972656 787.511719 366.882812 C 786.234375 370.488281 784.761719 374.027344 783.273438 377.554688 C 782.171875 380.160156 780.988281 382.738281 779.703125 385.257812 C 777.265625 390.03125 774.730469 394.757812 771.796875 399.257812 C 771.292969 400.035156 770.8125 400.828125 770.316406 401.621094 C 771.597656 402.484375 773.046875 402.789062 774.503906 402.949219 C 775.894531 403.097656 777.308594 403.1875 778.691406 403.085938 C 780.914062 402.917969 783.125 402.601562 785.332031 402.292969 C 787.515625 401.988281 789.65625 401.367188 791.902344 401.53125 C 794.140625 401.695312 795.746094 403.398438 795.59375 405.496094 C 795.496094 406.824219 794.886719 407.964844 794.003906 408.9375 C 789.839844 413.535156 784.609375 416.320312 778.625 417.695312 C 776.351562 418.214844 774.007812 418.484375 771.679688 418.703125 C 769.699219 418.886719 767.691406 418.917969 765.703125 418.84375 C 764.242188 418.789062 762.792969 418.453125 761.296875 418.238281 C 761.148438 419.605469 761.003906 421.027344 760.832031 422.445312 L 760.136719 427.886719 C 759.925781 429.613281 759.761719 431.34375 759.542969 433.066406 C 759.332031 434.742188 759.066406 436.40625 758.84375 438.078125 C 758.636719 439.636719 758.484375 441.203125 758.25 442.757812 C 757.894531 445.140625 757.554688 447.527344 757.089844 449.894531 C 756.53125 452.71875 755.675781 455.453125 754.277344 458.003906 C 752.578125 461.117188 750.164062 463.488281 747.089844 465.242188 C 743.921875 467.050781 740.457031 467.992188 736.949219 468.78125 C 734.460938 469.339844 731.902344 469.429688 729.382812 469.203125 C 725.019531 468.808594 721.292969 466.941406 718.476562 463.554688 C 715.789062 460.324219 713.96875 456.625 713.320312 452.433594 C 713.007812 450.441406 712.785156 448.433594 712.605469 446.421875 C 712.40625 444.1875 712.273438 441.945312 712.167969 439.707031 Z M 717.074219 410.988281 C 717.101562 412.484375 716.945312 413.976562 716.953125 415.472656 C 716.984375 422.425781 717.035156 429.378906 717.09375 436.335938 C 717.105469 437.46875 717.160156 438.609375 717.242188 439.742188 C 717.414062 442.121094 717.582031 444.496094 717.8125 446.867188 C 717.976562 448.546875 718.203125 450.226562 718.46875 451.898438 C 718.847656 454.261719 719.921875 456.367188 721.140625 458.378906 C 722.195312 460.113281 723.5625 461.582031 725.363281 462.59375 C 728.429688 464.316406 731.722656 464.460938 735.046875 463.828125 C 737.292969 463.402344 739.5 462.710938 741.675781 462 C 743.824219 461.300781 745.765625 460.160156 747.394531 458.578125 C 748.925781 457.101562 750.007812 455.292969 750.738281 453.300781 C 752.15625 449.441406 752.601562 445.371094 753.183594 441.335938 C 753.40625 439.824219 753.59375 438.308594 753.792969 436.792969 C 754.023438 435.070312 754.253906 433.351562 754.472656 431.628906 C 754.640625 430.34375 754.785156 429.058594 754.941406 427.777344 C 755.167969 425.933594 755.402344 424.089844 755.617188 422.25 C 755.78125 420.824219 755.917969 419.390625 756.066406 417.960938 C 756.253906 416.136719 756.453125 414.3125 756.617188 412.484375 C 756.738281 411.097656 756.6875 409.683594 756.9375 408.320312 C 757.386719 405.824219 758.566406 403.703125 760.78125 402.328125 C 761.707031 401.753906 762.753906 401.375 763.78125 400.890625 L 763.605469 400.621094 C 762.65625 399.390625 761.683594 398.179688 760.753906 396.933594 C 759.292969 394.980469 758.242188 392.800781 757.183594 390.609375 C 756.183594 388.53125 754.960938 386.566406 753.90625 384.511719 C 752.070312 380.929688 750.195312 377.359375 748.503906 373.710938 C 746.375 369.121094 744.695312 364.371094 744.167969 359.289062 C 743.945312 357.140625 743.886719 354.992188 744.324219 352.859375 C 745.019531 349.460938 746.796875 346.800781 749.78125 344.972656 C 752.554688 343.28125 755.640625 342.734375 758.804688 342.5625 C 760.765625 342.457031 762.742188 342.542969 764.777344 342.542969 L 764.710938 342.199219 C 763.441406 339.550781 762.261719 336.855469 760.871094 334.269531 C 758.917969 330.621094 756.410156 327.332031 753.625 324.277344 C 751.5625 322.015625 749.324219 319.921875 746.875 318.066406 C 744.46875 316.242188 741.929688 314.613281 739.222656 313.285156 C 735.992188 311.695312 732.625 310.46875 729.097656 309.683594 C 725.707031 308.933594 722.292969 308.472656 718.8125 308.433594 C 715.847656 308.402344 712.898438 308.539062 710.007812 309.207031 C 705.644531 310.214844 701.65625 312.011719 698.1875 314.921875 C 696.246094 316.546875 694.554688 318.367188 693.074219 320.398438 C 691.335938 322.785156 689.933594 325.367188 688.738281 328.066406 C 687.089844 331.777344 685.960938 335.632812 685.1875 339.601562 C 684.804688 341.582031 684.5 343.574219 684.195312 345.566406 C 684.085938 346.265625 684.078125 346.976562 684.011719 347.777344 L 685.332031 347.09375 L 686.617188 346.515625 C 690.964844 344.527344 695.472656 343.246094 700.3125 343.394531 C 702.371094 343.453125 704.339844 343.863281 706.171875 344.765625 C 709.679688 346.496094 711.730469 349.4375 712.625 353.160156 C 713.242188 355.730469 713.664062 358.351562 714.074219 360.96875 C 714.394531 363.007812 714.722656 365.070312 714.761719 367.128906 C 714.8125 370.140625 714.660156 373.15625 714.496094 376.164062 C 714.359375 378.726562 713.824219 381.25 712.925781 383.640625 C 711.300781 387.988281 709.484375 392.269531 707.792969 396.59375 C 707.234375 398.019531 706.800781 399.5 706.273438 401.070312 L 708.414062 401.070312 C 708.671875 401.078125 708.9375 401.085938 709.1875 401.144531 C 711.132812 401.601562 712.824219 402.484375 714.207031 403.984375 C 716.058594 405.96875 717.027344 408.296875 717.074219 410.988281 Z M 679.910156 390.371094 C 678.804688 387.753906 678.140625 385.023438 677.941406 382.203125 C 677.753906 379.550781 678.070312 376.910156 678.34375 374.269531 C 678.605469 371.710938 678.828125 369.140625 678.90625 366.574219 C 679.03125 362.351562 678.75 358.136719 678.546875 353.914062 C 678.425781 351.402344 678.71875 348.859375 678.941406 346.339844 C 679.144531 344.074219 679.394531 341.800781 679.824219 339.566406 C 680.542969 335.8125 681.5 332.117188 682.859375 328.535156 C 684.144531 325.136719 685.628906 321.828125 687.714844 318.847656 C 689.152344 316.804688 690.773438 314.898438 692.335938 312.902344 L 691.871094 312.734375 C 686.789062 311.121094 681.625 309.859375 676.308594 309.308594 C 673.796875 309.050781 671.277344 308.898438 668.757812 308.746094 C 667.984375 308.703125 667.199219 308.804688 666.421875 308.878906 C 664.503906 309.066406 662.554688 309.136719 660.667969 309.496094 C 657.449219 310.109375 654.363281 311.140625 651.507812 312.8125 C 648.941406 314.320312 646.785156 316.261719 644.980469 318.59375 C 642.988281 321.167969 641.644531 324.082031 640.679688 327.183594 C 639.542969 330.847656 639 334.617188 638.851562 338.421875 C 638.726562 341.757812 638.664062 345.109375 639.238281 348.433594 C 639.664062 350.90625 639.953125 353.40625 640.421875 355.867188 C 641.066406 359.226562 641.757812 362.578125 642.558594 365.898438 C 643.695312 370.660156 644.839844 375.421875 646.191406 380.121094 C 647.480469 384.625 648.9375 389.085938 650.523438 393.496094 C 651.816406 397.09375 653.308594 400.625 654.886719 404.109375 C 655.910156 406.378906 657.152344 408.5625 658.457031 410.6875 C 659.839844 412.945312 661.417969 415.085938 663.550781 416.722656 C 666.25 418.789062 668.335938 419.113281 671.078125 416.84375 C 672.253906 415.871094 673.246094 414.671875 674.265625 413.527344 C 675.890625 411.714844 677.453125 409.84375 679.070312 408.023438 C 681.128906 405.703125 683.210938 403.40625 685.277344 401.09375 C 685.714844 400.605469 686.140625 400.101562 686.5625 399.605469 L 685.855469 398.988281 C 683.292969 396.519531 681.300781 393.65625 679.910156 390.371094 Z M 757.921875 321.25 C 759.601562 323.21875 761.230469 325.25 762.730469 327.359375 C 765.636719 331.441406 767.957031 335.847656 769.671875 340.5625 C 770.425781 342.640625 771.03125 344.738281 770.761719 347.011719 C 770.574219 348.605469 770.585938 350.21875 770.449219 351.824219 C 770.332031 353.15625 770.117188 354.480469 769.949219 355.808594 C 769.6875 357.808594 769.3125 359.808594 769.203125 361.816406 C 769.09375 363.734375 769.207031 365.664062 769.328125 367.582031 C 769.449219 369.53125 769.710938 371.472656 769.890625 373.417969 C 770.089844 375.625 770.363281 377.828125 770.425781 380.039062 C 770.476562 381.855469 770.316406 383.675781 770.15625 385.492188 C 769.96875 387.675781 769.417969 389.789062 768.59375 391.8125 C 768.011719 393.242188 767.316406 394.625 766.664062 396.054688 L 766.925781 396.332031 L 767.328125 396.640625 L 767.730469 395.921875 C 771.128906 390.5625 774.152344 385 776.769531 379.222656 C 778.457031 375.503906 780.03125 371.730469 781.546875 367.9375 C 783.90625 362.03125 785.777344 355.960938 787.21875 349.769531 C 787.867188 346.988281 788.363281 344.167969 788.800781 341.34375 C 789.144531 339.136719 789.429688 336.90625 789.496094 334.679688 C 789.5625 332.320312 789.429688 329.9375 789.214844 327.585938 C 789.050781 325.804688 788.609375 324.015625 787.5 322.566406 C 785.707031 320.242188 783.773438 318.015625 781.394531 316.253906 C 779.390625 314.773438 777.394531 313.25 775.246094 312.003906 C 771.839844 310.023438 768.152344 308.710938 764.296875 307.8125 C 760.535156 306.9375 756.726562 306.558594 752.890625 306.480469 C 750.628906 306.429688 748.359375 306.671875 746.105469 306.886719 C 744.058594 307.078125 742.027344 307.40625 739.96875 307.675781 C 742.179688 308.917969 744.359375 310.023438 746.410156 311.324219 C 750.730469 314.058594 754.601562 317.351562 757.921875 321.25 Z M 701.800781 397.859375 C 703.195312 393.394531 705.097656 389.128906 706.9375 384.84375 C 708.433594 381.363281 709.25 377.699219 709.523438 373.933594 C 709.65625 372.078125 709.621094 370.199219 709.53125 368.339844 C 709.425781 366.273438 709.261719 364.195312 708.960938 362.152344 C 708.574219 359.535156 708.132812 356.914062 707.515625 354.347656 C 706.84375 351.566406 705.152344 349.628906 702.25 348.914062 C 700.484375 348.480469 698.726562 348.5 696.941406 348.78125 C 692.578125 349.46875 688.585938 351.074219 684.867188 353.429688 C 684.121094 353.902344 683.707031 354.285156 683.835938 355.359375 C 684.109375 357.632812 684.171875 359.945312 684.160156 362.238281 C 684.144531 365.488281 684.007812 368.738281 683.882812 371.984375 C 683.84375 373.039062 683.691406 374.09375 683.574219 375.148438 C 683.402344 376.761719 683.066406 378.371094 683.078125 379.980469 C 683.089844 381.640625 683.257812 383.339844 683.660156 384.945312 C 684.941406 390.042969 687.648438 394.210938 692.089844 397.15625 C 694.820312 398.964844 697.839844 399.875 701.15625 400.050781 C 701.375 399.289062 701.578125 398.570312 701.800781 397.859375 Z M 696.585938 354.140625 C 696.003906 352.914062 696.335938 351.898438 697.691406 351.425781 C 698.023438 351.3125 698.359375 351.1875 698.703125 351.15625 C 699.175781 351.109375 699.652344 351.140625 700.128906 351.140625 C 701.847656 351.152344 703.5 351.390625 704.917969 352.484375 C 705.828125 353.183594 706.074219 354.113281 705.484375 355.070312 C 704.644531 356.425781 703.375 357.105469 701.808594 357.234375 C 699.34375 357.4375 697.613281 356.289062 696.585938 354.140625 Z M 764.941406 353.691406 L 765.5 348.789062 C 765.582031 348.132812 765.238281 347.953125 764.6875 347.9375 C 762.953125 347.890625 761.222656 347.828125 759.488281 347.796875 C 757.535156 347.761719 755.632812 348.074219 753.828125 348.816406 C 751.820312 349.644531 750.296875 350.964844 749.671875 353.148438 C 749.203125 354.773438 749.082031 356.398438 749.246094 358.101562 C 749.496094 360.695312 750.074219 363.210938 750.980469 365.625 C 752.191406 368.851562 753.460938 372.078125 754.976562 375.167969 C 757.03125 379.355469 759.351562 383.40625 761.535156 387.53125 C 762.117188 388.628906 762.609375 389.78125 763.214844 391.0625 C 764.488281 388.371094 765.105469 385.671875 765.175781 382.894531 C 765.238281 380.554688 765.050781 378.207031 764.914062 375.863281 C 764.832031 374.429688 764.625 373.003906 764.488281 371.578125 C 764.296875 369.585938 764 367.59375 763.953125 365.597656 C 763.910156 363.566406 764.050781 361.527344 764.226562 359.496094 C 764.386719 357.558594 764.707031 355.628906 764.941406 353.691406 Z M 761.035156 352.121094 C 760.390625 353.894531 759.015625 354.898438 757.230469 355.195312 C 755.566406 355.46875 754.109375 354.855469 753.027344 353.527344 C 752.253906 352.582031 752.550781 351.464844 753.707031 350.824219 C 755.035156 350.089844 756.496094 349.902344 758.21875 349.792969 C 758.6875 349.875 759.390625 349.949219 760.058594 350.140625 C 761.027344 350.414062 761.390625 351.148438 761.035156 352.121094 Z M 709.5625 406.84375 C 708.609375 406.066406 707.351562 406.019531 706.449219 406.875 C 705.324219 407.933594 704.335938 409.148438 703.347656 410.34375 C 702.210938 411.726562 701.136719 413.164062 699.667969 414.234375 C 697.527344 415.789062 695.027344 416.433594 692.519531 417.042969 C 690.523438 417.53125 688.519531 417.980469 686.519531 418.445312 L 686.492188 418.707031 C 687.085938 418.980469 687.660156 419.324219 688.28125 419.519531 C 691.332031 420.484375 694.4375 420.964844 697.664062 420.691406 C 699.988281 420.492188 702.207031 419.984375 704.308594 418.992188 C 707.199219 417.621094 709.425781 415.449219 711.320312 412.925781 C 711.636719 412.503906 711.777344 411.878906 711.816406 411.335938 C 711.941406 409.417969 710.96875 407.992188 709.5625 406.84375 Z M 765.261719 406.011719 C 763.765625 406.511719 762.546875 407.277344 762.1875 408.894531 C 761.941406 409.992188 761.847656 411.121094 761.753906 412.246094 C 761.734375 412.441406 761.984375 412.804688 762.171875 412.855469 C 763.320312 413.160156 764.480469 413.519531 765.660156 413.625 C 767.105469 413.757812 768.578125 413.714844 770.039062 413.644531 C 771.609375 413.5625 773.195312 413.460938 774.746094 413.203125 C 778.398438 412.585938 781.933594 411.589844 785.074219 409.515625 C 786.207031 408.769531 787.328125 408.003906 788.453125 407.246094 L 788.359375 407.085938 C 787.160156 407.265625 785.964844 407.480469 784.757812 407.609375 C 782.300781 407.871094 779.84375 408.148438 777.382812 408.292969 C 776.191406 408.359375 774.984375 408.132812 773.785156 408.035156 C 771.773438 407.871094 769.808594 407.425781 768.109375 406.347656 C 767.125 405.726562 766.304688 405.660156 765.261719 406.011719 Z M 765.261719 406.011719 " fill-opacity="1" fill-rule="evenodd"></path><path fill="#ffffff" d="M 609.601562 475.222656 C 611.570312 474.894531 614.140625 474.617188 617.417969 474.617188 C 621.441406 474.617188 624.394531 475.550781 626.265625 477.234375 C 627.996094 478.734375 629.027344 481.027344 629.027344 483.835938 C 629.027344 486.691406 628.179688 488.9375 626.589844 490.574219 C 624.4375 492.867188 620.929688 494.039062 616.949219 494.039062 C 615.734375 494.039062 614.609375 493.992188 613.675781 493.757812 L 613.675781 506.394531 L 609.601562 506.394531 Z M 613.675781 490.433594 C 614.566406 490.667969 615.6875 490.761719 617.046875 490.761719 C 621.957031 490.761719 624.953125 488.375 624.953125 484.023438 C 624.953125 479.855469 622.007812 477.84375 617.511719 477.84375 C 615.734375 477.84375 614.378906 477.984375 613.675781 478.171875 Z M 653.6875 494.878906 C 653.6875 503.253906 647.882812 506.90625 642.410156 506.90625 C 636.277344 506.90625 631.550781 502.414062 631.550781 495.253906 C 631.550781 487.671875 636.511719 483.226562 642.78125 483.226562 C 649.289062 483.222656 653.6875 487.953125 653.6875 494.878906 Z M 635.71875 495.113281 C 635.71875 500.074219 638.574219 503.816406 642.597656 503.816406 C 646.527344 503.816406 649.476562 500.121094 649.476562 495.019531 C 649.476562 491.183594 647.558594 486.316406 642.6875 486.316406 C 637.820312 486.316406 635.71875 490.808594 635.71875 495.113281 Z M 658.320312 502.179688 C 659.535156 502.976562 661.6875 503.816406 663.75 503.816406 C 666.742188 503.816406 668.148438 502.320312 668.148438 500.449219 C 668.148438 498.480469 666.980469 497.40625 663.933594 496.28125 C 659.863281 494.832031 657.945312 492.585938 657.945312 489.871094 C 657.945312 486.222656 660.894531 483.226562 665.761719 483.226562 C 668.054688 483.226562 670.066406 483.882812 671.332031 484.628906 L 670.300781 487.625 C 669.414062 487.0625 667.773438 486.316406 665.667969 486.316406 C 663.234375 486.316406 661.878906 487.71875 661.878906 489.402344 C 661.878906 491.277344 663.238281 492.117188 666.183594 493.242188 C 670.117188 494.738281 672.128906 496.703125 672.128906 500.074219 C 672.128906 504.050781 669.039062 506.859375 663.65625 506.859375 C 661.179688 506.859375 658.882812 506.25 657.292969 505.316406 Z M 682.375 477.234375 L 682.375 483.738281 L 688.269531 483.738281 L 688.269531 486.875 L 682.375 486.875 L 682.375 499.089844 C 682.375 501.898438 683.167969 503.488281 685.464844 503.488281 C 686.539062 503.488281 687.335938 503.347656 687.851562 503.207031 L 688.039062 506.296875 C 687.246094 506.625 685.980469 506.855469 684.390625 506.855469 C 682.472656 506.855469 680.925781 506.25 679.941406 505.125 C 678.773438 503.910156 678.351562 501.898438 678.351562 499.230469 L 678.351562 486.875 L 674.839844 486.875 L 674.839844 483.738281 L 678.351562 483.738281 L 678.351562 478.308594 Z M 712.140625 483.742188 C 712.042969 485.378906 711.953125 487.203125 711.953125 489.964844 L 711.953125 503.117188 C 711.953125 508.308594 710.921875 511.492188 708.722656 513.460938 C 706.523438 515.519531 703.339844 516.171875 700.488281 516.171875 C 697.773438 516.171875 694.777344 515.519531 692.949219 514.300781 L 693.980469 511.167969 C 695.476562 512.101562 697.816406 512.945312 700.625 512.945312 C 704.835938 512.945312 707.925781 510.746094 707.925781 505.035156 L 707.925781 502.507812 L 707.832031 502.507812 C 706.570312 504.613281 704.136719 506.300781 700.625 506.300781 C 695.007812 506.300781 690.984375 501.527344 690.984375 495.253906 C 690.984375 487.578125 695.992188 483.226562 701.1875 483.226562 C 705.121094 483.226562 707.273438 485.285156 708.253906 487.15625 L 708.347656 487.15625 L 708.535156 483.742188 Z M 707.878906 492.679688 C 707.878906 491.976562 707.832031 491.367188 707.648438 490.808594 C 706.898438 488.421875 704.886719 486.457031 701.890625 486.457031 C 697.957031 486.457031 695.152344 489.777344 695.152344 495.019531 C 695.152344 499.464844 697.398438 503.160156 701.84375 503.160156 C 704.371094 503.160156 706.664062 501.570312 707.554688 498.949219 C 707.785156 498.25 707.882812 497.453125 707.882812 496.75 L 707.882812 492.679688 Z M 718.5 490.808594 C 718.5 488.140625 718.457031 485.847656 718.316406 483.742188 L 721.921875 483.742188 L 722.058594 488.1875 L 722.246094 488.1875 C 723.273438 485.144531 725.753906 483.226562 728.515625 483.226562 C 728.984375 483.226562 729.308594 483.273438 729.683594 483.367188 L 729.683594 487.25 C 729.265625 487.15625 728.84375 487.109375 728.28125 487.109375 C 725.382812 487.109375 723.320312 489.308594 722.761719 492.398438 C 722.667969 492.960938 722.574219 493.617188 722.574219 494.316406 L 722.574219 506.390625 L 718.5 506.390625 Z M 735.632812 495.816406 C 735.726562 501.382812 739.28125 503.675781 743.398438 503.675781 C 746.347656 503.675781 748.125 503.160156 749.667969 502.507812 L 750.371094 505.457031 C 748.921875 506.109375 746.441406 506.859375 742.835938 506.859375 C 735.863281 506.859375 731.699219 502.273438 731.699219 495.441406 C 731.699219 488.609375 735.722656 483.222656 742.320312 483.222656 C 749.714844 483.222656 751.683594 489.730469 751.683594 493.894531 C 751.683594 494.738281 751.589844 495.390625 751.542969 495.8125 L 735.632812 495.8125 Z M 747.707031 492.867188 C 747.75 490.246094 746.628906 486.175781 741.996094 486.175781 C 737.832031 486.175781 736.007812 490.011719 735.675781 492.867188 Z M 756.363281 501.429688 C 758.1875 502.554688 760.855469 503.488281 763.660156 503.488281 C 767.828125 503.488281 770.261719 501.289062 770.261719 498.109375 C 770.261719 495.160156 768.574219 493.476562 764.316406 491.835938 C 759.167969 490.011719 755.988281 487.34375 755.988281 482.898438 C 755.988281 477.984375 760.058594 474.335938 766.1875 474.335938 C 769.417969 474.335938 771.757812 475.082031 773.160156 475.878906 L 772.039062 479.203125 C 771.007812 478.640625 768.902344 477.703125 766.046875 477.703125 C 761.742188 477.703125 760.105469 480.277344 760.105469 482.429688 C 760.105469 485.378906 762.023438 486.828125 766.375 488.515625 C 771.710938 490.574219 774.425781 493.148438 774.425781 497.78125 C 774.425781 502.648438 770.820312 506.859375 763.382812 506.859375 C 760.339844 506.859375 757.015625 505.96875 755.332031 504.847656 Z M 806.015625 511.023438 C 801.753906 509.902344 797.589844 508.636719 793.941406 507.375 C 793.285156 507.140625 792.628906 506.90625 792.023438 506.90625 C 784.535156 506.625 778.121094 501.101562 778.121094 490.949219 C 778.121094 480.839844 784.300781 474.335938 792.816406 474.335938 C 801.382812 474.335938 806.953125 480.980469 806.953125 490.292969 C 806.953125 498.390625 803.207031 503.582031 797.96875 505.410156 L 797.96875 505.59375 C 801.101562 506.390625 804.519531 507.140625 807.1875 507.609375 Z M 802.644531 490.480469 C 802.644531 484.160156 799.371094 477.65625 792.675781 477.65625 C 785.796875 477.65625 782.429688 484.019531 782.476562 490.855469 C 782.429688 497.546875 786.125 503.582031 792.488281 503.582031 C 798.996094 503.582031 802.644531 497.6875 802.644531 490.480469 Z M 812.238281 474.847656 L 816.308594 474.847656 L 816.308594 502.976562 L 829.789062 502.976562 L 829.789062 506.390625 L 812.238281 506.390625 Z M 812.238281 474.847656 " fill-opacity="1" fill-rule="nonzero"></path></svg>