<svg xmlns="http://www.w3.org/2000/svg" xmlns:xlink="http://www.w3.org/1999/xlink" zoomAndPan="magnify" preserveAspectRatio="xMidYMid meet" version="1.0" viewBox="606.61 240.93 226.6 312.28"><path fill="#ffffff" d="M 639.089844 249.8125 C 638.003906 248.703125 636.496094 248.019531 634.820312 248.019531 C 633.144531 248.019531 631.652344 248.703125 630.582031 249.8125 L 630.550781 249.8125 C 629.472656 250.914062 628.800781 252.449219 628.800781 254.148438 C 628.800781 255.855469 629.472656 257.378906 630.550781 258.46875 L 630.582031 258.5 C 631.652344 259.601562 633.144531 260.273438 634.820312 260.273438 C 636.496094 260.273438 638.003906 259.601562 639.089844 258.5 L 639.101562 258.46875 C 640.1875 257.378906 640.851562 255.855469 640.851562 254.148438 C 640.851562 252.449219 640.1875 250.914062 639.101562 249.8125 Z M 634.820312 333.671875 C 636.496094 333.671875 638.003906 332.976562 639.089844 331.886719 L 639.101562 331.855469 C 640.1875 330.769531 640.851562 329.234375 640.851562 327.546875 C 640.851562 325.839844 640.1875 324.308594 639.101562 323.203125 L 639.089844 323.203125 C 638.003906 322.082031 636.496094 321.40625 634.820312 321.40625 C 633.144531 321.40625 631.652344 322.082031 630.582031 323.203125 L 630.550781 323.203125 C 629.472656 324.308594 628.800781 325.839844 628.800781 327.546875 C 628.800781 329.234375 629.472656 330.769531 630.550781 331.855469 L 630.582031 331.886719 C 631.652344 332.976562 633.144531 333.671875 634.820312 333.671875 Z M 667.621094 315.109375 C 669.109375 314.710938 670.460938 313.738281 671.285156 312.265625 L 671.394531 312.050781 C 672.128906 310.65625 672.261719 309.042969 671.871094 307.613281 C 671.476562 306.085938 670.507812 304.726562 669.0625 303.886719 L 668.980469 303.828125 C 667.570312 303.039062 665.96875 302.867188 664.496094 303.277344 C 663 303.65625 661.65625 304.671875 660.835938 306.132812 C 660.003906 307.582031 659.832031 309.25 660.230469 310.789062 C 660.640625 312.296875 661.597656 313.664062 663.035156 314.515625 L 663.042969 314.515625 C 664.480469 315.359375 666.109375 315.507812 667.621094 315.109375 Z M 640.996094 284.570312 C 639.414062 282.964844 637.234375 281.960938 634.820312 281.960938 C 632.410156 281.960938 630.234375 282.964844 628.65625 284.570312 C 627.085938 286.171875 626.117188 288.378906 626.117188 290.835938 C 626.117188 293.292969 627.085938 295.511719 628.65625 297.132812 C 630.234375 298.726562 632.410156 299.722656 634.820312 299.722656 C 637.234375 299.722656 639.414062 298.726562 640.996094 297.132812 C 642.570312 295.511719 643.539062 293.292969 643.539062 290.835938 C 643.539062 288.378906 642.570312 286.171875 640.996094 284.570312 Z M 637.523438 274.128906 C 641.027344 274.714844 644.171875 276.421875 646.578125 278.886719 L 646.59375 278.886719 C 646.976562 279.277344 647.351562 279.703125 647.695312 280.128906 L 653.707031 276.59375 C 652.898438 274.109375 652.859375 271.511719 653.511719 269.074219 C 654.367188 265.8125 656.445312 262.890625 659.5625 261.058594 L 659.664062 260.992188 C 662.746094 259.21875 666.25 258.851562 669.410156 259.722656 C 672.613281 260.59375 675.503906 262.71875 677.300781 265.886719 L 677.300781 265.894531 C 679.089844 269.042969 679.453125 272.65625 678.601562 275.910156 C 677.746094 279.171875 675.660156 282.113281 672.546875 283.933594 L 671.726562 284.425781 L 671.644531 284.425781 C 668.765625 285.820312 665.597656 286.039062 662.691406 285.257812 C 660.304688 284.617188 658.113281 283.257812 656.398438 281.335938 L 650.398438 284.863281 C 651.085938 286.71875 651.46875 288.722656 651.46875 290.835938 C 651.46875 292.941406 651.085938 294.972656 650.398438 296.839844 L 656.398438 300.355469 C 658.113281 298.402344 660.304688 297.074219 662.691406 296.429688 C 665.894531 295.539062 669.445312 295.917969 672.546875 297.757812 L 672.746094 297.851562 L 672.746094 297.863281 C 675.746094 299.710938 677.757812 302.566406 678.601562 305.789062 C 679.453125 309.023438 679.089844 312.640625 677.300781 315.792969 L 677.191406 316.015625 L 677.179688 315.996094 C 675.382812 319.039062 672.546875 321.097656 669.421875 321.96875 C 666.210938 322.828125 662.660156 322.460938 659.5625 320.648438 L 659.5625 320.625 C 656.445312 318.789062 654.367188 315.863281 653.511719 312.609375 C 652.859375 310.179688 652.898438 307.582031 653.707031 305.097656 L 647.695312 301.570312 C 647.351562 301.996094 646.976562 302.40625 646.59375 302.792969 L 646.578125 302.8125 C 644.171875 305.269531 641.027344 306.976562 637.523438 307.542969 L 637.523438 314.613281 C 640.019531 315.140625 642.253906 316.414062 644.003906 318.195312 L 644.015625 318.214844 C 646.363281 320.589844 647.816406 323.902344 647.816406 327.546875 C 647.816406 331.175781 646.363281 334.46875 644.015625 336.859375 L 644.003906 336.894531 C 641.640625 339.285156 638.398438 340.765625 634.820312 340.765625 C 631.257812 340.765625 628.007812 339.285156 625.648438 336.894531 L 625.640625 336.894531 L 625.640625 336.859375 C 623.289062 334.46875 621.832031 331.175781 621.832031 327.546875 C 621.832031 323.902344 623.289062 320.589844 625.640625 318.214844 L 625.640625 318.195312 L 625.648438 318.195312 C 627.398438 316.414062 629.640625 315.140625 632.128906 314.613281 L 632.128906 307.542969 C 628.625 306.976562 625.484375 305.269531 623.082031 302.8125 L 623.058594 302.792969 C 620.058594 299.730469 618.179688 295.511719 618.179688 290.835938 C 618.179688 286.171875 620.058594 281.949219 623.058594 278.886719 L 623.082031 278.886719 C 625.484375 276.421875 628.625 274.714844 632.128906 274.128906 L 632.128906 267.089844 C 629.640625 266.542969 627.398438 265.269531 625.648438 263.496094 L 625.640625 263.496094 L 625.640625 263.480469 C 623.289062 261.078125 621.832031 257.789062 621.832031 254.148438 C 621.832031 250.523438 623.289062 247.203125 625.640625 244.816406 L 625.648438 244.804688 C 628.007812 242.40625 631.257812 240.929688 634.820312 240.929688 C 638.398438 240.929688 641.640625 242.40625 644.003906 244.804688 L 644.003906 244.816406 L 644.015625 244.816406 C 646.363281 247.203125 647.816406 250.523438 647.816406 254.148438 C 647.816406 257.789062 646.363281 261.078125 644.015625 263.480469 L 644.003906 263.496094 C 642.253906 265.269531 640.019531 266.542969 637.523438 267.089844 Z M 671.285156 269.433594 L 671.234375 269.355469 C 670.40625 267.9375 669.082031 266.988281 667.621094 266.578125 C 666.109375 266.171875 664.480469 266.339844 663.035156 267.1875 L 663.042969 267.1875 C 661.597656 268.019531 660.632812 269.386719 660.230469 270.914062 C 659.832031 272.429688 660.003906 274.109375 660.835938 275.570312 L 660.863281 275.605469 C 661.695312 277.046875 663.019531 278.015625 664.496094 278.40625 C 665.980469 278.832031 667.636719 278.652344 669.0625 277.804688 L 669.140625 277.769531 C 670.546875 276.914062 671.480469 275.570312 671.871094 274.089844 C 672.269531 272.5625 672.109375 270.894531 671.285156 269.433594 " fill-opacity="1" fill-rule="nonzero"></path><path fill="#ffffff" d="M 697.953125 271.5 L 704.660156 271.5 L 704.660156 292.335938 L 714.332031 281.449219 L 722.375 281.449219 L 710.699219 294.058594 L 722.421875 310.046875 L 714.746094 310.046875 L 704.660156 295.765625 L 704.660156 310.046875 L 697.953125 310.046875 L 697.953125 271.5 " fill-opacity="1" fill-rule="nonzero"></path><path fill="#ffffff" d="M 730.167969 295.871094 C 730.167969 299.417969 732.671875 304.578125 738.714844 304.578125 C 742.453125 304.578125 744.914062 302.59375 746.1875 299.996094 C 746.855469 298.734375 747.164062 297.386719 747.265625 295.984375 C 747.3125 294.628906 747.0625 293.21875 746.496094 291.964844 C 745.320312 289.261719 742.710938 286.917969 738.664062 286.917969 C 733.242188 286.917969 730.167969 291.394531 730.167969 295.824219 Z M 753.921875 310.046875 L 747.210938 310.046875 L 747.210938 305.933594 C 745.425781 309.261719 741.6875 310.929688 737.742188 310.929688 C 728.730469 310.929688 723.460938 303.789062 723.460938 295.71875 C 723.460938 286.710938 729.859375 280.566406 737.742188 280.566406 C 742.863281 280.566406 745.984375 283.324219 747.210938 285.621094 L 747.210938 281.449219 L 753.921875 281.449219 L 753.921875 310.046875 " fill-opacity="1" fill-rule="nonzero"></path><path fill="#ffffff" d="M 761.515625 286.710938 L 758.039062 286.710938 L 758.039062 281.449219 L 761.515625 281.449219 L 761.515625 279.835938 C 761.515625 271.339844 767.863281 270.828125 772.679688 270.769531 L 772.679688 276.023438 C 770.984375 276.023438 768.222656 276.023438 768.222656 280.042969 L 768.222656 281.449219 L 772.679688 281.449219 L 772.679688 286.710938 L 768.222656 286.710938 L 768.222656 310.046875 L 761.515625 310.046875 L 761.515625 286.710938 " fill-opacity="1" fill-rule="nonzero"></path><path fill="#ffffff" d="M 777.238281 271.5 L 783.945312 271.5 L 783.945312 292.335938 L 793.617188 281.449219 L 801.660156 281.449219 L 789.984375 294.058594 L 801.707031 310.046875 L 794.027344 310.046875 L 783.945312 295.765625 L 783.945312 310.046875 L 777.238281 310.046875 L 777.238281 271.5 " fill-opacity="1" fill-rule="nonzero"></path><path fill="#ffffff" d="M 809.449219 295.871094 C 809.449219 299.417969 811.957031 304.578125 818 304.578125 C 821.730469 304.578125 824.191406 302.59375 825.46875 299.996094 C 826.140625 298.734375 826.449219 297.386719 826.550781 295.984375 C 826.597656 294.628906 826.34375 293.21875 825.777344 291.964844 C 824.601562 289.261719 821.992188 286.917969 817.949219 286.917969 C 812.523438 286.917969 809.449219 291.394531 809.449219 295.824219 Z M 833.203125 310.046875 L 826.496094 310.046875 L 826.496094 305.933594 C 824.703125 309.261719 820.96875 310.929688 817.027344 310.929688 C 808.015625 310.929688 802.75 303.789062 802.75 295.71875 C 802.75 286.710938 809.144531 280.566406 817.027344 280.566406 C 822.144531 280.566406 825.269531 283.324219 826.496094 285.621094 L 826.496094 281.449219 L 833.203125 281.449219 L 833.203125 310.046875 " fill-opacity="1" fill-rule="nonzero"></path><path fill="#ffffff" d="M 675.335938 518.847656 C 675.335938 519.972656 675.28125 521.097656 675.167969 522.214844 C 675.058594 523.335938 674.894531 524.449219 674.675781 525.550781 C 674.453125 526.65625 674.183594 527.746094 673.855469 528.824219 C 673.527344 529.898438 673.148438 530.957031 672.71875 532 C 672.289062 533.039062 671.808594 534.054688 671.277344 535.046875 C 670.746094 536.039062 670.167969 537.003906 669.542969 537.941406 C 668.917969 538.875 668.246094 539.777344 667.535156 540.648438 C 666.820312 541.519531 666.066406 542.351562 665.269531 543.148438 C 664.472656 543.941406 663.640625 544.699219 662.769531 545.410156 C 661.898438 546.125 660.996094 546.796875 660.0625 547.421875 C 659.125 548.046875 658.160156 548.625 657.167969 549.15625 C 656.175781 549.683594 655.160156 550.164062 654.121094 550.597656 C 653.078125 551.027344 652.019531 551.40625 650.945312 551.734375 C 649.867188 552.058594 648.777344 552.332031 647.671875 552.550781 C 646.570312 552.773438 645.457031 552.9375 644.335938 553.046875 C 643.21875 553.15625 642.09375 553.210938 640.96875 553.210938 C 621.988281 553.210938 606.605469 537.828125 606.605469 518.847656 C 606.605469 499.871094 621.992188 484.488281 640.96875 484.488281 C 659.945312 484.488281 675.332031 499.875 675.332031 518.851562 " fill-opacity="1" fill-rule="nonzero"></path><path fill="#5b5b5b" d="M 641.546875 505.476562 L 650.441406 527.425781 L 637.011719 516.847656 Z M 657.34375 532.480469 L 643.667969 499.5625 C 643.277344 498.613281 642.515625 498.109375 641.546875 498.109375 C 640.578125 498.109375 639.761719 498.613281 639.371094 499.5625 L 624.355469 535.671875 L 629.492188 535.671875 L 635.433594 520.78125 L 653.167969 535.109375 C 653.882812 535.6875 654.398438 535.949219 655.066406 535.949219 C 656.40625 535.949219 657.578125 534.945312 657.578125 533.496094 C 657.578125 533.257812 657.492188 532.882812 657.34375 532.480469 Z M 657.34375 532.480469 " fill-opacity="1" fill-rule="nonzero"></path><path fill="#ffffff" d="M 722.433594 529.125 C 722.078125 529.125 721.699219 529.035156 721.429688 528.675781 L 710.039062 513.699219 L 710.039062 528.976562 L 707.441406 528.976562 L 707.441406 510.160156 C 707.441406 509.394531 708.0625 508.8125 708.769531 508.8125 C 709.183594 508.8125 709.539062 508.933594 709.804688 509.292969 L 721.164062 524.242188 L 721.164062 509.023438 L 723.761719 509.023438 L 723.761719 527.808594 C 723.761719 527.984375 723.730469 528.152344 723.664062 528.316406 C 723.597656 528.480469 723.5 528.625 723.375 528.75 C 723.25 528.871094 723.105469 528.96875 722.941406 529.03125 C 722.777344 529.097656 722.609375 529.128906 722.433594 529.125 M 737.460938 529.308594 C 734.867188 529.308594 732.148438 528.769531 729.613281 527.808594 L 730.234375 525.652344 C 732.5625 526.421875 735.101562 526.941406 737.460938 526.941406 C 740.738281 526.941406 742.449219 525.773438 742.449219 524.125 C 742.449219 522.628906 741.121094 521.878906 736.546875 519.722656 C 731.976562 517.5625 730.175781 516.1875 730.175781 513.492188 C 730.175781 510.105469 732.769531 508.730469 737.667969 508.730469 C 739.703125 508.730469 742.851562 509.152344 744.636719 509.691406 L 744.222656 511.90625 C 742.085938 511.394531 739.921875 511.125 737.730469 511.097656 C 734.277344 511.097656 732.859375 511.757812 732.859375 513.40625 C 732.859375 515.023438 733.894531 515.710938 738.730469 517.960938 C 743.839844 520.328125 745.132812 521.527344 745.132812 523.984375 C 745.132812 527.546875 741.769531 529.316406 737.460938 529.316406 M 750.984375 508.992188 L 753.671875 508.992188 L 753.671875 528.941406 L 750.984375 528.941406 Z M 771.605469 519.675781 L 764.9375 519.675781 L 764.9375 526.445312 L 771.605469 526.445312 C 773.878906 526.445312 775.265625 525.007812 775.265625 523 C 775.265625 521.113281 773.820312 519.675781 771.605469 519.675781 M 770.304688 511.046875 L 764.9375 511.046875 L 764.9375 517.429688 L 770.304688 517.429688 C 772.460938 517.429688 774.023438 516.050781 774.023438 514.132812 C 774.023438 512.246094 772.667969 511.046875 770.304688 511.046875 M 771.632812 528.722656 L 763.609375 528.722656 C 762.839844 528.722656 762.253906 528.121094 762.253906 527.375 L 762.253906 510.117188 C 762.253906 509.9375 762.289062 509.765625 762.359375 509.601562 C 762.429688 509.4375 762.527344 509.292969 762.65625 509.164062 C 762.78125 509.039062 762.929688 508.941406 763.09375 508.875 C 763.257812 508.804688 763.429688 508.769531 763.609375 508.769531 L 770.25 508.769531 C 774.320312 508.769531 776.738281 510.777344 776.738281 513.921875 C 776.738281 515.652344 775.734375 517.21875 774.199219 518.148438 C 776.472656 518.839844 778.007812 520.722656 778.007812 523 C 778.007812 526.175781 775.382812 528.722656 771.632812 528.722656 M 785.839844 528.5 C 785.101562 528.5 784.496094 527.871094 784.496094 527.152344 L 784.496094 508.53125 L 787.183594 508.53125 L 787.183594 526.054688 L 797.902344 526.054688 L 797.902344 528.480469 Z M 810.410156 528.609375 C 804.917969 528.609375 801.617188 526.574219 801.617188 522.464844 C 801.617188 520.519531 802.710938 518.660156 804.832031 517.792969 C 803.105469 516.714844 802.234375 515.1875 802.234375 513.507812 C 802.234375 509.792969 805.101562 508.023438 810.492188 508.023438 C 812.667969 508.035156 814.824219 508.265625 816.953125 508.714844 L 816.660156 510.933594 C 814.417969 510.574219 812.320312 510.363281 810.285156 510.363281 C 806.800781 510.363281 804.945312 511.324219 804.945312 513.628906 C 804.945312 515.457031 806.65625 516.890625 808.929688 516.890625 L 813.53125 516.890625 C 813.683594 516.890625 813.832031 516.917969 813.972656 516.972656 C 814.113281 517.03125 814.238281 517.113281 814.347656 517.21875 C 814.457031 517.324219 814.539062 517.449219 814.597656 517.589844 C 814.65625 517.730469 814.683594 517.878906 814.683594 518.03125 C 814.683594 518.6875 814.183594 519.195312 813.53125 519.195312 L 808.574219 519.195312 C 805.976562 519.195312 804.324219 520.484375 804.324219 522.460938 C 804.324219 525.367188 807.007812 526.234375 810.371094 526.234375 C 812.203125 526.234375 814.679688 525.996094 816.707031 525.515625 L 817.09375 527.703125 C 814.917969 528.289062 812.703125 528.589844 810.453125 528.601562 M 692.753906 512.941406 L 697.457031 524.722656 L 690.355469 519.042969 Z M 701.109375 527.4375 L 693.875 509.765625 C 693.667969 509.253906 693.253906 508.984375 692.753906 508.984375 C 692.5 508.980469 692.265625 509.050781 692.054688 509.191406 C 691.84375 509.335938 691.695312 509.527344 691.601562 509.765625 L 683.6875 529.679688 L 686.375 529.148438 L 689.519531 521.15625 L 698.898438 528.851562 C 699.277344 529.15625 699.546875 529.300781 699.902344 529.300781 C 700.078125 529.300781 700.25 529.269531 700.410156 529.207031 C 700.574219 529.140625 700.71875 529.042969 700.84375 528.921875 C 700.96875 528.796875 701.066406 528.652344 701.132812 528.488281 C 701.199219 528.328125 701.230469 528.15625 701.230469 527.980469 C 701.21875 527.792969 701.175781 527.613281 701.105469 527.4375 Z M 701.109375 527.4375 " fill-opacity="1" fill-rule="nonzero"></path></svg>