<svg xmlns="http://www.w3.org/2000/svg" xmlns:xlink="http://www.w3.org/1999/xlink" zoomAndPan="magnify" preserveAspectRatio="xMidYMid meet" version="1.0" viewBox="604.5 336 230.04 138"><defs><clipPath id="b6bce40840"><path d="M 604.5 426 L 815 426 L 815 474 L 604.5 474 Z M 604.5 426 " clip-rule="nonzero"></path></clipPath></defs><path fill="#252f3e" d="M 669.53125 385.898438 C 669.53125 388.726562 669.835938 391.015625 670.371094 392.699219 C 670.980469 394.378906 671.746094 396.214844 672.816406 398.199219 C 673.199219 398.8125 673.351562 399.421875 673.351562 399.957031 C 673.351562 400.722656 672.890625 401.484375 671.898438 402.25 L 667.085938 405.460938 C 666.398438 405.917969 665.710938 406.148438 665.097656 406.148438 C 664.335938 406.148438 663.570312 405.765625 662.804688 405.078125 C 661.734375 403.929688 660.820312 402.707031 660.054688 401.484375 C 659.289062 400.1875 658.527344 398.734375 657.6875 396.976562 C 651.726562 404.007812 644.238281 407.523438 635.21875 407.523438 C 628.800781 407.523438 623.683594 405.6875 619.9375 402.019531 C 616.195312 398.351562 614.285156 393.460938 614.285156 387.347656 C 614.285156 380.855469 616.574219 375.582031 621.238281 371.609375 C 625.898438 367.636719 632.085938 365.648438 639.957031 365.648438 C 642.554688 365.648438 645.230469 365.878906 648.058594 366.257812 C 650.886719 366.640625 653.789062 367.253906 656.84375 367.941406 L 656.84375 362.363281 C 656.84375 356.554688 655.621094 352.503906 653.253906 350.136719 C 650.808594 347.769531 646.683594 346.621094 640.800781 346.621094 C 638.125 346.621094 635.375 346.925781 632.546875 347.613281 C 629.71875 348.300781 626.96875 349.144531 624.292969 350.210938 C 623.070312 350.746094 622.152344 351.054688 621.621094 351.207031 C 621.085938 351.359375 620.703125 351.433594 620.398438 351.433594 C 619.328125 351.433594 618.792969 350.671875 618.792969 349.066406 L 618.792969 345.324219 C 618.792969 344.101562 618.945312 343.183594 619.328125 342.648438 C 619.707031 342.113281 620.398438 341.578125 621.464844 341.042969 C 624.140625 339.667969 627.351562 338.523438 631.09375 337.605469 C 634.839844 336.609375 638.8125 336.152344 643.015625 336.152344 C 652.109375 336.152344 658.757812 338.214844 663.035156 342.34375 C 667.238281 346.46875 669.378906 352.734375 669.378906 361.140625 L 669.378906 385.898438 Z M 638.507812 397.511719 C 641.027344 397.511719 643.625 397.054688 646.378906 396.136719 C 649.128906 395.21875 651.574219 393.539062 653.636719 391.246094 C 654.859375 389.792969 655.777344 388.191406 656.234375 386.355469 C 656.691406 384.523438 657 382.304688 657 379.707031 L 657 376.5 C 654.78125 375.964844 652.414062 375.503906 649.96875 375.199219 C 647.523438 374.894531 645.15625 374.742188 642.785156 374.742188 C 637.664062 374.742188 633.921875 375.734375 631.398438 377.796875 C 628.878906 379.859375 627.65625 382.765625 627.65625 386.585938 C 627.65625 390.175781 628.574219 392.851562 630.484375 394.683594 C 632.316406 396.59375 634.992188 397.511719 638.507812 397.511719 Z M 699.867188 405.765625 C 698.492188 405.765625 697.574219 405.535156 696.960938 405 C 696.351562 404.542969 695.816406 403.472656 695.359375 402.019531 L 677.402344 342.953125 C 676.941406 341.425781 676.714844 340.433594 676.714844 339.898438 C 676.714844 338.675781 677.324219 337.988281 678.546875 337.988281 L 686.035156 337.988281 C 687.488281 337.988281 688.480469 338.214844 689.015625 338.75 C 689.625 339.210938 690.085938 340.277344 690.542969 341.730469 L 703.382812 392.316406 L 715.300781 341.730469 C 715.683594 340.203125 716.140625 339.210938 716.753906 338.75 C 717.363281 338.292969 718.433594 337.988281 719.808594 337.988281 L 725.921875 337.988281 C 727.375 337.988281 728.367188 338.214844 728.980469 338.75 C 729.589844 339.210938 730.125 340.277344 730.429688 341.730469 L 742.503906 392.925781 L 755.722656 341.730469 C 756.183594 340.203125 756.71875 339.210938 757.253906 338.75 C 757.863281 338.292969 758.855469 337.988281 760.230469 337.988281 L 767.339844 337.988281 C 768.5625 337.988281 769.25 338.597656 769.25 339.898438 C 769.25 340.277344 769.171875 340.660156 769.097656 341.121094 C 769.019531 341.578125 768.867188 342.191406 768.5625 343.03125 L 750.144531 402.097656 C 749.6875 403.625 749.152344 404.617188 748.542969 405.078125 C 747.929688 405.535156 746.9375 405.839844 745.636719 405.839844 L 739.066406 405.839844 C 737.613281 405.839844 736.621094 405.613281 736.007812 405.078125 C 735.398438 404.542969 734.863281 403.550781 734.558594 402.019531 L 722.714844 352.734375 L 710.945312 401.945312 C 710.5625 403.472656 710.105469 404.464844 709.496094 405 C 708.882812 405.535156 707.8125 405.765625 706.4375 405.765625 Z M 798.058594 407.828125 C 794.082031 407.828125 790.109375 407.371094 786.289062 406.453125 C 782.46875 405.535156 779.488281 404.542969 777.5 403.394531 C 776.277344 402.707031 775.4375 401.945312 775.132812 401.257812 C 774.828125 400.570312 774.675781 399.804688 774.675781 399.117188 L 774.675781 395.21875 C 774.675781 393.617188 775.285156 392.851562 776.433594 392.851562 C 776.890625 392.851562 777.347656 392.925781 777.808594 393.082031 C 778.265625 393.234375 778.953125 393.539062 779.71875 393.84375 C 782.316406 394.992188 785.144531 395.90625 788.125 396.519531 C 791.179688 397.128906 794.160156 397.4375 797.214844 397.4375 C 802.03125 397.4375 805.773438 396.59375 808.371094 394.914062 C 810.96875 393.234375 812.347656 390.789062 812.347656 387.65625 C 812.347656 385.515625 811.660156 383.757812 810.28125 382.304688 C 808.90625 380.855469 806.308594 379.554688 802.566406 378.332031 L 791.484375 374.894531 C 785.90625 373.136719 781.78125 370.539062 779.257812 367.101562 C 776.738281 363.738281 775.4375 359.992188 775.4375 356.019531 C 775.4375 352.8125 776.125 349.984375 777.5 347.539062 C 778.878906 345.09375 780.710938 342.953125 783.003906 341.273438 C 785.296875 339.515625 787.894531 338.214844 790.949219 337.300781 C 794.007812 336.382812 797.214844 336 800.578125 336 C 802.257812 336 804.015625 336.078125 805.699219 336.304688 C 807.457031 336.535156 809.058594 336.839844 810.664062 337.144531 C 812.191406 337.527344 813.644531 337.910156 815.019531 338.367188 C 816.394531 338.828125 817.464844 339.285156 818.230469 339.746094 C 819.300781 340.355469 820.0625 340.96875 820.523438 341.65625 C 820.980469 342.265625 821.210938 343.105469 821.210938 344.175781 L 821.210938 347.769531 C 821.210938 349.371094 820.597656 350.210938 819.453125 350.210938 C 818.839844 350.210938 817.847656 349.90625 816.550781 349.296875 C 812.191406 347.308594 807.304688 346.316406 801.878906 346.316406 C 797.523438 346.316406 794.082031 347.003906 791.714844 348.457031 C 789.347656 349.90625 788.125 352.125 788.125 355.257812 C 788.125 357.394531 788.886719 359.230469 790.414062 360.679688 C 791.945312 362.132812 794.769531 363.585938 798.820312 364.882812 L 809.671875 368.324219 C 815.171875 370.082031 819.148438 372.527344 821.515625 375.660156 C 823.882812 378.792969 825.03125 382.382812 825.03125 386.355469 C 825.03125 389.640625 824.34375 392.621094 823.042969 395.21875 C 821.667969 397.816406 819.835938 400.109375 817.464844 401.945312 C 815.097656 403.855469 812.269531 405.230469 808.984375 406.222656 C 805.546875 407.292969 801.953125 407.828125 798.058594 407.828125 Z M 798.058594 407.828125 " fill-opacity="1" fill-rule="nonzero"></path><g clip-path="url(#b6bce40840)"><path fill="#ff9900" d="M 812.5 444.964844 C 787.359375 463.535156 750.832031 473.390625 719.429688 473.390625 C 675.414062 473.390625 635.753906 457.113281 605.800781 430.0625 C 603.433594 427.925781 605.574219 425.019531 608.398438 426.703125 C 640.800781 445.5 680.761719 456.886719 722.101562 456.886719 C 749.992188 456.886719 780.632812 451.078125 808.832031 439.15625 C 813.035156 437.246094 816.625 441.910156 812.5 444.964844 Z M 812.5 444.964844 " fill-opacity="1" fill-rule="nonzero"></path></g><path fill="#ff9900" d="M 822.96875 433.042969 C 819.757812 428.917969 801.726562 431.058594 793.546875 432.050781 C 791.101562 432.355469 790.722656 430.21875 792.9375 428.613281 C 807.304688 418.527344 830.914062 421.429688 833.664062 424.792969 C 836.417969 428.230469 832.902344 451.84375 819.453125 463.152344 C 817.390625 464.910156 815.402344 463.992188 816.320312 461.699219 C 819.375 454.132812 826.175781 437.09375 822.96875 433.042969 Z M 822.96875 433.042969 " fill-opacity="1" fill-rule="nonzero"></path></svg>