<svg xmlns="http://www.w3.org/2000/svg" xmlns:xlink="http://www.w3.org/1999/xlink" zoomAndPan="magnify" preserveAspectRatio="xMidYMid meet" version="1.0" viewBox="607 372.75 226 64.92"><defs><clipPath id="e8b7cf8186"><path d="M 607 372.75 L 833 372.75 L 833 437.25 L 607 437.25 Z M 607 372.75 " clip-rule="nonzero"></path></clipPath></defs><g clip-path="url(#e8b7cf8186)"><path fill="#ffffff" d="M 645.796875 434.203125 C 656.566406 432.300781 665.457031 430.726562 665.5625 430.707031 L 665.746094 430.667969 L 655.582031 418.574219 C 649.988281 411.921875 645.414062 406.457031 645.414062 406.425781 C 645.414062 406.363281 655.910156 377.457031 655.96875 377.355469 C 655.992188 377.320312 663.132812 389.652344 673.289062 407.25 C 682.792969 423.726562 690.628906 437.3125 690.703125 437.4375 L 690.835938 437.671875 L 626.21875 437.664062 Z M 769.695312 431.277344 C 764.777344 430.964844 761.917969 428.164062 761.160156 422.921875 C 760.957031 421.527344 760.957031 421.492188 760.9375 412.4375 L 760.917969 403.675781 L 765.269531 403.675781 L 765.289062 412.152344 C 765.304688 419.789062 765.3125 420.683594 765.386719 421.222656 C 765.683594 423.402344 766.273438 424.871094 767.277344 425.921875 C 768.082031 426.765625 769.019531 427.257812 770.324219 427.519531 C 770.9375 427.644531 772.6875 427.644531 773.246094 427.519531 C 774.566406 427.230469 775.625 426.65625 776.558594 425.722656 C 777.625 424.65625 778.410156 423.148438 778.792969 421.441406 L 778.921875 420.867188 L 778.933594 412.320312 L 778.949219 403.773438 L 783.394531 403.773438 L 783.394531 430.644531 L 778.996094 430.644531 L 778.996094 428.511719 C 778.996094 427.0625 778.980469 426.386719 778.945312 426.394531 C 778.917969 426.40625 778.804688 426.578125 778.695312 426.78125 C 777.9375 428.164062 776.675781 429.425781 775.289062 430.1875 C 773.632812 431.101562 771.96875 431.425781 769.695312 431.28125 Z M 819.613281 431.257812 C 817.878906 431.128906 816.050781 430.53125 814.554688 429.605469 C 811.40625 427.65625 809.542969 424.449219 809 420.027344 C 808.808594 418.5 808.789062 416.445312 808.945312 415.148438 C 809.296875 412.242188 810.4375 409.394531 812.0625 407.359375 C 812.476562 406.835938 813.421875 405.894531 813.945312 405.476562 C 815.351562 404.351562 817 403.566406 818.75 403.183594 C 819.769531 402.960938 821.5625 402.855469 822.644531 402.957031 C 825.367188 403.207031 827.859375 404.488281 829.554688 406.503906 C 831.273438 408.550781 832.222656 411.414062 832.339844 414.9375 C 832.359375 415.488281 832.367188 416.457031 832.351562 417.089844 L 832.328125 418.234375 L 822.800781 418.246094 L 813.277344 418.261719 L 813.277344 418.683594 C 813.277344 419.980469 813.589844 421.453125 814.132812 422.707031 C 814.601562 423.789062 815.410156 424.96875 816.070312 425.539062 C 817.425781 426.710938 819.085938 427.414062 820.902344 427.582031 C 821.574219 427.644531 823.289062 427.578125 824.054688 427.460938 C 826.246094 427.125 828.324219 426.265625 830.003906 425.007812 C 830.203125 424.859375 830.390625 424.722656 830.425781 424.699219 C 830.476562 424.667969 830.488281 425.054688 830.484375 426.683594 L 830.484375 428.707031 L 830.035156 428.984375 C 828.132812 430.160156 825.957031 430.914062 823.648438 431.199219 C 822.960938 431.28125 820.4375 431.320312 819.613281 431.257812 Z M 827.90625 414.199219 C 827.90625 412.03125 826.992188 409.625 825.699219 408.386719 C 824.777344 407.5 823.660156 406.960938 822.335938 406.753906 C 821.707031 406.65625 820.386719 406.695312 819.726562 406.828125 C 818.328125 407.109375 817.171875 407.726562 816.160156 408.722656 C 815.101562 409.769531 814.304688 411.042969 813.804688 412.496094 C 813.625 413.019531 813.414062 413.875 813.347656 414.351562 L 813.316406 414.578125 L 827.90625 414.578125 Z M 698.683594 430.582031 C 698.695312 430.550781 701.929688 422.050781 705.875 411.699219 L 713.042969 392.871094 L 717.648438 392.871094 L 717.839844 393.363281 C 718.421875 394.859375 732.191406 430.601562 732.191406 430.621094 C 732.191406 430.632812 731.085938 430.640625 729.738281 430.640625 L 727.289062 430.640625 L 723.320312 420.078125 L 707.34375 420.078125 L 707.273438 420.253906 C 707.234375 420.355469 706.386719 422.730469 705.390625 425.539062 L 703.574219 430.640625 L 701.121094 430.640625 C 699.175781 430.640625 698.667969 430.628906 698.683594 430.582031 Z M 721.863281 416.046875 C 721.863281 416.035156 720.527344 412.417969 718.894531 408 C 715.84375 399.738281 715.671875 399.242188 715.429688 397.917969 C 715.316406 397.292969 715.261719 397.277344 715.191406 397.84375 C 715.144531 398.25 714.9375 399.15625 714.777344 399.660156 C 714.695312 399.910156 713.320312 403.683594 711.722656 408.046875 C 710.121094 412.410156 708.808594 415.996094 708.808594 416.019531 C 708.808594 416.042969 711.746094 416.058594 715.335938 416.058594 C 718.925781 416.058594 721.863281 416.054688 721.863281 416.046875 Z M 733.671875 429.953125 L 733.671875 429.265625 L 741.632812 418.324219 L 749.589844 407.382812 L 735.175781 407.335938 L 735.164062 405.507812 L 735.152344 403.675781 L 756 403.675781 L 756 404.914062 L 748.039062 415.914062 C 743.660156 421.964844 740.078125 426.925781 740.078125 426.9375 C 740.078125 426.949219 743.617188 426.960938 747.941406 426.960938 L 755.808594 426.960938 L 755.808594 430.640625 L 733.671875 430.640625 Z M 792.078125 430.609375 C 792.0625 430.59375 792.046875 424.527344 792.046875 417.128906 L 792.046875 403.675781 L 796.398438 403.675781 L 796.398438 406.449219 C 796.398438 407.976562 796.417969 409.222656 796.441406 409.222656 C 796.460938 409.222656 796.566406 408.972656 796.675781 408.667969 C 797.164062 407.269531 798.011719 405.964844 799.105469 404.925781 C 800.089844 403.992188 801.214844 403.429688 802.542969 403.21875 C 802.914062 403.15625 803.230469 403.144531 803.976562 403.164062 C 804.914062 403.1875 805.402344 403.257812 805.972656 403.445312 L 806.152344 403.503906 L 806.152344 408.019531 L 805.636719 407.761719 C 804.730469 407.308594 803.835938 407.125 802.757812 407.183594 C 802.054688 407.21875 801.597656 407.308594 801.035156 407.519531 C 799.882812 407.953125 798.949219 408.714844 798.292969 409.757812 C 797.347656 411.265625 796.675781 413.207031 796.476562 414.988281 C 796.4375 415.308594 796.417969 417.914062 796.410156 423.050781 L 796.398438 430.640625 L 794.253906 430.640625 C 793.074219 430.640625 792.097656 430.628906 792.078125 430.609375 Z M 607.023438 430.515625 C 607.023438 430.5 611.8125 422.183594 617.667969 412.039062 L 628.3125 393.589844 L 640.71875 383.179688 C 647.539062 377.453125 653.140625 372.761719 653.164062 372.753906 C 653.1875 372.746094 653.097656 372.96875 652.964844 373.253906 C 652.832031 373.539062 646.769531 386.542969 639.492188 402.148438 L 626.265625 430.523438 L 616.644531 430.535156 C 611.351562 430.542969 607.023438 430.53125 607.023438 430.515625 Z M 607.023438 430.515625 " fill-opacity="1" fill-rule="nonzero"></path></g></svg>