<svg xmlns="http://www.w3.org/2000/svg" xmlns:xlink="http://www.w3.org/1999/xlink" zoomAndPan="magnify" preserveAspectRatio="xMidYMid meet" version="1.0" viewBox="607.5 289.5 225.57 230.5"><defs><clipPath id="08152484b8"><path d="M 607.5 473 L 653 473 L 653 520 L 607.5 520 Z M 607.5 473 " clip-rule="nonzero"></path></clipPath><clipPath id="586339e7c4"><path d="M 801 487 L 832.5 487 L 832.5 520 L 801 520 Z M 801 487 " clip-rule="nonzero"></path></clipPath><clipPath id="73133b2204"><path d="M 638 289.5 L 803 289.5 L 803 468 L 638 468 Z M 638 289.5 " clip-rule="nonzero"></path></clipPath><clipPath id="0c11ff5618"><path d="M 802.058594 368.460938 C 801.738281 365.453125 801.265625 361.972656 800.316406 358.175781 C 799.367188 354.375 797.785156 350.261719 795.726562 345.832031 C 793.511719 341.558594 790.820312 336.96875 787.183594 332.699219 C 785.757812 330.957031 784.175781 329.375 782.59375 327.632812 C 785.125 317.664062 779.585938 308.964844 779.585938 308.964844 C 769.933594 308.328125 763.921875 311.96875 761.707031 313.550781 C 761.390625 313.394531 760.914062 313.234375 760.597656 313.078125 C 759.015625 312.445312 757.277344 311.8125 755.535156 311.179688 C 753.792969 310.703125 752.054688 310.070312 750.3125 309.753906 C 748.574219 309.28125 746.675781 308.964844 744.777344 308.644531 C 744.460938 308.644531 744.140625 308.488281 743.824219 308.488281 C 739.710938 295.195312 727.6875 289.5 727.6875 289.5 C 713.917969 298.359375 711.230469 310.230469 711.230469 310.230469 C 711.230469 310.230469 711.230469 310.546875 711.070312 310.863281 C 710.28125 311.019531 709.648438 311.335938 708.855469 311.496094 C 707.90625 311.8125 706.800781 312.128906 705.847656 312.601562 C 704.898438 313.078125 703.792969 313.394531 702.84375 313.867188 C 700.785156 314.816406 698.886719 315.765625 696.832031 316.875 C 694.929688 317.980469 693.03125 319.089844 691.292969 320.355469 C 690.976562 320.199219 690.816406 320.039062 690.816406 320.039062 C 672.304688 312.917969 655.847656 321.464844 655.847656 321.464844 C 654.421875 341.242188 663.285156 353.585938 665.023438 355.800781 C 664.550781 357.066406 664.234375 358.175781 663.757812 359.441406 C 662.335938 363.871094 661.386719 368.460938 660.753906 373.207031 C 660.59375 373.839844 660.59375 374.628906 660.4375 375.261719 C 643.347656 383.648438 638.28125 401.054688 638.28125 401.054688 C 652.523438 417.511719 669.296875 418.460938 669.296875 418.460938 C 671.355469 422.257812 673.886719 425.898438 676.574219 429.222656 C 677.683594 430.644531 678.949219 431.910156 680.214844 433.335938 C 674.992188 448.210938 681.007812 460.710938 681.007812 460.710938 C 696.988281 461.34375 707.433594 453.75 709.648438 452.007812 C 711.230469 452.480469 712.8125 452.957031 714.394531 453.433594 C 719.300781 454.699219 724.363281 455.488281 729.269531 455.648438 C 730.535156 455.648438 731.800781 455.648438 733.066406 455.648438 L 735.757812 455.648438 C 743.191406 466.40625 756.484375 467.832031 756.484375 467.832031 C 765.820312 457.863281 766.453125 448.210938 766.453125 445.996094 C 766.453125 445.996094 766.453125 445.996094 766.453125 445.835938 C 766.453125 445.679688 766.453125 445.519531 766.453125 445.519531 C 766.453125 445.363281 766.453125 445.203125 766.453125 445.046875 C 768.351562 443.621094 770.25 442.195312 772.148438 440.613281 C 775.949219 437.292969 779.113281 433.335938 781.960938 429.222656 C 782.277344 428.90625 782.433594 428.429688 782.75 428.113281 C 793.355469 428.746094 800.789062 421.46875 800.789062 421.46875 C 799.050781 410.390625 792.722656 405.011719 791.453125 404.0625 C 791.453125 404.0625 791.453125 404.0625 791.296875 403.902344 L 791.136719 403.746094 L 790.980469 403.585938 C 790.980469 402.953125 791.136719 402.320312 791.136719 401.53125 C 791.296875 400.265625 791.296875 399.15625 791.296875 397.890625 L 791.296875 396.308594 C 791.296875 395.992188 791.296875 396.152344 791.296875 395.992188 L 791.296875 394.25 C 791.296875 393.933594 791.296875 393.617188 791.296875 393.300781 C 791.296875 392.984375 791.296875 392.667969 791.136719 392.351562 L 790.980469 391.402344 L 790.820312 390.453125 C 790.664062 389.1875 790.347656 388.082031 790.1875 386.816406 C 789.082031 382.066406 787.183594 377.480469 784.808594 373.523438 C 782.277344 369.410156 779.269531 365.925781 775.789062 362.761719 C 772.308594 359.757812 768.511719 357.226562 764.398438 355.484375 C 760.28125 353.585938 756.167969 352.476562 751.894531 352.003906 C 749.839844 351.6875 747.625 351.6875 745.566406 351.6875 L 743.191406 351.6875 C 742.875 351.6875 742.558594 351.6875 742.402344 351.6875 C 741.292969 351.84375 740.1875 352.003906 739.238281 352.160156 C 734.964844 352.953125 731.007812 354.535156 727.527344 356.589844 C 724.046875 358.648438 721.039062 361.339844 718.507812 364.34375 C 715.976562 367.351562 714.078125 370.515625 712.8125 373.996094 C 711.546875 377.320312 710.753906 380.960938 710.597656 384.28125 C 710.597656 385.074219 710.597656 386.023438 710.597656 386.816406 C 710.597656 386.972656 710.597656 387.289062 710.597656 387.449219 L 710.597656 388.082031 C 710.597656 388.554688 710.597656 388.871094 710.753906 389.347656 C 710.914062 391.085938 711.230469 392.667969 711.703125 394.25 C 712.652344 397.417969 714.078125 400.265625 715.976562 402.796875 C 717.875 405.328125 719.933594 407.226562 722.304688 408.808594 C 724.679688 410.390625 727.054688 411.5 729.585938 412.289062 C 732.117188 413.082031 734.488281 413.398438 736.707031 413.238281 C 737.023438 413.238281 737.339844 413.238281 737.496094 413.238281 C 737.65625 413.238281 737.8125 413.238281 737.972656 413.238281 C 738.128906 413.238281 738.289062 413.238281 738.445312 413.238281 C 738.761719 413.238281 738.921875 413.238281 739.238281 413.238281 L 739.554688 413.238281 C 739.710938 413.238281 739.871094 413.238281 740.027344 413.238281 C 740.34375 413.238281 740.660156 413.082031 740.820312 413.082031 C 741.136719 413.082031 741.292969 412.921875 741.609375 412.921875 C 742.085938 412.765625 742.71875 412.605469 743.191406 412.449219 C 744.140625 412.132812 745.09375 411.65625 746.042969 411.339844 C 746.992188 410.867188 747.78125 410.390625 748.414062 409.917969 C 748.574219 409.757812 748.890625 409.601562 749.046875 409.441406 C 749.839844 408.808594 749.996094 407.703125 749.363281 406.910156 C 748.730469 406.277344 747.78125 406.121094 746.992188 406.4375 C 746.832031 406.59375 746.675781 406.59375 746.359375 406.753906 C 745.726562 407.070312 744.933594 407.386719 744.300781 407.542969 C 743.507812 407.703125 742.71875 408.019531 741.925781 408.175781 C 741.453125 408.175781 741.136719 408.335938 740.660156 408.335938 C 740.503906 408.335938 740.1875 408.335938 740.027344 408.335938 C 739.871094 408.335938 739.554688 408.335938 739.394531 408.335938 C 739.238281 408.335938 738.921875 408.335938 738.761719 408.335938 C 738.445312 408.335938 738.289062 408.335938 737.972656 408.335938 C 737.972656 408.335938 737.8125 408.335938 737.972656 408.335938 L 737.65625 408.335938 C 737.496094 408.335938 737.496094 408.335938 737.339844 408.335938 C 737.179688 408.335938 736.863281 408.335938 736.707031 408.175781 C 734.964844 407.859375 733.066406 407.386719 731.324219 406.59375 C 729.585938 405.804688 727.84375 404.695312 726.421875 403.269531 C 724.835938 401.847656 723.570312 400.265625 722.464844 398.367188 C 721.355469 396.46875 720.722656 394.410156 720.40625 392.351562 C 720.25 391.246094 720.089844 390.136719 720.25 389.03125 C 720.25 388.714844 720.25 388.398438 720.25 388.082031 C 720.25 388.238281 720.25 388.082031 720.25 388.082031 L 720.25 387.765625 C 720.25 387.605469 720.25 387.449219 720.25 387.289062 C 720.25 386.65625 720.40625 386.183594 720.566406 385.550781 C 721.355469 380.800781 723.730469 376.214844 727.371094 372.730469 C 728.320312 371.78125 729.269531 370.992188 730.375 370.359375 C 731.484375 369.566406 732.589844 368.933594 733.699219 368.460938 C 734.804688 367.984375 736.074219 367.511719 737.339844 367.195312 C 738.605469 366.878906 739.871094 366.5625 741.136719 366.5625 C 741.769531 366.5625 742.402344 366.402344 743.035156 366.402344 C 743.191406 366.402344 743.351562 366.402344 743.507812 366.402344 L 744.300781 366.402344 C 744.457031 366.402344 744.300781 366.402344 744.300781 366.402344 L 744.933594 366.402344 C 746.359375 366.5625 747.78125 366.71875 749.046875 367.035156 C 751.738281 367.667969 754.429688 368.617188 756.960938 370.042969 C 762.023438 372.890625 766.296875 377.164062 768.828125 382.382812 C 770.09375 384.914062 771.042969 387.765625 771.515625 390.769531 C 771.675781 391.5625 771.675781 392.195312 771.832031 392.984375 L 771.832031 393.933594 C 771.832031 394.09375 771.832031 394.25 771.832031 394.410156 C 771.832031 394.566406 771.832031 394.726562 771.832031 394.882812 L 771.832031 395.835938 C 771.832031 396.152344 771.832031 396.785156 771.832031 397.101562 C 771.832031 397.890625 771.675781 398.683594 771.675781 399.472656 C 771.515625 400.265625 771.515625 401.054688 771.359375 401.847656 C 771.199219 402.636719 771.042969 403.429688 770.882812 404.21875 C 770.566406 405.804688 769.933594 407.226562 769.460938 408.808594 C 768.351562 411.816406 766.769531 414.664062 764.871094 417.195312 C 761.074219 422.417969 755.851562 426.691406 749.996094 429.378906 C 746.992188 430.644531 743.984375 431.753906 740.820312 432.226562 C 739.238281 432.542969 737.65625 432.703125 736.074219 432.703125 L 733.699219 432.703125 C 733.855469 432.703125 733.699219 432.703125 733.699219 432.703125 L 733.539062 432.703125 C 732.75 432.703125 731.800781 432.703125 731.007812 432.542969 C 727.527344 432.226562 724.203125 431.59375 720.882812 430.644531 C 717.558594 429.695312 714.394531 428.429688 711.386719 426.847656 C 705.375 423.683594 699.996094 419.09375 695.722656 413.871094 C 693.664062 411.183594 691.765625 408.335938 690.183594 405.328125 C 688.601562 402.320312 687.496094 399.15625 686.542969 395.992188 C 685.59375 392.828125 685.121094 389.503906 684.960938 386.183594 L 684.960938 382.542969 C 684.960938 382.066406 684.960938 381.75 684.960938 381.277344 C 684.960938 379.695312 685.121094 377.953125 685.4375 376.214844 C 685.59375 374.472656 685.910156 372.890625 686.226562 371.148438 C 686.542969 369.410156 687.019531 367.828125 687.496094 366.085938 C 688.445312 362.761719 689.550781 359.597656 690.976562 356.589844 C 693.824219 350.578125 697.464844 345.199219 701.734375 340.925781 C 702.84375 339.820312 703.949219 338.871094 705.214844 337.921875 C 705.691406 337.445312 706.800781 336.496094 708.066406 335.703125 C 709.332031 334.914062 710.597656 334.121094 712.019531 333.488281 C 712.652344 333.171875 713.285156 332.855469 714.078125 332.539062 C 714.394531 332.382812 714.710938 332.222656 715.183594 332.066406 C 715.5 331.90625 715.820312 331.75 716.292969 331.589844 C 717.71875 330.957031 719.140625 330.484375 720.566406 330.007812 C 720.882812 329.851562 721.355469 329.851562 721.671875 329.691406 C 721.988281 329.535156 722.464844 329.535156 722.78125 329.375 C 723.570312 329.21875 724.203125 329.058594 724.996094 328.742188 C 725.3125 328.585938 725.789062 328.585938 726.105469 328.425781 C 726.421875 328.425781 726.894531 328.269531 727.210938 328.269531 C 727.527344 328.269531 728.003906 328.109375 728.320312 328.109375 L 728.953125 327.953125 L 729.585938 327.792969 C 729.902344 327.792969 730.375 327.632812 730.691406 327.632812 C 731.167969 327.632812 731.484375 327.476562 731.957031 327.476562 C 732.273438 327.476562 732.90625 327.316406 733.222656 327.316406 C 733.539062 327.316406 733.699219 327.316406 734.015625 327.160156 L 735.125 327.160156 C 735.597656 327.160156 735.914062 327.160156 736.390625 327 L 737.023438 327 C 737.023438 327 737.179688 327 737.023438 327 L 737.496094 327 C 737.8125 327 738.289062 327 738.605469 327 C 740.027344 327 741.453125 327 742.875 327 C 745.726562 327.160156 748.574219 327.476562 751.261719 327.953125 C 756.644531 328.902344 761.863281 330.640625 766.453125 333.015625 C 771.042969 335.230469 775.316406 338.078125 778.796875 341.085938 C 778.953125 341.242188 779.269531 341.402344 779.429688 341.71875 C 779.585938 341.875 779.902344 342.035156 780.0625 342.351562 C 780.535156 342.667969 780.851562 343.140625 781.328125 343.457031 C 781.800781 343.773438 782.117188 344.25 782.59375 344.566406 C 782.910156 345.039062 783.386719 345.355469 783.703125 345.832031 C 785.285156 347.414062 786.707031 349.15625 787.972656 350.738281 C 790.503906 354.058594 792.5625 357.382812 794.144531 360.546875 C 794.304688 360.707031 794.304688 360.863281 794.460938 361.179688 C 794.621094 361.339844 794.621094 361.496094 794.777344 361.8125 C 794.9375 362.128906 795.09375 362.605469 795.410156 362.921875 C 795.570312 363.238281 795.726562 363.710938 795.886719 364.027344 C 796.042969 364.34375 796.203125 364.820312 796.359375 365.136719 C 796.992188 366.5625 797.46875 367.984375 797.941406 369.410156 C 798.734375 371.625 799.207031 373.523438 799.683594 375.105469 C 799.839844 375.738281 800.472656 376.214844 801.105469 376.214844 C 801.898438 376.214844 802.375 375.578125 802.375 374.789062 C 802.214844 372.890625 802.214844 370.832031 802.058594 368.460938 Z M 802.058594 368.460938 " clip-rule="nonzero"></path></clipPath></defs><g clip-path="url(#08152484b8)"><path fill="#565656" d="M 653 497.578125 C 652.523438 510.078125 642.554688 519.890625 630.214844 519.890625 C 617.238281 519.890625 607.585938 509.445312 607.585938 496.628906 C 607.585938 483.8125 618.027344 473.371094 630.847656 473.371094 C 636.542969 473.371094 642.238281 475.902344 646.984375 480.332031 L 643.347656 484.921875 C 639.707031 481.757812 635.277344 479.539062 630.847656 479.539062 C 621.511719 479.539062 613.757812 487.136719 613.757812 496.628906 C 613.757812 506.28125 621.035156 513.71875 630.214844 513.71875 C 638.441406 513.71875 644.929688 507.707031 646.351562 499.792969 L 627.523438 499.792969 L 627.523438 494.257812 L 653 494.257812 Z M 653 497.578125 " fill-opacity="1" fill-rule="nonzero"></path></g><path fill="#565656" d="M 674.519531 494.414062 L 671.039062 494.414062 C 667.238281 494.414062 664.074219 497.578125 664.074219 501.378906 L 664.074219 519.414062 L 657.902344 519.414062 L 657.902344 488.402344 L 662.96875 488.402344 L 662.96875 490.933594 C 664.707031 489.191406 667.238281 488.402344 670.246094 488.402344 L 676.890625 488.402344 Z M 674.519531 494.414062 " fill-opacity="1" fill-rule="nonzero"></path><path fill="#565656" d="M 708.382812 519.414062 L 703 519.414062 L 703 515.460938 C 698.886719 519.414062 692.558594 521.316406 686.070312 518.464844 C 681.324219 516.410156 677.683594 511.980469 676.734375 506.757812 C 674.835938 496.789062 682.589844 487.925781 692.398438 487.925781 C 696.515625 487.925781 700.3125 489.667969 703 492.359375 L 703 488.402344 L 708.382812 488.402344 Z M 702.050781 506.28125 C 703.476562 499.953125 698.730469 494.257812 692.558594 494.257812 C 687.179688 494.257812 682.90625 498.6875 682.90625 503.910156 C 682.90625 509.921875 688.128906 514.511719 694.296875 513.5625 C 697.9375 512.929688 701.101562 509.921875 702.050781 506.28125 Z M 702.050781 506.28125 " fill-opacity="1" fill-rule="nonzero"></path><path fill="#565656" d="M 720.722656 486.820312 L 720.722656 488.558594 L 730.535156 488.558594 L 730.535156 493.941406 L 720.722656 493.941406 L 720.722656 519.414062 L 714.710938 519.414062 L 714.710938 486.976562 C 714.710938 480.171875 719.617188 476.21875 725.789062 476.21875 L 733.222656 476.21875 L 730.691406 482.074219 L 725.789062 482.074219 C 722.9375 481.914062 720.722656 484.128906 720.722656 486.820312 Z M 720.722656 486.820312 " fill-opacity="1" fill-rule="nonzero"></path><path fill="#565656" d="M 763.445312 519.414062 L 758.226562 519.414062 L 758.226562 515.460938 C 754.113281 519.414062 747.78125 521.316406 741.292969 518.464844 C 736.546875 516.410156 732.90625 511.980469 731.957031 506.757812 C 730.058594 496.789062 737.8125 487.925781 747.625 487.925781 C 751.738281 487.925781 755.535156 489.667969 758.226562 492.359375 L 758.226562 488.402344 L 763.605469 488.402344 L 763.605469 519.414062 Z M 757.117188 506.28125 C 758.542969 499.953125 753.792969 494.257812 747.625 494.257812 C 742.242188 494.257812 737.972656 498.6875 737.972656 503.910156 C 737.972656 509.921875 743.191406 514.511719 749.363281 513.5625 C 753.160156 512.929688 756.167969 509.921875 757.117188 506.28125 Z M 757.117188 506.28125 " fill-opacity="1" fill-rule="nonzero"></path><path fill="#565656" d="M 796.519531 501.21875 L 796.519531 519.414062 L 790.347656 519.414062 L 790.347656 501.0625 C 790.347656 497.261719 787.183594 494.097656 783.386719 494.097656 C 779.429688 494.097656 776.421875 497.261719 776.421875 501.0625 L 776.421875 519.414062 L 770.25 519.414062 L 770.25 488.402344 L 775.316406 488.402344 L 775.316406 491.089844 C 777.53125 489.035156 780.535156 487.925781 783.542969 487.925781 C 790.820312 488.085938 796.519531 493.941406 796.519531 501.21875 Z M 796.519531 501.21875 " fill-opacity="1" fill-rule="nonzero"></path><g clip-path="url(#586339e7c4)"><path fill="#565656" d="M 832.914062 519.414062 L 827.691406 519.414062 L 827.691406 515.460938 C 823.578125 519.414062 817.246094 521.316406 810.757812 518.464844 C 806.011719 516.410156 802.375 511.980469 801.421875 506.757812 C 799.523438 496.789062 807.277344 487.925781 817.089844 487.925781 C 821.203125 487.925781 825 489.667969 827.691406 492.359375 L 827.691406 488.402344 L 833.070312 488.402344 L 833.070312 519.414062 Z M 826.582031 506.28125 C 828.007812 499.953125 823.261719 494.257812 817.089844 494.257812 C 811.710938 494.257812 807.4375 498.6875 807.4375 503.910156 C 807.4375 509.921875 812.660156 514.511719 818.828125 513.5625 C 822.628906 512.929688 825.632812 509.921875 826.582031 506.28125 Z M 826.582031 506.28125 " fill-opacity="1" fill-rule="nonzero"></path></g><g clip-path="url(#73133b2204)"><g clip-path="url(#0c11ff5618)"><path fill="#ffffff" d="M 638.28125 467.832031 L 638.28125 289.5 L 802.375 289.5 L 802.375 467.832031 Z M 638.28125 467.832031 " fill-opacity="1" fill-rule="nonzero"></path></g></g></svg>