<svg xmlns="http://www.w3.org/2000/svg" xmlns:xlink="http://www.w3.org/1999/xlink" zoomAndPan="magnify" preserveAspectRatio="xMidYMid meet" version="1.0" viewBox="612.18 354.93 215.02 99.84"><path fill="#ffffff" d="M 633.089844 363.8125 C 632.003906 362.703125 630.496094 362.019531 628.820312 362.019531 C 627.144531 362.019531 625.652344 362.703125 624.582031 363.8125 L 624.550781 363.8125 C 623.472656 364.914062 622.800781 366.449219 622.800781 368.148438 C 622.800781 369.855469 623.472656 371.378906 624.550781 372.46875 L 624.582031 372.5 C 625.652344 373.601562 627.144531 374.273438 628.820312 374.273438 C 630.496094 374.273438 632.003906 373.601562 633.089844 372.5 L 633.101562 372.46875 C 634.1875 371.378906 634.851562 369.855469 634.851562 368.148438 C 634.851562 366.449219 634.1875 364.914062 633.101562 363.8125 Z M 628.820312 447.671875 C 630.496094 447.671875 632.003906 446.976562 633.089844 445.886719 L 633.101562 445.855469 C 634.1875 444.769531 634.851562 443.234375 634.851562 441.546875 C 634.851562 439.839844 634.1875 438.308594 633.101562 437.203125 L 633.089844 437.203125 C 632.003906 436.082031 630.496094 435.40625 628.820312 435.40625 C 627.144531 435.40625 625.652344 436.082031 624.582031 437.203125 L 624.550781 437.203125 C 623.472656 438.308594 622.800781 439.839844 622.800781 441.546875 C 622.800781 443.234375 623.472656 444.769531 624.550781 445.855469 L 624.582031 445.886719 C 625.652344 446.976562 627.144531 447.671875 628.820312 447.671875 Z M 661.621094 429.109375 C 663.109375 428.710938 664.460938 427.738281 665.285156 426.265625 L 665.394531 426.050781 C 666.128906 424.65625 666.261719 423.042969 665.871094 421.613281 C 665.476562 420.085938 664.507812 418.726562 663.0625 417.886719 L 662.980469 417.828125 C 661.570312 417.039062 659.96875 416.867188 658.496094 417.277344 C 657 417.65625 655.65625 418.671875 654.835938 420.132812 C 654.003906 421.582031 653.832031 423.25 654.230469 424.789062 C 654.640625 426.296875 655.597656 427.664062 657.035156 428.515625 L 657.042969 428.515625 C 658.480469 429.359375 660.109375 429.507812 661.621094 429.109375 Z M 634.996094 398.570312 C 633.414062 396.964844 631.234375 395.960938 628.820312 395.960938 C 626.410156 395.960938 624.234375 396.964844 622.65625 398.570312 C 621.085938 400.171875 620.117188 402.378906 620.117188 404.835938 C 620.117188 407.292969 621.085938 409.511719 622.65625 411.132812 C 624.234375 412.726562 626.410156 413.722656 628.820312 413.722656 C 631.234375 413.722656 633.414062 412.726562 634.996094 411.132812 C 636.570312 409.511719 637.539062 407.292969 637.539062 404.835938 C 637.539062 402.378906 636.570312 400.171875 634.996094 398.570312 Z M 631.523438 388.128906 C 635.027344 388.714844 638.171875 390.421875 640.578125 392.886719 L 640.59375 392.886719 C 640.976562 393.277344 641.351562 393.703125 641.695312 394.128906 L 647.707031 390.59375 C 646.898438 388.109375 646.859375 385.511719 647.511719 383.074219 C 648.367188 379.8125 650.445312 376.890625 653.5625 375.058594 L 653.664062 374.992188 C 656.746094 373.21875 660.25 372.851562 663.410156 373.722656 C 666.613281 374.59375 669.503906 376.71875 671.300781 379.886719 L 671.300781 379.894531 C 673.089844 383.042969 673.453125 386.65625 672.601562 389.910156 C 671.746094 393.171875 669.660156 396.113281 666.546875 397.933594 L 665.726562 398.425781 L 665.644531 398.425781 C 662.765625 399.820312 659.597656 400.039062 656.691406 399.257812 C 654.304688 398.617188 652.113281 397.257812 650.398438 395.335938 L 644.398438 398.863281 C 645.085938 400.71875 645.46875 402.722656 645.46875 404.835938 C 645.46875 406.941406 645.085938 408.972656 644.398438 410.839844 L 650.398438 414.355469 C 652.113281 412.402344 654.304688 411.074219 656.691406 410.429688 C 659.894531 409.539062 663.445312 409.917969 666.546875 411.757812 L 666.746094 411.851562 L 666.746094 411.863281 C 669.746094 413.710938 671.757812 416.566406 672.601562 419.789062 C 673.453125 423.023438 673.089844 426.640625 671.300781 429.792969 L 671.191406 430.015625 L 671.179688 429.996094 C 669.382812 433.039062 666.546875 435.097656 663.421875 435.96875 C 660.210938 436.828125 656.660156 436.460938 653.5625 434.648438 L 653.5625 434.625 C 650.445312 432.789062 648.367188 429.863281 647.511719 426.609375 C 646.859375 424.179688 646.898438 421.582031 647.707031 419.097656 L 641.695312 415.570312 C 641.351562 415.996094 640.976562 416.40625 640.59375 416.792969 L 640.578125 416.8125 C 638.171875 419.269531 635.027344 420.976562 631.523438 421.542969 L 631.523438 428.613281 C 634.019531 429.140625 636.253906 430.414062 638.003906 432.195312 L 638.015625 432.214844 C 640.363281 434.589844 641.816406 437.902344 641.816406 441.546875 C 641.816406 445.175781 640.363281 448.46875 638.015625 450.859375 L 638.003906 450.894531 C 635.640625 453.285156 632.398438 454.765625 628.820312 454.765625 C 625.257812 454.765625 622.007812 453.285156 619.648438 450.894531 L 619.640625 450.894531 L 619.640625 450.859375 C 617.289062 448.46875 615.832031 445.175781 615.832031 441.546875 C 615.832031 437.902344 617.289062 434.589844 619.640625 432.214844 L 619.640625 432.195312 L 619.648438 432.195312 C 621.398438 430.414062 623.640625 429.140625 626.128906 428.613281 L 626.128906 421.542969 C 622.625 420.976562 619.484375 419.269531 617.082031 416.8125 L 617.058594 416.792969 C 614.058594 413.730469 612.179688 409.511719 612.179688 404.835938 C 612.179688 400.171875 614.058594 395.949219 617.058594 392.886719 L 617.082031 392.886719 C 619.484375 390.421875 622.625 388.714844 626.128906 388.128906 L 626.128906 381.089844 C 623.640625 380.542969 621.398438 379.269531 619.648438 377.496094 L 619.640625 377.496094 L 619.640625 377.480469 C 617.289062 375.078125 615.832031 371.789062 615.832031 368.148438 C 615.832031 364.523438 617.289062 361.203125 619.640625 358.816406 L 619.648438 358.804688 C 622.007812 356.40625 625.257812 354.929688 628.820312 354.929688 C 632.398438 354.929688 635.640625 356.40625 638.003906 358.804688 L 638.003906 358.816406 L 638.015625 358.816406 C 640.363281 361.203125 641.816406 364.523438 641.816406 368.148438 C 641.816406 371.789062 640.363281 375.078125 638.015625 377.480469 L 638.003906 377.496094 C 636.253906 379.269531 634.019531 380.542969 631.523438 381.089844 Z M 665.285156 383.433594 L 665.234375 383.355469 C 664.40625 381.9375 663.082031 380.988281 661.621094 380.578125 C 660.109375 380.171875 658.480469 380.339844 657.035156 381.1875 L 657.042969 381.1875 C 655.597656 382.019531 654.632812 383.386719 654.230469 384.914062 C 653.832031 386.429688 654.003906 388.109375 654.835938 389.570312 L 654.863281 389.605469 C 655.695312 391.046875 657.019531 392.015625 658.496094 392.40625 C 659.980469 392.832031 661.636719 392.652344 663.0625 391.804688 L 663.140625 391.769531 C 664.546875 390.914062 665.480469 389.570312 665.871094 388.089844 C 666.269531 386.5625 666.109375 384.894531 665.285156 383.433594 " fill-opacity="1" fill-rule="nonzero"></path><path fill="#ffffff" d="M 691.953125 385.5 L 698.660156 385.5 L 698.660156 406.335938 L 708.332031 395.449219 L 716.375 395.449219 L 704.699219 408.058594 L 716.421875 424.046875 L 708.746094 424.046875 L 698.660156 409.765625 L 698.660156 424.046875 L 691.953125 424.046875 L 691.953125 385.5 " fill-opacity="1" fill-rule="nonzero"></path><path fill="#ffffff" d="M 724.167969 409.871094 C 724.167969 413.417969 726.671875 418.578125 732.714844 418.578125 C 736.453125 418.578125 738.914062 416.59375 740.1875 413.996094 C 740.855469 412.734375 741.164062 411.386719 741.265625 409.984375 C 741.3125 408.628906 741.0625 407.21875 740.496094 405.964844 C 739.320312 403.261719 736.710938 400.917969 732.664062 400.917969 C 727.242188 400.917969 724.167969 405.394531 724.167969 409.824219 Z M 747.921875 424.046875 L 741.210938 424.046875 L 741.210938 419.933594 C 739.425781 423.261719 735.6875 424.929688 731.742188 424.929688 C 722.730469 424.929688 717.460938 417.789062 717.460938 409.71875 C 717.460938 400.710938 723.859375 394.566406 731.742188 394.566406 C 736.863281 394.566406 739.984375 397.324219 741.210938 399.621094 L 741.210938 395.449219 L 747.921875 395.449219 L 747.921875 424.046875 " fill-opacity="1" fill-rule="nonzero"></path><path fill="#ffffff" d="M 755.515625 400.710938 L 752.039062 400.710938 L 752.039062 395.449219 L 755.515625 395.449219 L 755.515625 393.835938 C 755.515625 385.339844 761.863281 384.828125 766.679688 384.769531 L 766.679688 390.023438 C 764.984375 390.023438 762.222656 390.023438 762.222656 394.042969 L 762.222656 395.449219 L 766.679688 395.449219 L 766.679688 400.710938 L 762.222656 400.710938 L 762.222656 424.046875 L 755.515625 424.046875 L 755.515625 400.710938 " fill-opacity="1" fill-rule="nonzero"></path><path fill="#ffffff" d="M 771.238281 385.5 L 777.945312 385.5 L 777.945312 406.335938 L 787.617188 395.449219 L 795.660156 395.449219 L 783.984375 408.058594 L 795.707031 424.046875 L 788.027344 424.046875 L 777.945312 409.765625 L 777.945312 424.046875 L 771.238281 424.046875 L 771.238281 385.5 " fill-opacity="1" fill-rule="nonzero"></path><path fill="#ffffff" d="M 803.449219 409.871094 C 803.449219 413.417969 805.957031 418.578125 812 418.578125 C 815.730469 418.578125 818.191406 416.59375 819.46875 413.996094 C 820.140625 412.734375 820.449219 411.386719 820.550781 409.984375 C 820.597656 408.628906 820.34375 407.21875 819.777344 405.964844 C 818.601562 403.261719 815.992188 400.917969 811.949219 400.917969 C 806.523438 400.917969 803.449219 405.394531 803.449219 409.824219 Z M 827.203125 424.046875 L 820.496094 424.046875 L 820.496094 419.933594 C 818.703125 423.261719 814.96875 424.929688 811.027344 424.929688 C 802.015625 424.929688 796.75 417.789062 796.75 409.71875 C 796.75 400.710938 803.144531 394.566406 811.027344 394.566406 C 816.144531 394.566406 819.269531 397.324219 820.496094 399.621094 L 820.496094 395.449219 L 827.203125 395.449219 L 827.203125 424.046875 " fill-opacity="1" fill-rule="nonzero"></path></svg>