<svg xmlns="http://www.w3.org/2000/svg" xmlns:xlink="http://www.w3.org/1999/xlink" zoomAndPan="magnify" preserveAspectRatio="xMidYMid meet" version="1.0" viewBox="606.2 385.9 227 38.33"><path fill="#ffffff" d="M 642.378906 394.425781 C 642.152344 393.699219 641.609375 393.109375 640.929688 392.746094 L 627.097656 386.125 C 626.734375 385.945312 626.328125 385.898438 625.964844 385.898438 C 625.601562 385.898438 625.195312 385.898438 624.832031 385.992188 L 611.003906 392.65625 C 610.320312 392.972656 609.824219 393.5625 609.640625 394.332031 L 606.242188 409.253906 C 606.105469 410.023438 606.285156 410.792969 606.738281 411.429688 L 616.308594 423.261719 C 616.851562 423.808594 617.621094 424.171875 618.394531 424.214844 L 633.628906 424.214844 C 634.445312 424.304688 635.214844 423.941406 635.714844 423.261719 L 645.28125 411.429688 C 645.734375 410.792969 645.917969 410.023438 645.824219 409.253906 Z M 642.378906 394.425781 " fill-opacity="1" fill-rule="nonzero"></path><path fill="#646464" d="M 640.25 408.664062 C 640.203125 408.664062 640.15625 408.664062 640.15625 408.617188 C 640.15625 408.570312 640.066406 408.570312 639.976562 408.570312 C 639.796875 408.527344 639.613281 408.527344 639.433594 408.527344 C 639.34375 408.527344 639.25 408.527344 639.160156 408.480469 L 639.113281 408.480469 C 638.617188 408.4375 638.070312 408.34375 637.574219 408.210938 C 637.4375 408.164062 637.300781 408.027344 637.257812 407.890625 C 637.300781 407.890625 637.257812 407.890625 637.257812 407.890625 L 636.894531 407.800781 C 637.074219 406.484375 636.984375 405.125 636.710938 403.8125 C 636.394531 402.496094 635.851562 401.226562 635.125 400.09375 L 635.398438 399.820312 L 635.398438 399.773438 C 635.398438 399.640625 635.441406 399.457031 635.53125 399.367188 C 635.941406 399.003906 636.347656 398.730469 636.800781 398.460938 C 636.894531 398.414062 636.984375 398.371094 637.074219 398.324219 C 637.257812 398.234375 637.390625 398.144531 637.574219 398.050781 C 637.617188 398.007812 637.664062 398.007812 637.710938 397.960938 C 637.753906 397.917969 637.710938 397.917969 637.710938 397.871094 C 638.117188 397.554688 638.207031 397.007812 637.890625 396.601562 C 637.753906 396.417969 637.484375 396.285156 637.257812 396.285156 C 637.03125 396.285156 636.800781 396.375 636.621094 396.511719 L 636.574219 396.554688 C 636.53125 396.601562 636.484375 396.644531 636.441406 396.644531 C 636.304688 396.78125 636.167969 396.917969 636.078125 397.054688 C 636.03125 397.144531 635.941406 397.191406 635.894531 397.234375 C 635.578125 397.597656 635.171875 397.960938 634.761719 398.234375 C 634.671875 398.277344 634.582031 398.324219 634.488281 398.324219 C 634.445312 398.324219 634.355469 398.324219 634.308594 398.277344 L 634.261719 398.277344 L 633.902344 398.503906 C 633.539062 398.144531 633.128906 397.78125 632.765625 397.417969 C 631.089844 396.101562 629.003906 395.285156 626.871094 395.058594 L 626.828125 394.695312 L 626.828125 394.742188 C 626.691406 394.652344 626.644531 394.515625 626.601562 394.378906 C 626.601562 393.878906 626.601562 393.382812 626.691406 392.835938 L 626.691406 392.792969 C 626.691406 392.703125 626.734375 392.609375 626.734375 392.519531 C 626.78125 392.339844 626.78125 392.15625 626.828125 391.976562 L 626.828125 391.703125 C 626.871094 391.25 626.507812 390.796875 626.054688 390.75 C 625.785156 390.707031 625.511719 390.84375 625.285156 391.070312 C 625.105469 391.25 625.011719 391.476562 625.011719 391.703125 L 625.011719 391.929688 C 625.011719 392.113281 625.058594 392.292969 625.105469 392.476562 C 625.148438 392.566406 625.148438 392.65625 625.148438 392.746094 L 625.148438 392.792969 C 625.238281 393.289062 625.238281 393.789062 625.238281 394.332031 C 625.195312 394.46875 625.148438 394.605469 625.011719 394.695312 L 625.011719 394.789062 L 624.96875 395.148438 C 624.46875 395.195312 623.96875 395.285156 623.425781 395.375 C 621.296875 395.832031 619.34375 396.964844 617.847656 398.550781 L 617.578125 398.371094 L 617.53125 398.371094 C 617.484375 398.371094 617.441406 398.414062 617.351562 398.414062 C 617.257812 398.414062 617.167969 398.371094 617.078125 398.324219 C 616.671875 398.007812 616.261719 397.644531 615.945312 397.28125 C 615.898438 397.191406 615.808594 397.144531 615.761719 397.101562 C 615.628906 396.964844 615.535156 396.828125 615.398438 396.691406 C 615.355469 396.644531 615.308594 396.644531 615.265625 396.601562 C 615.21875 396.554688 615.21875 396.554688 615.21875 396.554688 C 615.039062 396.417969 614.8125 396.328125 614.585938 396.328125 C 614.3125 396.328125 614.085938 396.417969 613.949219 396.644531 C 613.675781 397.054688 613.769531 397.597656 614.128906 397.917969 C 614.175781 397.917969 614.175781 397.960938 614.175781 397.960938 C 614.175781 397.960938 614.265625 398.050781 614.3125 398.050781 C 614.449219 398.144531 614.628906 398.234375 614.8125 398.324219 C 614.902344 398.371094 614.992188 398.414062 615.082031 398.460938 C 615.535156 398.730469 615.988281 399.003906 616.351562 399.367188 C 616.441406 399.457031 616.535156 399.640625 616.488281 399.773438 L 616.488281 399.730469 L 616.761719 400 C 616.714844 400.09375 616.671875 400.136719 616.625 400.230469 C 615.21875 402.449219 614.628906 405.082031 615.039062 407.664062 L 614.675781 407.753906 C 614.675781 407.800781 614.628906 407.800781 614.628906 407.800781 C 614.585938 407.9375 614.449219 408.027344 614.3125 408.117188 C 613.8125 408.253906 613.316406 408.34375 612.769531 408.390625 C 612.679688 408.390625 612.589844 408.390625 612.5 408.4375 C 612.316406 408.4375 612.136719 408.480469 611.953125 408.480469 C 611.910156 408.480469 611.863281 408.527344 611.773438 408.527344 C 611.726562 408.527344 611.726562 408.527344 611.683594 408.570312 C 611.183594 408.664062 610.867188 409.117188 610.957031 409.613281 C 611.046875 410.023438 611.457031 410.292969 611.863281 410.25 C 611.953125 410.25 612 410.25 612.089844 410.203125 C 612.136719 410.203125 612.136719 410.203125 612.136719 410.160156 C 612.136719 410.113281 612.273438 410.160156 612.316406 410.160156 C 612.5 410.113281 612.679688 410.023438 612.816406 409.976562 C 612.90625 409.933594 612.996094 409.886719 613.085938 409.886719 L 613.132812 409.886719 C 613.632812 409.707031 614.085938 409.570312 614.628906 409.480469 L 614.675781 409.480469 C 614.8125 409.480469 614.945312 409.523438 615.039062 409.613281 C 615.082031 409.613281 615.082031 409.660156 615.082031 409.660156 L 615.492188 409.613281 C 616.171875 411.699219 617.441406 413.558594 619.210938 414.921875 C 619.617188 415.238281 619.980469 415.507812 620.433594 415.734375 L 620.207031 416.054688 C 620.207031 416.097656 620.253906 416.097656 620.253906 416.097656 C 620.34375 416.234375 620.34375 416.417969 620.296875 416.550781 C 620.117188 417.003906 619.84375 417.460938 619.570312 417.867188 L 619.570312 417.914062 C 619.527344 418.003906 619.480469 418.046875 619.390625 418.140625 C 619.300781 418.230469 619.210938 418.410156 619.074219 418.59375 C 619.027344 418.636719 619.027344 418.683594 618.984375 418.730469 C 618.984375 418.730469 618.984375 418.773438 618.9375 418.773438 C 618.710938 419.226562 618.890625 419.773438 619.300781 420 C 619.390625 420.042969 619.527344 420.089844 619.617188 420.089844 C 619.980469 420.089844 620.296875 419.863281 620.480469 419.546875 C 620.480469 419.546875 620.480469 419.5 620.523438 419.5 C 620.523438 419.453125 620.570312 419.410156 620.613281 419.363281 C 620.660156 419.183594 620.75 419.046875 620.796875 418.863281 L 620.886719 418.59375 C 621.023438 418.09375 621.25 417.640625 621.476562 417.1875 C 621.566406 417.050781 621.703125 416.960938 621.839844 416.914062 C 621.882812 416.914062 621.882812 416.914062 621.882812 416.871094 L 622.066406 416.507812 C 623.335938 417.003906 624.652344 417.234375 626.011719 417.234375 C 626.828125 417.234375 627.644531 417.140625 628.460938 416.914062 C 628.957031 416.824219 629.457031 416.644531 629.910156 416.507812 L 630.089844 416.824219 C 630.136719 416.824219 630.136719 416.824219 630.136719 416.871094 C 630.273438 416.914062 630.410156 417.003906 630.5 417.140625 C 630.726562 417.59375 630.953125 418.046875 631.089844 418.546875 L 631.089844 418.59375 L 631.179688 418.863281 C 631.226562 419.046875 631.269531 419.226562 631.363281 419.363281 C 631.40625 419.410156 631.40625 419.453125 631.453125 419.5 C 631.453125 419.5 631.453125 419.546875 631.496094 419.546875 C 631.679688 419.863281 631.996094 420.089844 632.359375 420.089844 C 632.496094 420.089844 632.585938 420.042969 632.722656 420 C 632.902344 419.90625 633.085938 419.726562 633.128906 419.5 C 633.175781 419.273438 633.175781 419.046875 633.085938 418.820312 C 633.085938 418.773438 633.039062 418.773438 633.039062 418.773438 C 633.039062 418.730469 632.992188 418.683594 632.949219 418.636719 C 632.859375 418.457031 632.765625 418.320312 632.632812 418.183594 C 632.585938 418.09375 632.539062 418.046875 632.449219 417.957031 L 632.449219 417.867188 C 632.132812 417.460938 631.90625 417.003906 631.722656 416.550781 C 631.679688 416.417969 631.679688 416.234375 631.769531 416.097656 C 631.769531 416.054688 631.816406 416.054688 631.816406 416.054688 L 631.679688 415.691406 C 633.992188 414.285156 635.757812 412.109375 636.574219 409.523438 L 636.9375 409.570312 C 636.984375 409.570312 636.984375 409.523438 636.984375 409.523438 C 637.074219 409.433594 637.210938 409.386719 637.347656 409.386719 L 637.390625 409.386719 C 637.890625 409.480469 638.390625 409.613281 638.84375 409.796875 L 638.886719 409.796875 C 638.980469 409.839844 639.070312 409.886719 639.160156 409.886719 C 639.34375 409.976562 639.476562 410.066406 639.660156 410.113281 C 639.703125 410.113281 639.75 410.160156 639.839844 410.160156 C 639.886719 410.160156 639.886719 410.160156 639.929688 410.203125 C 640.023438 410.25 640.066406 410.25 640.15625 410.25 C 640.566406 410.25 640.929688 409.976562 641.066406 409.613281 C 641.019531 409.117188 640.65625 408.753906 640.25 408.664062 Z M 627.144531 407.257812 L 625.921875 407.847656 L 624.695312 407.257812 L 624.378906 405.941406 L 625.238281 404.855469 L 626.601562 404.855469 L 627.460938 405.941406 Z M 634.535156 404.308594 C 634.761719 405.261719 634.808594 406.214844 634.714844 407.167969 L 630.410156 405.941406 C 630 405.851562 629.773438 405.441406 629.863281 405.035156 C 629.910156 404.898438 629.957031 404.808594 630.046875 404.71875 L 633.445312 401.632812 C 633.945312 402.449219 634.308594 403.355469 634.535156 404.308594 Z M 632.085938 399.957031 L 628.367188 402.585938 C 628.050781 402.769531 627.597656 402.722656 627.371094 402.40625 C 627.28125 402.3125 627.234375 402.222656 627.234375 402.085938 L 626.964844 397.507812 C 628.957031 397.734375 630.726562 398.597656 632.085938 399.957031 Z M 623.878906 397.644531 L 624.785156 397.460938 L 624.558594 401.996094 C 624.558594 402.40625 624.195312 402.722656 623.789062 402.722656 C 623.652344 402.722656 623.5625 402.675781 623.425781 402.632812 L 619.664062 399.957031 C 620.839844 398.824219 622.292969 398.007812 623.878906 397.644531 Z M 618.347656 401.632812 L 621.703125 404.625 C 622.019531 404.898438 622.066406 405.351562 621.792969 405.667969 C 621.703125 405.804688 621.613281 405.851562 621.429688 405.898438 L 617.03125 407.167969 C 616.898438 405.261719 617.351562 403.3125 618.347656 401.632812 Z M 617.578125 409.296875 L 622.066406 408.527344 C 622.429688 408.527344 622.792969 408.753906 622.835938 409.117188 C 622.882812 409.253906 622.882812 409.433594 622.792969 409.570312 L 621.066406 413.742188 C 619.480469 412.699219 618.210938 411.109375 617.578125 409.296875 Z M 627.871094 414.921875 C 627.234375 415.054688 626.601562 415.148438 625.921875 415.148438 C 624.96875 415.148438 623.96875 414.964844 623.0625 414.691406 L 625.285156 410.65625 C 625.511719 410.386719 625.875 410.292969 626.191406 410.476562 C 626.328125 410.566406 626.417969 410.65625 626.554688 410.792969 L 628.730469 414.738281 C 628.460938 414.785156 628.1875 414.828125 627.871094 414.921875 Z M 633.402344 410.976562 C 632.722656 412.0625 631.769531 413.015625 630.679688 413.695312 L 628.914062 409.433594 C 628.820312 409.070312 629.003906 408.707031 629.320312 408.570312 C 629.457031 408.527344 629.59375 408.480469 629.730469 408.480469 L 634.261719 409.253906 C 634.035156 409.886719 633.765625 410.476562 633.402344 410.976562 Z M 633.402344 410.976562 " fill-opacity="1" fill-rule="nonzero"></path><path fill="#ffffff" d="M 825.886719 414.238281 C 826.519531 414.285156 827.199219 414.195312 827.789062 413.96875 C 828.152344 413.785156 828.378906 413.378906 828.335938 412.96875 C 828.289062 412.515625 828.015625 412.109375 827.609375 411.972656 C 826.929688 411.566406 826.15625 411.203125 825.386719 410.976562 C 824.617188 410.703125 823.9375 410.386719 823.300781 410.066406 C 822.710938 409.796875 822.214844 409.433594 821.714844 408.980469 C 821.261719 408.527344 820.945312 408.027344 820.71875 407.4375 C 820.445312 406.757812 820.355469 406.03125 820.355469 405.308594 C 820.308594 403.8125 820.988281 402.359375 822.167969 401.453125 C 823.390625 400.5 825.023438 400.046875 827.109375 400.046875 C 828.109375 400.046875 829.152344 400.136719 830.148438 400.363281 C 830.917969 400.5 831.691406 400.683594 832.460938 400.953125 L 831.597656 404.808594 C 830.964844 404.582031 830.375 404.445312 829.742188 404.265625 C 829.015625 404.082031 828.242188 404.039062 827.519531 404.039062 C 825.976562 404.039062 825.207031 404.445312 825.207031 405.308594 C 825.207031 405.488281 825.25 405.667969 825.296875 405.851562 C 825.386719 406.03125 825.523438 406.167969 825.703125 406.304688 C 825.886719 406.441406 826.15625 406.578125 826.476562 406.757812 C 826.792969 406.9375 827.246094 407.121094 827.789062 407.300781 C 828.699219 407.621094 829.605469 408.027344 830.421875 408.480469 C 831.054688 408.796875 831.597656 409.207031 832.054688 409.75 C 832.460938 410.160156 832.734375 410.65625 832.914062 411.246094 C 833.09375 411.882812 833.1875 412.515625 833.1875 413.152344 C 833.277344 414.691406 832.550781 416.191406 831.238281 417.050781 C 829.96875 417.914062 828.152344 418.367188 825.796875 418.367188 C 824.480469 418.410156 823.210938 418.273438 821.941406 417.957031 C 821.214844 417.777344 820.535156 417.550781 819.855469 417.324219 L 820.671875 413.332031 C 821.488281 413.648438 822.347656 413.921875 823.210938 414.105469 C 824.117188 414.148438 824.980469 414.238281 825.886719 414.238281 M 800.902344 409.253906 C 800.855469 407.890625 801.128906 406.53125 801.582031 405.261719 C 801.988281 404.171875 802.625 403.222656 803.441406 402.359375 C 804.210938 401.589844 805.074219 401 806.070312 400.636719 C 807.070312 400.230469 808.109375 400.046875 809.152344 400.046875 C 811.601562 400.046875 813.550781 400.816406 814.957031 402.3125 C 816.363281 403.8125 817.089844 406.03125 817.089844 408.933594 C 817.089844 409.207031 817.089844 409.523438 817.042969 409.886719 C 817.042969 410.25 817 410.523438 817 410.792969 L 805.933594 410.792969 C 806.027344 411.746094 806.523438 412.652344 807.339844 413.195312 C 808.339844 413.832031 809.515625 414.148438 810.695312 414.105469 C 811.558594 414.105469 812.464844 414.011719 813.324219 413.878906 C 814.050781 413.742188 814.777344 413.515625 815.457031 413.195312 L 816.136719 417.1875 C 815.820312 417.367188 815.457031 417.460938 815.09375 417.59375 C 814.59375 417.730469 814.097656 417.867188 813.597656 417.914062 C 813.054688 418.003906 812.507812 418.09375 811.875 418.183594 C 811.285156 418.230469 810.652344 418.273438 810.015625 418.273438 C 808.609375 418.320312 807.25 418.09375 805.933594 417.59375 C 804.847656 417.1875 803.894531 416.550781 803.078125 415.734375 C 802.308594 414.921875 801.761719 413.921875 801.402344 412.878906 C 801.082031 411.65625 800.902344 410.429688 800.902344 409.253906 M 812.375 407.394531 C 812.375 406.984375 812.28125 406.578125 812.148438 406.167969 C 812.054688 405.761719 811.828125 405.441406 811.601562 405.125 C 811.332031 404.808594 811.011719 404.535156 810.652344 404.355469 C 810.195312 404.128906 809.742188 404.039062 809.246094 404.039062 C 808.746094 404.039062 808.292969 404.128906 807.839844 404.355469 C 807.476562 404.535156 807.113281 404.761719 806.839844 405.082031 C 806.570312 405.398438 806.34375 405.761719 806.207031 406.167969 C 806.070312 406.578125 805.980469 406.984375 805.933594 407.394531 L 812.375 407.394531 M 787.617188 396.148438 L 792.511719 395.375 L 792.511719 400.457031 L 798.40625 400.457031 L 798.40625 404.535156 L 792.511719 404.535156 L 792.511719 410.613281 C 792.46875 411.472656 792.648438 412.335938 793.058594 413.0625 C 793.417969 413.648438 794.144531 413.96875 795.277344 413.96875 C 795.824219 413.96875 796.367188 413.921875 796.867188 413.832031 C 797.410156 413.742188 797.910156 413.605469 798.40625 413.421875 L 799.085938 417.234375 C 798.453125 417.503906 797.773438 417.6875 797.09375 417.867188 C 796.230469 418.046875 795.324219 418.140625 794.417969 418.140625 C 793.285156 418.183594 792.148438 418.003906 791.105469 417.59375 C 790.292969 417.277344 789.566406 416.734375 789.023438 416.097656 C 788.476562 415.417969 788.113281 414.601562 787.886719 413.742188 C 787.660156 412.742188 787.570312 411.699219 787.617188 410.703125 L 787.617188 396.148438 M 767.800781 409.253906 C 767.753906 407.890625 768.027344 406.53125 768.480469 405.261719 C 768.890625 404.171875 769.523438 403.222656 770.339844 402.359375 C 771.109375 401.589844 771.972656 401 772.96875 400.636719 C 773.96875 400.230469 775.011719 400.046875 776.054688 400.046875 C 778.5 400.046875 780.453125 400.816406 781.855469 402.3125 C 783.261719 403.8125 783.988281 406.03125 783.988281 408.933594 C 783.988281 409.207031 783.988281 409.523438 783.941406 409.886719 C 783.898438 410.25 783.898438 410.523438 783.898438 410.792969 L 772.789062 410.792969 C 772.878906 411.746094 773.378906 412.652344 774.195312 413.195312 C 775.191406 413.832031 776.371094 414.148438 777.550781 414.105469 C 778.410156 414.105469 779.316406 414.011719 780.179688 413.878906 C 780.90625 413.742188 781.628906 413.515625 782.355469 413.195312 L 783.035156 417.1875 C 782.71875 417.367188 782.355469 417.460938 781.992188 417.59375 C 781.496094 417.730469 780.996094 417.867188 780.496094 417.914062 C 779.953125 418.003906 779.410156 418.09375 778.773438 418.183594 C 778.183594 418.230469 777.550781 418.273438 776.914062 418.273438 C 775.507812 418.320312 774.148438 418.09375 772.832031 417.59375 C 771.746094 417.1875 770.792969 416.550781 769.976562 415.734375 C 769.207031 414.921875 768.664062 413.921875 768.300781 412.878906 C 767.9375 411.65625 767.753906 410.429688 767.800781 409.253906 M 779.273438 407.394531 C 779.273438 406.984375 779.183594 406.578125 779.046875 406.167969 C 778.957031 405.761719 778.726562 405.441406 778.5 405.125 C 778.230469 404.808594 777.914062 404.535156 777.550781 404.355469 C 777.097656 404.128906 776.644531 404.039062 776.144531 404.039062 C 775.644531 404.039062 775.191406 404.128906 774.738281 404.355469 C 774.375 404.535156 774.058594 404.761719 773.785156 405.082031 C 773.515625 405.398438 773.289062 405.761719 773.152344 406.167969 C 773.015625 406.578125 772.925781 406.984375 772.878906 407.394531 L 779.273438 407.394531 M 749.210938 401.042969 C 750.253906 400.773438 751.339844 400.546875 752.429688 400.363281 C 753.789062 400.136719 755.195312 400.046875 756.554688 400.046875 C 757.78125 400 759.003906 400.230469 760.183594 400.636719 C 761.089844 400.953125 761.90625 401.5 762.496094 402.222656 C 763.085938 402.949219 763.492188 403.8125 763.71875 404.71875 C 763.992188 405.761719 764.082031 406.847656 764.082031 407.9375 L 764.082031 417.6875 L 759.230469 417.6875 L 759.230469 408.570312 C 759.230469 406.984375 759.003906 405.898438 758.597656 405.214844 C 758.1875 404.582031 757.417969 404.21875 756.285156 404.21875 C 755.921875 404.21875 755.558594 404.21875 755.148438 404.265625 C 754.742188 404.265625 754.425781 404.308594 754.105469 404.355469 L 754.105469 417.6875 L 749.210938 417.6875 L 749.210938 401.042969 M 745.761719 404.808594 C 745.308594 404.71875 744.8125 404.582031 744.222656 404.492188 C 743.585938 404.355469 742.953125 404.308594 742.316406 404.308594 C 741.953125 404.308594 741.59375 404.355469 741.183594 404.398438 C 740.867188 404.445312 740.550781 404.492188 740.230469 404.582031 L 740.230469 417.777344 L 735.335938 417.777344 L 735.335938 401.363281 C 736.332031 401 737.375 400.726562 738.417969 400.5 C 739.734375 400.183594 741.09375 400.046875 742.40625 400.09375 C 742.726562 400.09375 743.042969 400.136719 743.359375 400.136719 C 743.722656 400.136719 744.085938 400.183594 744.492188 400.273438 C 744.855469 400.320312 745.21875 400.363281 745.628906 400.457031 C 745.945312 400.5 746.261719 400.589844 746.578125 400.726562 L 745.761719 404.808594 M 715.339844 409.253906 C 715.292969 407.890625 715.566406 406.53125 716.019531 405.261719 C 716.425781 404.171875 717.0625 403.222656 717.878906 402.359375 C 718.648438 401.589844 719.507812 401 720.507812 400.636719 C 721.503906 400.230469 722.546875 400.046875 723.589844 400.046875 C 726.039062 400.046875 727.988281 400.816406 729.394531 402.3125 C 730.800781 403.8125 731.527344 406.03125 731.527344 408.890625 C 731.527344 409.160156 731.527344 409.480469 731.480469 409.839844 C 731.433594 410.203125 731.433594 410.476562 731.433594 410.75 L 720.324219 410.75 C 720.417969 411.699219 720.914062 412.605469 721.730469 413.152344 C 722.730469 413.785156 723.90625 414.105469 725.085938 414.058594 C 725.949219 414.058594 726.855469 413.96875 727.714844 413.832031 C 728.441406 413.695312 729.167969 413.46875 729.847656 413.195312 L 730.527344 417.1875 C 730.210938 417.367188 729.847656 417.460938 729.484375 417.59375 C 728.988281 417.730469 728.488281 417.867188 727.988281 417.914062 C 727.445312 418.003906 726.902344 418.09375 726.265625 418.183594 C 725.675781 418.230469 725.042969 418.273438 724.40625 418.273438 C 723 418.320312 721.640625 418.09375 720.324219 417.59375 C 719.238281 417.1875 718.285156 416.550781 717.46875 415.734375 C 716.699219 414.921875 716.152344 413.921875 715.792969 412.878906 C 715.519531 411.65625 715.339844 410.476562 715.339844 409.253906 M 726.855469 407.394531 C 726.855469 406.984375 726.765625 406.578125 726.628906 406.167969 C 726.539062 405.761719 726.3125 405.441406 726.085938 405.125 C 725.8125 404.808594 725.496094 404.535156 725.132812 404.355469 C 724.679688 404.128906 724.226562 404.039062 723.726562 404.039062 C 723.226562 404.039062 722.773438 404.128906 722.320312 404.355469 C 721.957031 404.535156 721.59375 404.761719 721.324219 405.082031 C 721.050781 405.398438 720.824219 405.761719 720.6875 406.167969 C 720.550781 406.578125 720.460938 406.984375 720.417969 407.394531 L 726.855469 407.394531 M 707.402344 408.980469 C 707.402344 405.804688 706.222656 404.265625 703.910156 404.265625 C 703.414062 404.265625 702.914062 404.308594 702.414062 404.445312 C 702.007812 404.535156 701.597656 404.71875 701.234375 404.945312 L 701.234375 413.832031 C 701.460938 413.878906 701.78125 413.921875 702.144531 413.96875 C 702.503906 414.011719 702.914062 414.011719 703.367188 414.011719 C 704.546875 414.105469 705.679688 413.605469 706.40625 412.652344 C 707.085938 411.566406 707.449219 410.292969 707.402344 408.980469 M 712.390625 409.160156 C 712.390625 410.429688 712.210938 411.699219 711.753906 412.925781 C 711.394531 414.011719 710.804688 414.964844 710.03125 415.78125 C 709.214844 416.597656 708.265625 417.234375 707.222656 417.640625 C 705.996094 418.09375 704.726562 418.273438 703.414062 418.273438 C 702.824219 418.273438 702.1875 418.230469 701.554688 418.183594 C 700.917969 418.140625 700.285156 418.046875 699.648438 418.003906 C 699.058594 417.914062 698.46875 417.820312 697.878906 417.6875 C 697.292969 417.59375 696.792969 417.460938 696.382812 417.277344 L 696.382812 393.019531 L 701.28125 392.25 L 701.28125 400.863281 C 701.824219 400.636719 702.414062 400.457031 703.003906 400.320312 C 703.640625 400.183594 704.273438 400.136719 704.910156 400.136719 C 706.042969 400.136719 707.128906 400.320312 708.171875 400.816406 C 709.082031 401.226562 709.898438 401.859375 710.53125 402.632812 C 711.210938 403.492188 711.710938 404.445312 711.984375 405.488281 C 712.253906 406.621094 712.390625 407.890625 712.390625 409.160156 M 691.714844 417.140625 C 690.671875 417.414062 689.582031 417.640625 688.496094 417.777344 C 687.132812 418.003906 685.726562 418.09375 684.367188 418.09375 C 683.097656 418.140625 681.875 417.914062 680.695312 417.503906 C 679.789062 417.140625 679.015625 416.597656 678.382812 415.871094 C 677.792969 415.101562 677.386719 414.238281 677.160156 413.289062 C 676.886719 412.246094 676.796875 411.109375 676.796875 410.023438 L 676.796875 400.457031 L 681.691406 400.457031 L 681.691406 409.480469 C 681.691406 411.066406 681.917969 412.199219 682.328125 412.878906 C 682.734375 413.558594 683.507812 413.921875 684.640625 413.921875 C 685.003906 413.921875 685.367188 413.921875 685.773438 413.878906 C 686.183594 413.832031 686.5 413.832031 686.816406 413.742188 L 686.816406 400.457031 L 691.714844 400.457031 L 691.714844 417.140625 M 663.148438 406.710938 C 663.644531 406.167969 664.097656 405.625 664.644531 405.082031 C 665.140625 404.492188 665.640625 403.945312 666.140625 403.402344 C 666.640625 402.8125 667.09375 402.3125 667.5 401.816406 C 667.910156 401.316406 668.316406 400.863281 668.632812 400.5 L 674.4375 400.5 C 673.257812 401.816406 672.125 403.128906 671.035156 404.355469 C 669.902344 405.578125 668.722656 406.847656 667.410156 408.117188 C 668.136719 408.796875 668.816406 409.480469 669.449219 410.25 C 670.128906 411.066406 670.808594 411.882812 671.492188 412.789062 C 672.125 413.648438 672.761719 414.558594 673.304688 415.417969 C 673.847656 416.28125 674.300781 417.097656 674.664062 417.820312 L 669.042969 417.820312 C 668.679688 417.234375 668.269531 416.644531 667.816406 415.960938 C 667.363281 415.28125 666.867188 414.601562 666.410156 413.878906 C 665.914062 413.195312 665.367188 412.515625 664.78125 411.882812 C 664.28125 411.292969 663.738281 410.75 663.148438 410.292969 L 663.148438 417.867188 L 658.25 417.867188 L 658.25 393.019531 L 663.148438 392.25 L 663.148438 406.710938 " fill-opacity="1" fill-rule="nonzero"></path></svg>