<svg xmlns="http://www.w3.org/2000/svg" xmlns:xlink="http://www.w3.org/1999/xlink" zoomAndPan="magnify" preserveAspectRatio="xMidYMid meet" version="1.0" viewBox="628.5 389 182.5 32"><defs><clipPath id="18722c9c0e"><path d="M 628.5 389 L 811 389 L 811 421 L 628.5 421 Z M 628.5 389 " clip-rule="nonzero"></path></clipPath></defs><g clip-path="url(#18722c9c0e)"><path fill="#010202" d="M 673.730469 406.394531 L 673.730469 413.726562 L 672.425781 413.726562 L 672.425781 395.488281 L 677.113281 395.488281 C 679.261719 395.488281 680.875 395.949219 681.949219 396.910156 C 683.023438 397.832031 683.5625 399.175781 683.5625 400.902344 C 683.5625 401.707031 683.410156 402.4375 683.101562 403.089844 C 682.792969 403.742188 682.371094 404.359375 681.835938 404.820312 C 681.257812 405.316406 680.605469 405.664062 679.800781 405.972656 C 678.992188 406.238281 678.109375 406.394531 677.113281 406.394531 Z M 673.730469 405.355469 L 677.113281 405.355469 C 677.917969 405.355469 678.648438 405.242188 679.261719 405.011719 C 679.914062 404.78125 680.453125 404.472656 680.875 404.089844 C 681.296875 403.707031 681.640625 403.246094 681.871094 402.707031 C 682.101562 402.167969 682.21875 401.59375 682.21875 400.941406 C 682.21875 399.558594 681.796875 398.484375 680.914062 397.714844 C 680.066406 396.945312 678.761719 396.5625 677.074219 396.5625 L 673.695312 396.5625 L 673.695312 405.355469 Z M 687.941406 413.765625 L 687.941406 400.941406 L 688.59375 400.941406 C 688.746094 400.941406 688.863281 400.980469 688.898438 401.015625 C 688.976562 401.09375 689.015625 401.171875 689.015625 401.324219 L 689.128906 404.011719 C 689.550781 402.976562 690.089844 402.167969 690.78125 401.554688 C 691.472656 400.980469 692.316406 400.671875 693.316406 400.671875 C 693.699219 400.671875 694.046875 400.710938 694.390625 400.785156 C 694.699219 400.863281 695.042969 400.980469 695.3125 401.132812 L 695.160156 401.976562 C 695.121094 402.132812 695.042969 402.167969 694.890625 402.167969 C 694.851562 402.167969 694.773438 402.167969 694.660156 402.132812 C 694.582031 402.09375 694.429688 402.054688 694.3125 402.015625 C 694.160156 401.976562 693.96875 401.9375 693.777344 401.902344 C 693.546875 401.863281 693.316406 401.863281 693.085938 401.863281 C 692.125 401.863281 691.320312 402.167969 690.703125 402.746094 C 690.089844 403.359375 689.589844 404.203125 689.207031 405.355469 L 689.207031 413.6875 Z M 704.414062 400.710938 C 705.335938 400.710938 706.140625 400.863281 706.871094 401.171875 C 707.601562 401.476562 708.214844 401.9375 708.714844 402.515625 C 709.210938 403.089844 709.597656 403.78125 709.867188 404.589844 C 710.132812 405.394531 710.25 406.316406 710.25 407.316406 C 710.25 408.3125 710.132812 409.234375 709.867188 410.042969 C 709.597656 410.847656 709.210938 411.539062 708.714844 412.113281 C 708.214844 412.691406 707.601562 413.113281 706.871094 413.457031 C 706.140625 413.765625 705.335938 413.917969 704.414062 413.917969 C 703.492188 413.917969 702.683594 413.765625 701.957031 413.457031 C 701.226562 413.152344 700.609375 412.691406 700.113281 412.113281 C 699.613281 411.539062 699.230469 410.847656 698.960938 410.042969 C 698.691406 409.234375 698.574219 408.3125 698.574219 407.316406 C 698.574219 406.316406 698.691406 405.394531 698.960938 404.589844 C 699.230469 403.78125 699.613281 403.089844 700.113281 402.515625 C 700.609375 401.9375 701.226562 401.476562 701.957031 401.171875 C 702.644531 400.902344 703.492188 400.710938 704.414062 400.710938 Z M 704.414062 412.960938 C 705.179688 412.960938 705.832031 412.84375 706.410156 412.574219 C 706.984375 412.304688 707.445312 411.921875 707.832031 411.460938 C 708.214844 410.960938 708.484375 410.386719 708.675781 409.695312 C 708.867188 409.003906 708.945312 408.238281 708.945312 407.351562 C 708.945312 406.507812 708.867188 405.742188 708.675781 405.050781 C 708.484375 404.359375 708.214844 403.742188 707.832031 403.28125 C 707.445312 402.785156 706.945312 402.398438 706.410156 402.132812 C 705.832031 401.863281 705.179688 401.746094 704.414062 401.746094 C 703.644531 401.746094 702.992188 401.863281 702.414062 402.132812 C 701.839844 402.398438 701.378906 402.785156 700.996094 403.28125 C 700.609375 403.78125 700.34375 404.359375 700.152344 405.050781 C 699.957031 405.742188 699.84375 406.507812 699.84375 407.351562 C 699.84375 408.199219 699.957031 409.003906 700.152344 409.695312 C 700.34375 410.386719 700.648438 410.960938 700.996094 411.460938 C 701.378906 411.960938 701.878906 412.34375 702.414062 412.574219 C 702.953125 412.804688 703.644531 412.960938 704.414062 412.960938 Z M 714.472656 413.765625 L 714.472656 400.941406 L 715.125 400.941406 C 715.355469 400.941406 715.472656 401.054688 715.511719 401.246094 L 715.625 403.089844 C 715.855469 402.746094 716.125 402.4375 716.429688 402.132812 C 716.699219 401.863281 717.007812 401.59375 717.351562 401.363281 C 717.660156 401.171875 718.003906 400.980469 718.390625 400.863281 C 718.773438 400.75 719.15625 400.671875 719.542969 400.671875 C 720.464844 400.671875 721.230469 400.941406 721.769531 401.476562 C 722.34375 402.015625 722.691406 402.785156 722.921875 403.742188 C 723.074219 403.207031 723.304688 402.746094 723.574219 402.363281 C 723.84375 401.976562 724.148438 401.671875 724.535156 401.402344 C 724.878906 401.132812 725.300781 400.941406 725.722656 400.824219 C 726.144531 400.710938 726.570312 400.632812 727.03125 400.632812 C 727.644531 400.632812 728.21875 400.75 728.757812 400.941406 C 729.257812 401.132812 729.71875 401.476562 730.0625 401.863281 C 730.410156 402.285156 730.675781 402.785156 730.871094 403.398438 C 731.0625 404.011719 731.136719 404.703125 731.136719 405.472656 L 731.136719 413.652344 L 729.910156 413.652344 L 729.910156 405.546875 C 729.910156 404.28125 729.640625 403.320312 729.101562 402.667969 C 728.566406 402.015625 727.796875 401.671875 726.800781 401.671875 C 726.375 401.671875 725.914062 401.746094 725.53125 401.902344 C 725.109375 402.054688 724.765625 402.324219 724.457031 402.628906 C 724.148438 402.9375 723.878906 403.359375 723.726562 403.820312 C 723.535156 404.320312 723.457031 404.855469 723.457031 405.511719 L 723.457031 413.6875 L 722.230469 413.6875 L 722.230469 405.546875 C 722.230469 404.320312 721.960938 403.359375 721.5 402.707031 C 721 402.054688 720.269531 401.707031 719.3125 401.707031 C 718.621094 401.707031 717.96875 401.902344 717.390625 402.324219 C 716.816406 402.746094 716.277344 403.320312 715.816406 404.050781 L 715.816406 413.726562 Z M 740.8125 400.710938 C 741.542969 400.710938 742.195312 400.824219 742.8125 401.09375 C 743.425781 401.324219 743.964844 401.707031 744.425781 402.167969 C 744.882812 402.628906 745.230469 403.246094 745.5 403.9375 C 745.769531 404.625 745.882812 405.433594 745.882812 406.316406 C 745.882812 406.507812 745.84375 406.625 745.804688 406.699219 C 745.769531 406.777344 745.652344 406.816406 745.539062 406.816406 L 736.285156 406.816406 L 736.285156 407.046875 C 736.285156 408.007812 736.398438 408.851562 736.628906 409.582031 C 736.859375 410.308594 737.167969 410.925781 737.589844 411.421875 C 737.972656 411.921875 738.511719 412.304688 739.085938 412.535156 C 739.664062 412.765625 740.316406 412.921875 741.042969 412.921875 C 741.699219 412.921875 742.234375 412.84375 742.734375 412.691406 C 743.195312 412.535156 743.617188 412.382812 743.925781 412.230469 C 744.230469 412.039062 744.5 411.882812 744.691406 411.769531 C 744.882812 411.617188 745 411.539062 745.113281 411.539062 C 745.230469 411.539062 745.308594 411.578125 745.382812 411.652344 L 745.730469 412.078125 C 745.539062 412.34375 745.269531 412.574219 744.921875 412.804688 C 744.578125 413.035156 744.195312 413.226562 743.808594 413.382812 C 743.386719 413.535156 742.964844 413.652344 742.464844 413.765625 C 742.003906 413.84375 741.503906 413.917969 741.042969 413.917969 C 740.160156 413.917969 739.355469 413.765625 738.664062 413.457031 C 737.933594 413.152344 737.320312 412.691406 736.820312 412.113281 C 736.320312 411.539062 735.898438 410.808594 735.628906 409.964844 C 735.363281 409.121094 735.207031 408.160156 735.207031 407.046875 C 735.207031 406.125 735.324219 405.28125 735.59375 404.511719 C 735.859375 403.742188 736.246094 403.050781 736.707031 402.515625 C 737.203125 401.9375 737.820312 401.515625 738.511719 401.210938 C 739.085938 400.902344 739.929688 400.710938 740.8125 400.710938 Z M 740.851562 401.632812 C 740.199219 401.632812 739.585938 401.746094 739.085938 401.9375 C 738.585938 402.132812 738.125 402.4375 737.742188 402.820312 C 737.359375 403.207031 737.050781 403.667969 736.820312 404.203125 C 736.589844 404.742188 736.4375 405.355469 736.359375 406.007812 L 744.808594 406.007812 C 744.808594 405.316406 744.730469 404.703125 744.539062 404.167969 C 744.347656 403.628906 744.078125 403.167969 743.734375 402.785156 C 743.386719 402.398438 742.964844 402.09375 742.503906 401.902344 C 741.964844 401.746094 741.429688 401.632812 740.851562 401.632812 Z M 753.140625 413.957031 C 752.257812 413.957031 751.605469 413.726562 751.105469 413.226562 C 750.605469 412.730469 750.375 412 750.375 411 L 750.375 402.246094 L 748.53125 402.246094 C 748.457031 402.246094 748.378906 402.207031 748.300781 402.167969 C 748.226562 402.132812 748.226562 402.054688 748.226562 401.9375 L 748.226562 401.476562 L 750.414062 401.324219 L 750.722656 396.753906 C 750.722656 396.679688 750.757812 396.601562 750.796875 396.5625 C 750.835938 396.523438 750.875 396.523438 750.914062 396.488281 C 750.953125 396.488281 750.988281 396.449219 751.027344 396.449219 L 751.605469 396.449219 L 751.605469 401.324219 L 755.636719 401.324219 L 755.636719 402.246094 L 751.605469 402.246094 L 751.605469 410.925781 C 751.605469 411.269531 751.644531 411.578125 751.757812 411.847656 C 751.835938 412.113281 751.988281 412.304688 752.140625 412.460938 C 752.296875 412.613281 752.488281 412.730469 752.71875 412.804688 C 752.949219 412.882812 753.179688 412.921875 753.410156 412.921875 C 753.714844 412.921875 753.984375 412.882812 754.214844 412.765625 C 754.40625 412.691406 754.597656 412.574219 754.792969 412.460938 C 754.945312 412.34375 755.097656 412.269531 755.175781 412.152344 C 755.289062 412.078125 755.367188 412 755.40625 412 C 755.484375 412 755.558594 412.039062 755.597656 412.113281 L 755.945312 412.652344 C 755.636719 412.996094 755.214844 413.304688 754.714844 413.535156 C 754.214844 413.84375 753.679688 413.957031 753.140625 413.957031 Z M 759.859375 413.765625 L 759.859375 395.027344 L 761.089844 395.027344 L 761.089844 403.128906 C 761.664062 402.398438 762.355469 401.824219 763.125 401.402344 C 763.890625 400.980469 764.738281 400.75 765.695312 400.75 C 766.386719 400.75 767.039062 400.863281 767.539062 401.09375 C 768.078125 401.324219 768.539062 401.632812 768.882812 402.054688 C 769.230469 402.476562 769.5 402.976562 769.691406 403.589844 C 769.882812 404.167969 769.957031 404.855469 769.957031 405.585938 L 769.957031 413.765625 L 768.730469 413.765625 L 768.730469 405.546875 C 768.730469 404.359375 768.460938 403.398438 767.921875 402.707031 C 767.386719 402.015625 766.542969 401.671875 765.390625 401.671875 C 764.542969 401.671875 763.777344 401.902344 763.046875 402.324219 C 762.316406 402.746094 761.664062 403.359375 761.128906 404.089844 L 761.128906 413.6875 L 759.859375 413.6875 Z M 779.671875 400.710938 C 780.402344 400.710938 781.054688 400.824219 781.671875 401.09375 C 782.285156 401.324219 782.824219 401.707031 783.28125 402.167969 C 783.742188 402.628906 784.089844 403.246094 784.359375 403.9375 C 784.628906 404.625 784.742188 405.433594 784.742188 406.316406 C 784.742188 406.507812 784.703125 406.625 784.664062 406.699219 C 784.628906 406.777344 784.511719 406.816406 784.398438 406.816406 L 775.144531 406.816406 L 775.144531 407.046875 C 775.144531 408.007812 775.257812 408.851562 775.488281 409.582031 C 775.71875 410.308594 776.027344 410.925781 776.449219 411.421875 C 776.832031 411.921875 777.371094 412.304688 777.945312 412.535156 C 778.523438 412.765625 779.175781 412.921875 779.902344 412.921875 C 780.558594 412.921875 781.09375 412.84375 781.59375 412.691406 C 782.054688 412.535156 782.476562 412.382812 782.785156 412.230469 C 783.089844 412.039062 783.359375 411.882812 783.550781 411.769531 C 783.742188 411.617188 783.859375 411.539062 783.972656 411.539062 C 784.089844 411.539062 784.167969 411.578125 784.242188 411.652344 L 784.589844 412.078125 C 784.398438 412.34375 784.128906 412.574219 783.78125 412.804688 C 783.4375 413.035156 783.050781 413.226562 782.667969 413.382812 C 782.246094 413.535156 781.824219 413.652344 781.324219 413.765625 C 780.863281 413.84375 780.363281 413.917969 779.902344 413.917969 C 779.019531 413.917969 778.214844 413.765625 777.523438 413.457031 C 776.792969 413.152344 776.179688 412.691406 775.679688 412.113281 C 775.179688 411.539062 774.757812 410.808594 774.488281 409.964844 C 774.222656 409.121094 774.066406 408.160156 774.066406 407.046875 C 774.066406 406.125 774.183594 405.28125 774.453125 404.511719 C 774.71875 403.742188 775.105469 403.050781 775.566406 402.515625 C 776.0625 401.9375 776.679688 401.515625 777.371094 401.210938 C 777.945312 400.902344 778.753906 400.710938 779.671875 400.710938 Z M 779.671875 401.632812 C 779.019531 401.632812 778.40625 401.746094 777.90625 401.9375 C 777.40625 402.132812 776.949219 402.4375 776.5625 402.820312 C 776.179688 403.207031 775.871094 403.667969 775.640625 404.203125 C 775.410156 404.742188 775.257812 405.355469 775.179688 406.007812 L 783.628906 406.007812 C 783.628906 405.316406 783.550781 404.703125 783.359375 404.167969 C 783.167969 403.628906 782.898438 403.167969 782.554688 402.785156 C 782.207031 402.398438 781.785156 402.09375 781.324219 401.902344 C 780.789062 401.746094 780.25 401.632812 779.671875 401.632812 Z M 789.386719 400.941406 L 789.386719 409.121094 C 789.386719 410.308594 789.65625 411.269531 790.234375 411.960938 C 790.769531 412.652344 791.617188 412.996094 792.765625 412.996094 C 793.613281 412.996094 794.378906 412.765625 795.109375 412.34375 C 795.839844 411.921875 796.492188 411.347656 797.066406 410.578125 L 797.066406 400.941406 L 798.296875 400.941406 L 798.296875 413.765625 L 797.605469 413.765625 C 797.375 413.765625 797.261719 413.652344 797.222656 413.421875 L 797.105469 411.5 C 796.53125 412.230469 795.839844 412.84375 795.03125 413.265625 C 794.265625 413.726562 793.382812 413.917969 792.421875 413.917969 C 791.691406 413.917969 791.078125 413.804688 790.539062 413.574219 C 790.003906 413.34375 789.582031 413.035156 789.195312 412.613281 C 788.851562 412.191406 788.582031 411.691406 788.390625 411.078125 C 788.199219 410.5 788.121094 409.8125 788.121094 409.082031 L 788.121094 400.941406 Z M 810.007812 402.515625 C 809.929688 402.628906 809.855469 402.707031 809.738281 402.707031 C 809.664062 402.707031 809.507812 402.667969 809.355469 402.554688 C 809.203125 402.4375 809.011719 402.324219 808.78125 402.207031 C 808.550781 402.09375 808.242188 401.9375 807.898438 401.863281 C 807.550781 401.746094 807.089844 401.707031 806.589844 401.707031 C 806.128906 401.707031 805.707031 401.785156 805.324219 401.902344 C 804.941406 402.015625 804.632812 402.207031 804.363281 402.4375 C 804.09375 402.667969 803.902344 402.898438 803.75 403.207031 C 803.597656 403.511719 803.519531 403.820312 803.519531 404.128906 C 803.519531 404.511719 803.632812 404.855469 803.828125 405.125 C 804.019531 405.394531 804.285156 405.625 804.632812 405.816406 C 804.976562 406.007812 805.363281 406.164062 805.785156 406.316406 C 806.207031 406.46875 806.628906 406.585938 807.089844 406.738281 C 807.550781 406.890625 807.972656 407.046875 808.394531 407.199219 C 808.816406 407.351562 809.203125 407.582031 809.546875 407.8125 C 809.894531 408.042969 810.160156 408.351562 810.355469 408.734375 C 810.546875 409.082031 810.660156 409.542969 810.660156 410.042969 C 810.660156 410.617188 810.546875 411.117188 810.355469 411.617188 C 810.160156 412.078125 809.855469 412.5 809.472656 412.882812 C 809.085938 413.226562 808.625 413.496094 808.050781 413.726562 C 807.472656 413.917969 806.859375 414.035156 806.128906 414.035156 C 805.246094 414.035156 804.441406 413.882812 803.789062 413.613281 C 803.136719 413.34375 802.558594 412.960938 802.023438 412.5 L 802.328125 412.078125 C 802.367188 412 802.40625 411.960938 802.480469 411.921875 C 802.519531 411.882812 802.597656 411.882812 802.710938 411.882812 C 802.828125 411.882812 802.980469 411.960938 803.136719 412.078125 C 803.289062 412.230469 803.519531 412.34375 803.789062 412.535156 C 804.058594 412.691406 804.363281 412.84375 804.746094 412.996094 C 805.132812 413.152344 805.632812 413.191406 806.207031 413.191406 C 806.746094 413.191406 807.207031 413.113281 807.628906 412.960938 C 808.050781 412.804688 808.394531 412.613281 808.664062 412.34375 C 808.933594 412.078125 809.164062 411.769531 809.277344 411.421875 C 809.433594 411.078125 809.507812 410.695312 809.507812 410.308594 C 809.507812 409.886719 809.394531 409.542969 809.203125 409.234375 C 809.011719 408.964844 808.742188 408.695312 808.394531 408.503906 C 808.050781 408.3125 807.667969 408.121094 807.242188 408.007812 C 806.820312 407.851562 806.398438 407.738281 805.9375 407.582031 C 805.476562 407.429688 805.054688 407.316406 804.632812 407.121094 C 804.210938 406.96875 803.828125 406.777344 803.480469 406.507812 C 803.136719 406.277344 802.867188 405.972656 802.675781 405.585938 C 802.480469 405.242188 802.367188 404.78125 802.367188 404.242188 C 802.367188 403.78125 802.480469 403.359375 802.675781 402.9375 C 802.867188 402.515625 803.171875 402.132812 803.519531 401.824219 C 803.863281 401.515625 804.324219 401.246094 804.863281 401.054688 C 805.402344 400.863281 805.976562 400.785156 806.628906 400.785156 C 807.398438 400.785156 808.089844 400.902344 808.703125 401.132812 C 809.316406 401.363281 809.855469 401.707031 810.355469 402.167969 Z M 644.664062 389.039062 C 653.304688 389.039062 660.371094 396.027344 660.371094 404.550781 C 660.371094 413.191406 653.304688 420.0625 644.472656 420.0625 C 635.871094 420.0625 628.882812 413.074219 628.882812 404.394531 C 628.921875 395.949219 635.988281 389.039062 644.664062 389.039062 Z M 639.902344 394.453125 C 640.09375 395.410156 639.902344 396.332031 639.632812 397.214844 C 639.441406 397.832031 639.136719 398.40625 638.980469 399.058594 C 638.714844 400.097656 638.40625 401.132812 638.289062 402.167969 C 638.136719 403.667969 638.714844 405.011719 639.75 406.316406 L 635.066406 405.316406 C 635.066406 405.472656 635.066406 405.511719 635.066406 405.585938 C 635.527344 406.890625 636.292969 407.96875 637.175781 409.003906 C 637.253906 409.121094 637.484375 409.15625 637.636719 409.15625 C 642.324219 409.15625 647.007812 409.15625 651.691406 409.15625 C 651.84375 409.15625 652.039062 409.121094 652.113281 409.042969 C 653.113281 408.007812 653.878906 406.816406 654.378906 405.28125 L 649.425781 406.238281 C 649.773438 405.585938 650.117188 405.050781 650.347656 404.433594 C 651.078125 402.324219 650.769531 400.289062 649.734375 398.367188 C 648.886719 396.832031 648.121094 395.296875 648.542969 393.414062 C 647.660156 394.296875 647.3125 395.410156 647.082031 396.5625 C 646.851562 397.714844 646.738281 398.867188 646.585938 400.019531 C 646.546875 399.980469 646.546875 399.941406 646.507812 399.941406 C 646.46875 399.828125 646.46875 399.710938 646.46875 399.558594 C 646.355469 397.675781 646.007812 395.832031 645.203125 394.105469 C 644.742188 393.070312 644.242188 392.03125 644.703125 390.804688 C 644.394531 390.957031 644.089844 391.148438 643.898438 391.378906 C 643.28125 392.109375 643.011719 392.953125 642.9375 393.875 C 642.898438 394.683594 642.820312 395.488281 642.667969 396.257812 C 642.515625 397.101562 642.246094 397.90625 641.707031 398.675781 C 641.363281 397.101562 641.363281 395.488281 639.902344 394.453125 Z M 651.960938 410.617188 L 637.292969 410.617188 L 637.292969 413.152344 L 651.960938 413.152344 Z M 640.171875 414.457031 C 640.171875 416.570312 642.324219 418.144531 645.011719 418.027344 C 647.238281 417.949219 649.195312 416.183594 649.003906 414.457031 Z M 640.171875 414.457031 " fill-opacity="1" fill-rule="nonzero"></path></g></svg>