<svg xmlns="http://www.w3.org/2000/svg" xmlns:xlink="http://www.w3.org/1999/xlink" zoomAndPan="magnify" preserveAspectRatio="xMidYMid meet" version="1.0" viewBox="618.99 378 198.4 53.68"><path fill="#ffffff" d="M 618.992188 420.511719 L 630.941406 420.511719 L 627.238281 431.6875 L 618.992188 431.6875 Z M 618.992188 399.257812 L 637.976562 399.257812 L 634.292969 410.433594 L 618.992188 410.433594 Z M 618.992188 378.003906 L 645.011719 378.003906 L 641.3125 389.179688 L 618.992188 389.179688 Z M 656.789062 378.003906 L 686.488281 378.003906 L 686.488281 389.179688 L 653.085938 389.179688 Z M 646.050781 410.429688 L 649.753906 399.253906 L 686.488281 399.253906 L 686.488281 410.429688 Z M 642.714844 420.503906 L 686.488281 420.503906 L 686.488281 431.683594 L 639.011719 431.683594 Z M 642.714844 420.503906 " fill-opacity="1" fill-rule="evenodd"></path><path fill="#ffffff" d="M 744.378906 410.636719 L 747.253906 401.941406 L 749.6875 401.949219 L 745.855469 413.042969 L 742.828125 413.042969 L 739.214844 401.941406 L 741.738281 401.941406 Z M 777.902344 396.371094 L 777.902344 410.886719 L 781.257812 410.886719 L 781.257812 413.042969 L 775.523438 413.042969 L 775.523438 398.375 L 773.15625 398.375 L 773.15625 396.371094 Z M 766.519531 403.996094 C 766.566406 403.808594 767.070312 401.84375 769.015625 401.84375 L 772.355469 401.84375 L 772.355469 404.246094 L 768.65625 404.246094 C 767.742188 404.246094 766.667969 405.015625 766.667969 406.269531 L 766.660156 413.046875 L 764.210938 413.046875 L 764.210938 401.914062 L 766.476562 401.910156 Z M 800.855469 406.28125 C 802.640625 406.472656 805.339844 406.808594 805.484375 409.566406 C 805.554688 410.859375 805.039062 411.667969 804.597656 412.117188 C 803.457031 413.28125 801.640625 413.355469 800.378906 413.3125 C 797.914062 413.226562 795.789062 412.199219 795.703125 412.152344 L 796.730469 410.058594 C 796.746094 410.066406 798.390625 410.953125 800.34375 411.101562 C 803.261719 411.320312 803.285156 410.171875 803.261719 409.683594 C 803.226562 409.035156 802.648438 408.832031 800.582031 408.589844 C 798.75 408.375 795.980469 408.046875 795.914062 405.148438 C 795.894531 404.253906 796.207031 403.460938 796.824219 402.847656 C 797.652344 402.03125 799 401.59375 800.527344 401.648438 C 802.863281 401.730469 804.871094 402.351562 804.953125 402.375 L 804.261719 404.601562 C 803.015625 404.246094 801.742188 404.039062 800.445312 403.980469 C 799.597656 403.949219 798.820312 404.160156 798.464844 404.507812 C 798.304688 404.660156 798.238281 404.847656 798.242188 405.097656 C 798.261719 405.773438 798.605469 406.011719 800.859375 406.277344 Z M 817.390625 409.546875 C 817.460938 410.839844 816.945312 411.648438 816.503906 412.097656 C 815.363281 413.261719 813.546875 413.335938 812.285156 413.292969 C 809.820312 413.207031 807.699219 412.179688 807.609375 412.132812 L 808.558594 410.203125 C 808.574219 410.210938 810.300781 410.9375 812.25 411.082031 C 815.167969 411.300781 815.191406 410.152344 815.167969 409.664062 C 815.132812 409.019531 814.554688 408.8125 812.492188 408.570312 C 810.65625 408.355469 807.886719 408.027344 807.820312 405.128906 C 807.800781 404.234375 808.113281 403.441406 808.730469 402.828125 C 809.558594 402.015625 810.90625 401.574219 812.433594 401.628906 C 813.9375 401.695312 815.414062 401.933594 816.859375 402.355469 L 816.167969 404.578125 C 816.148438 404.574219 814.363281 403.957031 812.351562 403.957031 C 810.578125 403.957031 810.148438 404.523438 810.148438 405.074219 C 810.148438 405.75 810.507812 405.988281 812.761719 406.253906 C 814.546875 406.445312 817.25 406.78125 817.394531 409.539062 Z M 709.21875 406.28125 C 711.003906 406.472656 713.707031 406.808594 713.851562 409.566406 C 713.917969 410.859375 713.40625 411.667969 712.964844 412.117188 C 711.820312 413.28125 710.007812 413.355469 708.746094 413.3125 C 706.277344 413.226562 704.15625 412.199219 704.070312 412.152344 L 705.09375 410.058594 C 705.109375 410.066406 706.757812 410.953125 708.707031 411.101562 C 711.628906 411.320312 711.648438 410.171875 711.628906 409.683594 C 711.59375 409.035156 711.011719 408.832031 708.949219 408.589844 C 707.117188 408.375 704.34375 408.046875 704.277344 405.148438 C 704.257812 404.253906 704.570312 403.460938 705.191406 402.847656 C 706.015625 402.03125 707.363281 401.59375 708.890625 401.648438 C 710.394531 401.714844 711.871094 401.953125 713.320312 402.375 L 712.628906 404.601562 C 712.609375 404.597656 710.824219 404.050781 708.8125 403.980469 C 707.960938 403.949219 707.183594 404.160156 706.828125 404.507812 C 706.667969 404.660156 706.601562 404.847656 706.605469 405.097656 C 706.621094 405.773438 706.96875 406.011719 709.222656 406.277344 Z M 788.316406 401.636719 C 793.5625 401.636719 793.5625 406.972656 793.5625 406.972656 L 793.5625 408.402344 L 785.230469 408.402344 C 785.230469 409.757812 786.414062 411.21875 788.609375 411.21875 C 790.445312 411.21875 792.347656 410.476562 792.347656 410.476562 L 792.953125 412.386719 C 792.953125 412.386719 790.613281 413.320312 788.414062 413.320312 C 783.164062 413.320312 782.777344 408.65625 782.777344 407.394531 C 782.777344 406.132812 783.660156 401.632812 788.316406 401.632812 Z M 791.296875 406.390625 C 791.296875 406.390625 791.402344 403.753906 788.316406 403.753906 C 785.523438 403.753906 785.199219 406.390625 785.199219 406.390625 Z M 756.445312 401.640625 C 761.691406 401.640625 761.691406 406.980469 761.691406 406.980469 L 761.691406 408.40625 L 753.359375 408.40625 C 753.359375 409.765625 754.542969 411.222656 756.738281 411.222656 C 758.574219 411.222656 760.476562 410.484375 760.476562 410.484375 L 761.082031 412.390625 C 761.082031 412.390625 758.742188 413.324219 756.542969 413.324219 C 751.292969 413.324219 750.90625 408.660156 750.90625 407.398438 C 750.90625 406.136719 751.789062 401.640625 756.445312 401.640625 Z M 759.425781 406.394531 C 759.425781 406.394531 759.53125 403.757812 756.445312 403.757812 C 753.65625 403.757812 753.328125 406.394531 753.328125 406.394531 Z M 721.242188 401.640625 C 726.488281 401.640625 726.488281 406.980469 726.488281 406.980469 L 726.488281 408.40625 L 718.15625 408.40625 C 718.15625 409.765625 719.339844 411.222656 721.535156 411.222656 C 723.371094 411.222656 725.273438 410.484375 725.273438 410.484375 L 725.878906 412.390625 C 725.878906 412.390625 723.542969 413.324219 721.339844 413.324219 C 716.09375 413.324219 715.703125 408.660156 715.703125 407.398438 C 715.703125 406.136719 716.589844 401.640625 721.242188 401.640625 Z M 724.222656 406.394531 C 724.222656 406.394531 724.332031 403.757812 721.242188 403.757812 C 718.453125 403.757812 718.128906 406.394531 718.128906 406.394531 Z M 731.226562 404 C 731.277344 403.8125 731.777344 401.84375 733.722656 401.84375 L 737.0625 401.84375 L 737.0625 404.25 L 733.363281 404.25 C 732.449219 404.25 731.375 405.015625 731.375 406.269531 L 731.363281 413.046875 L 728.917969 413.046875 L 728.917969 401.917969 L 731.179688 401.914062 Z M 731.226562 404 " fill-opacity="1" fill-rule="evenodd"></path></svg>