<svg xmlns="http://www.w3.org/2000/svg" xmlns:xlink="http://www.w3.org/1999/xlink" zoomAndPan="magnify" preserveAspectRatio="xMidYMid meet" version="1.0" viewBox="604.5 357 229.7 96.75"><defs><clipPath id="1e96675b52"><path d="M 604.5 357 L 701 357 L 701 453.75 L 604.5 453.75 Z M 604.5 357 " clip-rule="nonzero"></path></clipPath></defs><path fill="#ffffff" d="M 742.164062 389.738281 C 737.125 389.738281 733.375 392.210938 733.375 398.160156 C 733.375 402.644531 735.847656 405.757812 741.890625 405.757812 C 747.011719 405.757812 750.492188 402.738281 750.492188 397.976562 C 750.492188 392.574219 747.378906 389.738281 742.164062 389.738281 Z M 732.09375 431.761719 C 730.902344 433.222656 729.714844 434.777344 729.714844 436.609375 C 729.714844 440.269531 734.378906 441.371094 740.789062 441.371094 C 746.097656 441.371094 753.332031 441 753.332031 436.0625 C 753.332031 433.128906 749.851562 432.949219 745.457031 432.671875 Z M 759.191406 390.011719 C 760.835938 392.117188 762.578125 395.050781 762.578125 399.261719 C 762.578125 409.421875 754.613281 415.371094 743.082031 415.371094 C 740.148438 415.371094 737.492188 415.003906 735.847656 414.546875 L 732.824219 419.398438 L 741.796875 419.949219 C 757.632812 420.957031 766.96875 421.417969 766.96875 433.585938 C 766.96875 444.117188 757.726562 450.0625 741.796875 450.0625 C 725.226562 450.0625 718.910156 445.851562 718.910156 438.621094 C 718.910156 434.5 720.742188 432.308594 723.945312 429.28125 C 720.921875 428.003906 719.917969 425.71875 719.917969 423.246094 C 719.917969 421.230469 720.921875 419.398438 722.574219 417.660156 C 724.21875 415.921875 726.050781 414.179688 728.246094 412.167969 C 723.761719 409.96875 720.375 405.207031 720.375 398.433594 C 720.375 387.90625 727.332031 380.679688 741.335938 380.679688 C 745.273438 380.679688 747.65625 381.039062 749.761719 381.59375 L 767.613281 381.59375 L 767.613281 389.371094 Z M 783.71875 373.378906 C 778.5 373.378906 775.480469 370.355469 775.480469 365.132812 C 775.480469 359.921875 778.5 357.082031 783.71875 357.082031 C 789.027344 357.082031 792.050781 359.921875 792.050781 365.132812 C 792.050781 370.355469 789.027344 373.378906 783.71875 373.378906 Z M 771.90625 428.390625 L 771.90625 421.164062 L 776.578125 420.523438 C 777.859375 420.339844 778.042969 420.066406 778.042969 418.691406 L 778.042969 391.777344 C 778.042969 390.773438 777.769531 390.128906 776.851562 389.855469 L 771.90625 388.113281 L 772.914062 380.703125 L 791.867188 380.703125 L 791.867188 418.691406 C 791.867188 420.15625 791.953125 420.339844 793.332031 420.523438 L 798 421.164062 L 798 428.390625 Z M 834.203125 424.84375 C 830.265625 426.765625 824.496094 428.503906 819.277344 428.503906 C 808.382812 428.503906 804.265625 424.113281 804.265625 413.765625 L 804.265625 389.78125 C 804.265625 389.234375 804.265625 388.867188 803.53125 388.867188 L 797.125 388.867188 L 797.125 380.71875 C 805.179688 379.800781 808.382812 375.769531 809.390625 365.792969 L 818.089844 365.792969 L 818.089844 378.796875 C 818.089844 379.433594 818.089844 379.710938 818.820312 379.710938 L 831.726562 379.710938 L 831.726562 388.863281 L 818.089844 388.863281 L 818.089844 410.742188 C 818.089844 416.144531 819.371094 418.246094 824.3125 418.246094 C 826.878906 418.246094 829.53125 417.609375 831.726562 416.785156 L 834.203125 424.84375 " fill-opacity="1" fill-rule="nonzero"></path><g clip-path="url(#1e96675b52)"><path fill="#ffffff" d="M 698.558594 400.820312 L 656.703125 358.964844 C 656.417969 358.679688 656.105469 358.421875 655.765625 358.195312 C 655.429688 357.972656 655.074219 357.78125 654.699219 357.625 C 654.324219 357.472656 653.9375 357.355469 653.542969 357.273438 C 653.144531 357.195312 652.742188 357.15625 652.335938 357.15625 C 651.933594 357.15625 651.53125 357.195312 651.132812 357.273438 C 650.734375 357.355469 650.347656 357.472656 649.972656 357.625 C 649.601562 357.78125 649.246094 357.972656 648.90625 358.195312 C 648.570312 358.421875 648.257812 358.679688 647.972656 358.964844 L 639.28125 367.65625 L 650.304688 378.683594 C 650.953125 378.460938 651.621094 378.335938 652.304688 378.300781 C 652.988281 378.265625 653.660156 378.328125 654.328125 378.484375 C 654.996094 378.636719 655.628906 378.882812 656.226562 379.214844 C 656.824219 379.546875 657.367188 379.957031 657.847656 380.441406 C 658.335938 380.925781 658.746094 381.472656 659.078125 382.074219 C 659.410156 382.675781 659.65625 383.3125 659.808594 383.984375 C 659.964844 384.65625 660.023438 385.335938 659.984375 386.023438 C 659.949219 386.710938 659.816406 387.378906 659.589844 388.027344 L 670.214844 398.65625 C 672.785156 397.769531 675.753906 398.34375 677.804688 400.398438 C 678.148438 400.742188 678.453125 401.109375 678.71875 401.511719 C 678.988281 401.914062 679.214844 402.335938 679.398438 402.78125 C 679.582031 403.226562 679.722656 403.6875 679.816406 404.160156 C 679.910156 404.632812 679.957031 405.109375 679.957031 405.59375 C 679.957031 406.074219 679.910156 406.554688 679.816406 407.027344 C 679.722656 407.5 679.582031 407.960938 679.398438 408.40625 C 679.214844 408.851562 678.988281 409.273438 678.71875 409.675781 C 678.453125 410.074219 678.148438 410.445312 677.804688 410.789062 C 677.507812 411.085938 677.1875 411.355469 676.84375 411.601562 C 676.496094 411.84375 676.136719 412.054688 675.753906 412.234375 C 675.375 412.414062 674.980469 412.5625 674.574219 412.675781 C 674.167969 412.789062 673.753906 412.863281 673.335938 412.90625 C 672.914062 412.949219 672.496094 412.953125 672.074219 412.921875 C 671.65625 412.890625 671.238281 412.824219 670.832031 412.722656 C 670.421875 412.621094 670.023438 412.484375 669.640625 412.316406 C 669.253906 412.144531 668.886719 411.941406 668.535156 411.707031 C 668.183594 411.476562 667.855469 411.214844 667.550781 410.921875 C 667.246094 410.632812 666.964844 410.316406 666.714844 409.980469 C 666.460938 409.640625 666.242188 409.285156 666.050781 408.910156 C 665.863281 408.53125 665.707031 408.140625 665.582031 407.738281 C 665.460938 407.335938 665.371094 406.925781 665.320312 406.507812 C 665.265625 406.089844 665.25 405.667969 665.269531 405.246094 C 665.289062 404.828125 665.347656 404.410156 665.4375 404 C 665.53125 403.585938 665.65625 403.1875 665.816406 402.796875 L 655.90625 392.886719 L 655.90625 418.964844 C 656.628906 419.324219 657.277344 419.785156 657.847656 420.355469 C 658.191406 420.695312 658.496094 421.066406 658.761719 421.46875 C 659.03125 421.871094 659.257812 422.292969 659.441406 422.738281 C 659.625 423.183594 659.765625 423.644531 659.859375 424.117188 C 659.953125 424.589844 660 425.066406 660 425.550781 C 660 426.03125 659.953125 426.511719 659.859375 426.984375 C 659.765625 427.457031 659.625 427.917969 659.441406 428.363281 C 659.257812 428.808594 659.03125 429.230469 658.761719 429.632812 C 658.496094 430.035156 658.191406 430.40625 657.847656 430.746094 C 654.980469 433.617188 650.328125 433.617188 647.460938 430.746094 C 647.246094 430.53125 647.046875 430.308594 646.863281 430.070312 C 646.675781 429.832031 646.507812 429.582031 646.351562 429.324219 C 646.195312 429.066406 646.058594 428.800781 645.9375 428.523438 C 645.8125 428.25 645.710938 427.964844 645.621094 427.675781 C 645.535156 427.390625 645.464844 427.097656 645.414062 426.800781 C 645.363281 426.503906 645.328125 426.203125 645.316406 425.902344 C 645.300781 425.601562 645.304688 425.300781 645.328125 425 C 645.351562 424.699219 645.390625 424.402344 645.449219 424.105469 C 645.507812 423.808594 645.585938 423.519531 645.683594 423.234375 C 645.777344 422.945312 645.890625 422.667969 646.019531 422.394531 C 646.148438 422.121094 646.292969 421.859375 646.457031 421.605469 C 646.617188 421.351562 646.792969 421.105469 646.984375 420.875 C 647.175781 420.640625 647.382812 420.421875 647.601562 420.214844 C 647.820312 420.007812 648.050781 419.816406 648.292969 419.636719 C 648.535156 419.457031 648.789062 419.292969 649.050781 419.144531 C 649.316406 419 649.585938 418.867188 649.863281 418.753906 L 649.863281 392.433594 C 648.953125 392.058594 648.152344 391.527344 647.460938 390.828125 C 645.285156 388.65625 644.765625 385.46875 645.878906 382.796875 L 635.007812 371.925781 L 606.308594 400.625 C 606.023438 400.910156 605.765625 401.222656 605.542969 401.5625 C 605.316406 401.898438 605.125 402.253906 604.972656 402.628906 C 604.816406 403.003906 604.699219 403.390625 604.621094 403.789062 C 604.539062 404.183594 604.5 404.585938 604.5 404.992188 C 604.5 405.398438 604.539062 405.800781 604.621094 406.195312 C 604.699219 406.59375 604.816406 406.980469 604.972656 407.355469 C 605.125 407.730469 605.316406 408.085938 605.542969 408.421875 C 605.765625 408.761719 606.023438 409.074219 606.308594 409.359375 L 648.167969 451.214844 C 648.453125 451.5 648.765625 451.757812 649.101562 451.980469 C 649.441406 452.207031 649.796875 452.398438 650.171875 452.550781 C 650.542969 452.707031 650.929688 452.824219 651.328125 452.902344 C 651.726562 452.984375 652.128906 453.023438 652.53125 453.023438 C 652.9375 453.023438 653.339844 452.984375 653.738281 452.902344 C 654.132812 452.824219 654.519531 452.707031 654.894531 452.550781 C 655.269531 452.398438 655.625 452.207031 655.960938 451.980469 C 656.300781 451.757812 656.613281 451.5 656.898438 451.214844 L 698.558594 409.554688 C 698.847656 409.265625 699.101562 408.957031 699.328125 408.617188 C 699.554688 408.28125 699.742188 407.925781 699.898438 407.550781 C 700.054688 407.175781 700.171875 406.789062 700.25 406.390625 C 700.328125 405.992188 700.367188 405.59375 700.367188 405.1875 C 700.367188 404.78125 700.328125 404.378906 700.25 403.980469 C 700.171875 403.585938 700.054688 403.199219 699.898438 402.824219 C 699.742188 402.449219 699.554688 402.09375 699.328125 401.753906 C 699.101562 401.417969 698.847656 401.105469 698.558594 400.820312 " fill-opacity="1" fill-rule="nonzero"></path></g></svg>