<svg xmlns="http://www.w3.org/2000/svg" xmlns:xlink="http://www.w3.org/1999/xlink" zoomAndPan="magnify" preserveAspectRatio="xMidYMid meet" version="1.0" viewBox="604.5 377.25 230.5 55.84"><defs><clipPath id="e06882001b"><path d="M 604.5 393 L 802 393 L 802 427 L 604.5 427 Z M 604.5 393 " clip-rule="nonzero"></path></clipPath><clipPath id="e28b786d18"><path d="M 709 402 L 735 402 L 735 432.75 L 709 432.75 Z M 709 402 " clip-rule="nonzero"></path></clipPath><clipPath id="1d29fb9033"><path d="M 801 377.25 L 835 377.25 L 835 411 L 801 411 Z M 801 377.25 " clip-rule="nonzero"></path></clipPath></defs><g clip-path="url(#e06882001b)"><path fill="#ffffff" d="M 605.730469 420.003906 C 607.007812 420.785156 609.652344 421.695312 611.699219 421.695312 C 613.800781 421.695312 614.664062 420.964844 614.664062 419.828125 C 614.664062 418.691406 613.984375 418.136719 611.382812 417.273438 C 606.777344 415.722656 605.003906 413.214844 605.046875 410.566406 C 605.046875 406.417969 608.605469 403.273438 614.117188 403.273438 C 616.71875 403.273438 619.039062 403.863281 620.410156 404.546875 L 619.179688 409.335938 C 618.179688 408.785156 616.261719 408.058594 614.347656 408.058594 C 612.660156 408.058594 611.703125 408.742188 611.703125 409.882812 C 611.703125 410.929688 612.574219 411.480469 615.304688 412.4375 C 619.542969 413.894531 621.324219 416.03125 621.367188 419.320312 C 621.367188 423.46875 618.085938 426.523438 611.703125 426.523438 C 608.785156 426.523438 606.1875 425.882812 604.5 424.972656 Z M 645.761719 414.675781 C 645.761719 422.835938 639.972656 426.578125 634 426.578125 C 627.476562 426.574219 622.46875 422.289062 622.46875 415.082031 C 622.46875 407.875 627.210938 403.277344 634.371094 403.277344 C 641.207031 403.277344 645.761719 407.972656 645.761719 414.675781 Z M 629.621094 414.902344 C 629.621094 418.730469 631.21875 421.601562 634.183594 421.601562 C 636.878906 421.601562 638.605469 418.90625 638.605469 414.902344 C 638.605469 411.574219 637.332031 408.199219 634.183594 408.199219 C 630.855469 408.199219 629.621094 411.617188 629.621094 414.902344 Z M 648.234375 410.890625 C 648.234375 408.109375 648.140625 405.738281 648.050781 403.78125 L 654.070312 403.78125 L 654.386719 406.828125 L 654.527344 406.828125 C 655.4375 405.417969 657.714844 403.277344 661.40625 403.277344 C 665.964844 403.277344 669.386719 406.28125 669.386719 412.851562 L 669.386719 426.078125 L 662.453125 426.078125 L 662.453125 413.714844 C 662.453125 410.84375 661.449219 408.882812 658.941406 408.882812 C 657.027344 408.882812 655.890625 410.203125 655.433594 411.484375 C 655.25 411.894531 655.15625 412.574219 655.15625 413.214844 L 655.15625 426.070312 L 648.234375 426.070312 Z M 685.800781 426.070312 L 685.394531 423.835938 L 685.265625 423.835938 C 683.808594 425.617188 681.523438 426.574219 678.882812 426.574219 C 674.367188 426.574219 671.679688 423.289062 671.679688 419.734375 C 671.679688 413.945312 676.875 411.160156 684.765625 411.207031 L 684.765625 410.890625 C 684.765625 409.703125 684.121094 408.019531 680.707031 408.019531 C 678.425781 408.019531 676.011719 408.789062 674.550781 409.703125 L 673.269531 405.238281 C 674.820312 404.367188 677.875 403.277344 681.929688 403.277344 C 689.363281 403.277344 691.734375 407.65625 691.734375 412.894531 L 691.734375 420.648438 C 691.734375 422.785156 691.824219 424.839844 692.054688 426.070312 Z M 684.984375 415.542969 C 681.339844 415.496094 678.507812 416.363281 678.507812 419.054688 C 678.507812 420.835938 679.695312 421.699219 681.246094 421.699219 C 681.640625 421.703125 682.027344 421.640625 682.40625 421.523438 C 682.78125 421.402344 683.132812 421.230469 683.453125 421 C 683.777344 420.769531 684.054688 420.5 684.292969 420.179688 C 684.53125 419.863281 684.714844 419.519531 684.839844 419.144531 C 684.9375 418.753906 684.980469 418.359375 684.980469 417.957031 Z M 695.386719 411.117188 C 695.386719 407.835938 695.292969 405.695312 695.203125 403.78125 L 701.175781 403.78125 L 701.40625 407.878906 L 701.582031 407.878906 C 702.726562 404.644531 705.460938 403.277344 707.605469 403.277344 C 708.09375 403.257812 708.578125 403.289062 709.0625 403.363281 L 709.0625 409.886719 C 708.445312 409.765625 707.824219 409.703125 707.195312 409.703125 C 704.640625 409.703125 702.910156 411.074219 702.441406 413.214844 C 702.351562 413.726562 702.308594 414.242188 702.3125 414.765625 L 702.3125 426.070312 L 695.378906 426.070312 Z M 754.800781 420.050781 C 754.800781 422.332031 754.847656 424.335938 754.984375 426.070312 L 751.425781 426.070312 L 751.195312 422.46875 L 751.109375 422.46875 C 750.0625 424.246094 747.730469 426.578125 743.816406 426.578125 C 740.347656 426.578125 736.199219 424.664062 736.199219 416.914062 L 736.199219 404.003906 L 740.210938 404.003906 L 740.210938 416.21875 C 740.210938 420.410156 741.484375 423.242188 745.136719 423.242188 C 747.824219 423.242188 749.691406 421.367188 750.425781 419.59375 C 750.667969 418.929688 750.789062 418.242188 750.789062 417.539062 L 750.789062 404.003906 L 754.800781 404.003906 Z M 759.457031 426.070312 C 759.550781 424.566406 759.636719 422.332031 759.636719 420.371094 L 759.636719 393.699219 L 763.601562 393.699219 L 763.601562 407.5625 L 763.695312 407.5625 C 765.109375 405.101562 767.660156 403.503906 771.21875 403.503906 C 776.6875 403.503906 780.5625 408.0625 780.515625 414.765625 C 780.515625 422.652344 775.546875 426.578125 770.628906 426.578125 C 767.433594 426.578125 764.882812 425.34375 763.242188 422.425781 L 763.101562 422.425781 L 762.921875 426.078125 Z M 763.601562 417.226562 C 763.617188 417.71875 763.675781 418.207031 763.785156 418.6875 C 764.558594 421.464844 766.882812 423.378906 769.800781 423.378906 C 774 423.378906 776.503906 419.960938 776.503906 414.902344 C 776.503906 410.480469 774.222656 406.699219 769.941406 406.699219 C 767.207031 406.699219 764.652344 408.566406 763.832031 411.617188 C 763.742188 412.078125 763.601562 412.621094 763.601562 413.261719 Z M 785.996094 415.769531 C 786.082031 421.195312 789.546875 423.425781 793.5625 423.425781 C 796.433594 423.425781 798.167969 422.925781 799.667969 422.289062 L 800.355469 425.160156 C 798.941406 425.796875 796.523438 426.527344 793.011719 426.527344 C 786.222656 426.527344 782.160156 422.058594 782.160156 415.40625 C 782.160156 408.75 786.082031 403.503906 792.511719 403.503906 C 799.714844 403.503906 801.628906 409.84375 801.628906 413.90625 C 801.625 414.53125 801.582031 415.15625 801.5 415.777344 Z M 797.753906 412.894531 C 797.800781 410.34375 796.710938 406.375 792.195312 406.375 C 788.132812 406.375 786.359375 410.117188 786.03125 412.894531 Z M 797.753906 412.894531 " fill-opacity="1" fill-rule="nonzero"></path></g><g clip-path="url(#e28b786d18)"><path fill="#ffffff" d="M 731.433594 407.976562 C 731.011719 407.355469 730.535156 406.78125 730.003906 406.25 C 729.472656 405.71875 728.898438 405.242188 728.277344 404.820312 C 727.65625 404.398438 727 404.039062 726.308594 403.738281 C 725.621094 403.441406 724.910156 403.210938 724.175781 403.046875 C 723.441406 402.882812 722.699219 402.789062 721.949219 402.765625 C 721.199219 402.746094 720.453125 402.792969 719.710938 402.910156 C 718.96875 403.027344 718.246094 403.214844 717.539062 403.46875 C 716.832031 403.722656 716.15625 404.042969 715.507812 404.425781 C 714.863281 404.808594 714.257812 405.246094 713.695312 405.746094 C 713.132812 406.242188 712.621094 406.789062 712.160156 407.382812 C 711.703125 407.976562 711.300781 408.605469 710.960938 409.277344 C 710.621094 409.945312 710.34375 410.640625 710.136719 411.363281 C 709.929688 412.085938 709.789062 412.820312 709.71875 413.566406 C 709.648438 414.316406 709.648438 415.0625 709.71875 415.808594 C 709.792969 416.558594 709.933594 417.292969 710.144531 418.011719 C 710.355469 418.734375 710.628906 419.429688 710.972656 420.097656 C 711.3125 420.765625 711.714844 421.398438 712.175781 421.992188 C 712.636719 422.582031 713.148438 423.128906 713.714844 423.625 C 714.277344 424.121094 714.882812 424.558594 715.53125 424.941406 C 716.175781 425.320312 716.855469 425.640625 717.5625 425.894531 C 718.269531 426.144531 718.992188 426.332031 719.734375 426.449219 C 720.476562 426.5625 721.222656 426.609375 721.972656 426.585938 C 722.722656 426.558594 723.464844 426.464844 724.199219 426.300781 C 724.933594 426.136719 725.640625 425.902344 726.332031 425.605469 L 730.941406 433.089844 L 734.601562 430.601562 L 729.992188 423.113281 C 730.480469 422.628906 730.921875 422.101562 731.320312 421.539062 C 731.71875 420.976562 732.0625 420.382812 732.355469 419.761719 C 732.652344 419.136719 732.890625 418.492188 733.070312 417.828125 C 733.253906 417.164062 733.378906 416.488281 733.441406 415.804688 C 733.507812 415.117188 733.515625 414.429688 733.460938 413.746094 C 733.40625 413.058594 733.292969 412.378906 733.121094 411.714844 C 732.953125 411.046875 732.722656 410.398438 732.441406 409.769531 C 732.15625 409.144531 731.820312 408.542969 731.433594 407.972656 M 726.269531 421.574219 C 725.816406 421.882812 725.335938 422.144531 724.832031 422.359375 C 724.328125 422.570312 723.808594 422.734375 723.269531 422.84375 C 722.734375 422.957031 722.191406 423.015625 721.644531 423.019531 C 721.09375 423.023438 720.550781 422.972656 720.015625 422.871094 C 719.476562 422.769531 718.953125 422.613281 718.445312 422.410156 C 717.9375 422.203125 717.453125 421.949219 716.996094 421.648438 C 716.535156 421.347656 716.113281 421.003906 715.722656 420.621094 C 715.332031 420.234375 714.980469 419.816406 714.671875 419.363281 C 714.367188 418.910156 714.105469 418.433594 713.890625 417.925781 C 713.675781 417.421875 713.515625 416.902344 713.402344 416.363281 C 713.292969 415.828125 713.234375 415.285156 713.230469 414.738281 C 713.226562 414.191406 713.273438 413.644531 713.378906 413.109375 C 713.480469 412.570312 713.632812 412.046875 713.839844 411.539062 C 714.046875 411.03125 714.300781 410.546875 714.601562 410.089844 C 714.902344 409.632812 715.242188 409.207031 715.628906 408.816406 C 716.011719 408.425781 716.433594 408.074219 716.886719 407.769531 C 717.339844 407.460938 717.816406 407.199219 718.320312 406.984375 C 718.828125 406.769531 719.347656 406.609375 719.882812 406.496094 C 720.421875 406.386719 720.964844 406.328125 721.511719 406.324219 C 722.058594 406.320312 722.601562 406.371094 723.140625 406.472656 C 723.679688 406.574219 724.203125 406.730469 724.710938 406.933594 C 725.21875 407.140625 725.703125 407.394531 726.160156 407.695312 C 726.617188 407.996094 727.042969 408.339844 727.433594 408.722656 C 727.824219 409.109375 728.171875 409.527344 728.480469 409.980469 C 728.789062 410.433594 729.050781 410.914062 729.261719 411.417969 C 729.476562 411.921875 729.636719 412.441406 729.75 412.980469 C 729.859375 413.515625 729.917969 414.058594 729.921875 414.605469 C 729.925781 415.152344 729.875 415.695312 729.773438 416.234375 C 729.671875 416.773438 729.515625 417.296875 729.3125 417.804688 C 729.105469 418.3125 728.851562 418.796875 728.550781 419.253906 C 728.25 419.710938 727.910156 420.136719 727.523438 420.527344 C 727.140625 420.917969 726.722656 421.265625 726.269531 421.574219 " fill-opacity="1" fill-rule="evenodd"></path></g><path fill="#ffffff" d="M 829.050781 426.164062 L 826.226562 426.164062 C 826.226562 403.410156 807.449219 384.898438 784.371094 384.898438 L 784.371094 382.074219 C 809.007812 382.074219 829.050781 401.851562 829.050781 426.164062 Z M 829.050781 426.164062 " fill-opacity="1" fill-rule="nonzero"></path><g clip-path="url(#1d29fb9033)"><path fill="#ffffff" d="M 831.003906 410.992188 C 827.609375 396.714844 816.046875 384.792969 801.542969 380.636719 L 802.183594 378.371094 C 817.492188 382.765625 829.703125 395.355469 833.289062 410.449219 Z M 833.175781 397.597656 C 829.683594 389.976562 823.726562 383.328125 816.410156 378.882812 L 817.386719 377.273438 C 825.023438 381.914062 831.238281 388.851562 834.890625 396.8125 Z M 833.175781 397.597656 " fill-opacity="1" fill-rule="nonzero"></path></g></svg>